<?xml version="1.0" encoding="UTF-8" standalone="no"?>
<!-- Created with Inkscape (http://www.inkscape.org/) -->

<svg
   xmlns:dc="http://purl.org/dc/elements/1.1/"
   xmlns:cc="http://creativecommons.org/ns#"
   xmlns:rdf="http://www.w3.org/1999/02/22-rdf-syntax-ns#"
   xmlns:svg="http://www.w3.org/2000/svg"
   xmlns="http://www.w3.org/2000/svg"
   version="1.1"
   width="132.5"
   height="133.75"
   id="svg2"
   xml:space="preserve"><metadata
     id="metadata8"><rdf:RDF><cc:Work
         rdf:about=""><dc:format>image/svg+xml</dc:format><dc:type
           rdf:resource="http://purl.org/dc/dcmitype/StillImage" /><dc:title></dc:title></cc:Work></rdf:RDF></metadata><defs
     id="defs6" /><g
     transform="matrix(1.25,0,0,-1.25,0,133.75)"
     id="g10"><g
       transform="scale(0.1,0.1)"
       id="g12"><path
         d="m 500.078,10.6914 c -29.297,1.3672 -57.027,4.918 -85.238,10.8594 -36.211,7.6211 -80.82,22.3476 -105.93,34.9609 -3.711,1.8789 -7.148,3.3985 -7.582,3.3985 -1.058,0 -19.379,9.1796 -22.887,11.4492 -1.531,1.0117 -6.761,4.0625 -11.562,6.75 -17.231,9.6914 -56.02,36.2496 -70.238,48.1286 -3.52,2.973 -8.121,6.723 -10.231,8.403 -14.219,11.289 -43.129,40.738 -57.269,58.398 -2.661,3.359 -7.192,8.711 -10,11.992 -14.102,16.129 -36.4808,48.278 -46.0902,66.129 -2.2696,4.18 -6.211,11.371 -8.7891,15.942 -7.1523,12.66 -16.9219,32.726 -23.0898,47.378 C 28.6289,364.441 14.2617,411.121 9.33984,438.078 7.46094,448.43 3.82812,475.691 1.98828,493.43 0.308594,510.031 0.0390625,515.969 0,540.852 c -0.0390625,21.476 0.269531,31.41 1.21094,40.589 0.69922,6.668 1.48828,14.168 1.71875,16.668 1.51953,15.903 6.51953,45.75 10.89841,65.2 3.0117,13.402 14.6524,50.351 20.3516,64.531 15.8203,39.609 29.6914,66.601 49.4492,96.332 29.4221,44.219 45.5121,63.359 81.9611,97.5 28.121,26.289 41.48,37.5 61.172,51.207 25.898,18.051 45.347,28.521 82.187,44.341 5.621,2.42 13.781,6.01 18.199,7.97 11.133,4.96 15,6.56 25.391,10.58 5,1.95 9.922,3.91 10.941,4.3 2.34,0.97 15.43,5.31 26.25,8.75 21.641,6.87 57.891,13.83 89.098,17.03 14.024,1.48 20.551,1.72 46.293,1.68 30.969,-0.04 49.141,-1.25 70.149,-4.69 23.558,-3.87 29.808,-5.12 46.679,-9.14 19.653,-4.73 56.41,-17.58 76.602,-26.84 2.308,-1.05 7.578,-3.32 11.758,-5.07 21.41,-8.95 60.429,-27.618 67.89,-32.501 1.879,-1.25 8.211,-5.277 14.031,-9.027 12.731,-8.082 32.379,-22.692 38.711,-28.672 2.5,-2.418 7.418,-6.949 10.969,-10.149 29.11,-26.101 52.539,-49.113 64.5,-63.363 11.442,-13.598 15.578,-19.258 37.418,-51.25 7.262,-10.707 26.293,-41.719 26.293,-42.887 0,-0.203 2.848,-6.222 6.359,-13.402 6.8,-14.027 11.84,-25.898 11.84,-27.969 0,-0.711 0.63,-2.07 1.41,-3.09 4.02,-5.121 15.97,-38.589 23.16,-64.761 8.95,-32.617 15.47,-73.438 17.54,-109.219 0.66,-12.23 0.47,-48.52 -0.39,-58.789 -1.64,-20.16 -3.13,-34.813 -4.18,-41.723 -0.59,-3.976 -1.45,-10.117 -1.91,-13.668 -4.93,-38.91 -23.52,-98.172 -44.571,-141.922 -3.719,-7.726 -8.129,-16.398 -9.809,-19.289 -1.679,-2.89 -4.84,-8.711 -7.031,-12.847 -2.187,-4.184 -4.84,-9.153 -5.898,-11.024 -2.891,-5.117 -17.582,-28.047 -19.961,-31.09 -1.09,-1.449 -5.551,-7.429 -9.84,-13.289 -4.301,-5.82 -10.078,-13.199 -12.82,-16.359 -2.731,-3.172 -7.77,-9.141 -11.211,-13.281 -14.18,-17.149 -17.028,-20.321 -31.25,-34.457 -13.321,-13.282 -22.61,-21.602 -37.887,-33.942 -2.731,-2.23 -5.152,-4.3 -5.391,-4.648 C 847.148,117.41 821.48,99.4414 802.379,87.0586 788.75,78.2305 755.82,59.9102 753.551,59.9102 c -0.5,0 -2.731,-0.9688 -4.879,-2.1914 C 742.379,54.25 719.488,45.0312 703.012,39.3281 636.801,16.4688 571.68,7.28906 500.078,10.6914 z m 21.602,6.4492 c 1.05,0.4297 1.211,2.8906 1.129,22.0703 -0.039,11.9102 0.121,21.8008 0.312,22.0274 0.238,0.2031 0.938,0.2031 1.57,-0.0781 1.008,-0.3907 1.207,-3.5118 1.36,-22.2618 l 0.199,-21.8398 16.68,0 0,12.8906 c 0,11.3711 0.16,12.8906 1.25,13.1289 0.699,0.1133 1.48,-0.0781 1.679,-0.4297 0.231,-0.3867 0.59,-5.8593 0.782,-12.1875 0.199,-6.332 0.629,-11.8828 0.898,-12.3828 0.66,-1.0586 18.441,-0.3164 19.531,0.8203 0.43,0.4297 0.391,3.8633 -0.16,8.9024 -0.461,4.5273 -0.82,9.6875 -0.82,11.4883 0,2.9726 0.16,3.2812 1.68,3.039 1.609,-0.2265 1.761,-0.7383 2.308,-8.5898 0.352,-4.5664 0.781,-9.7969 1.012,-11.6367 l 0.39,-3.2813 8.129,0.5078 c 4.45,0.3125 8.403,0.8203 8.75,1.1719 0.391,0.3516 -0.039,5.3906 -0.937,11.6016 -0.902,6.0468 -1.641,11.3672 -1.641,11.8398 0,0.418 0.86,0.8203 1.879,0.8203 2.11,0 2.031,0.3477 3.82,-14.0312 0.629,-4.961 1.411,-9.2891 1.719,-9.5703 0.321,-0.3086 3.992,0.039 8.172,0.7382 l 7.578,1.293 -0.078,2.2305 c -0.043,1.25 -0.781,6.4062 -1.723,11.4375 -1.988,11.1797 -1.988,10.9023 -0.078,10.9023 1.95,0 2.461,-1.4023 4.059,-11.75 C 613.09,23.6992 612.891,24.25 615,24.25 c 3.441,0 14.41,2.4609 15.469,3.4414 0.902,0.8477 0.859,1.7891 -0.199,6.168 -0.661,2.8515 -3.079,14.4101 -5.348,25.6601 -12.543,62.1095 -12.152,59.5705 -9.492,59.5705 1.871,0 1.41,1.68 5.55,-19.7306 5.309,-27.5703 13.981,-69.6797 14.489,-70.5 0.23,-0.3906 0.859,-0.6289 1.371,-0.4688 0.5,0.1485 3.859,0.8985 7.5,1.5977 3.629,0.7031 6.949,1.5625 7.461,1.8398 0.621,0.3907 0.078,3.6719 -1.922,11.6836 -1.559,6.0899 -2.609,11.5977 -2.34,12.2188 0.66,1.8007 3.402,1.4101 3.871,-0.5391 0.231,-0.9414 1.25,-5.3203 2.301,-9.6914 1.019,-4.3789 1.879,-8.5195 1.879,-9.1797 0,-2.8086 1.871,-3.1289 8.469,-1.3711 3.48,0.9414 6.761,2.0703 7.312,2.582 0.777,0.6993 0.348,3.0079 -2.152,11.7188 -3.168,10.9414 -3.199,12.6094 -0.309,12.0703 1.25,-0.2422 3.711,-7.6211 6.68,-19.8086 0.39,-1.5234 0.969,-2.0703 2.219,-2.0703 2.929,0 14.57,4.2188 14.769,5.3867 0.121,0.5938 -1.449,5.9024 -3.519,11.8008 -2.071,5.9023 -3.547,10.9414 -3.321,11.1719 0.242,0.2773 1.211,0.4687 2.192,0.4687 1.519,0 2.07,-1.0898 5.23,-10.8203 1.918,-5.9375 3.75,-11.0508 4.031,-11.3711 0.778,-0.7773 16.989,5.0821 17.887,6.4531 0.512,0.8204 0.121,2.5 -1.289,5.6602 -1.129,2.457 -3.008,7.1875 -4.219,10.5078 -1.211,3.3203 -2.461,6.6016 -2.769,7.3399 -0.43,1.0195 -0.16,1.332 1.051,1.332 0.859,0 1.796,0.0781 2.07,0.1992 0.668,0.2305 1.367,-1.1719 3.558,-7.0312 6.168,-16.5274 5.93,-16.0977 8.161,-15.668 2.89,0.5898 12.847,5.1172 12.847,5.8594 0,0.5507 -4.41,11.0195 -6.828,16.25 -3.129,6.8398 -9.89,23.7105 -9.89,24.8085 0,0.93 0.589,1.359 1.839,1.359 1.602,0 2.27,-1.128 6.012,-10.4292 6.84,-16.8282 12.43,-29.879 13.207,-30.6172 0.863,-0.8633 14.613,6.1289 14.613,7.457 0,0.5117 -2.39,5.7422 -5.32,11.6406 -2.891,5.9024 -5.109,11.0625 -4.883,11.4102 0.242,0.3906 1.172,0.6992 2.114,0.6992 1.41,0 2.5,-1.7188 6.878,-11.0195 2.891,-6.0508 5.54,-11.0079 5.969,-11.0079 1.449,0 12.699,6.4805 12.699,7.2969 0,0.4727 -2.578,5.5117 -5.699,11.211 -3.129,5.7109 -5.668,10.8589 -5.668,11.4099 0,1.129 2.028,2.192 3.047,1.563 0.352,-0.231 3.121,-5.1917 6.172,-11.0901 3.051,-5.8633 5.941,-10.8203 6.371,-11.0235 0.899,-0.3476 14.719,7.3125 14.719,8.1719 0,0.3086 -2.93,5.5391 -6.559,11.6797 -6.64,11.289 -6.953,12.5 -3.281,12.5 0.98,-0.039 8.711,-12.109 12.461,-19.5703 0.937,-1.8399 1.641,-2.418 2.578,-2.0313 2.109,0.8204 11.68,7.543 12.031,8.4727 0.2,0.4689 -0.941,2.6169 -2.461,4.7309 -1.519,2.148 -4.609,6.839 -6.879,10.429 -3.199,5.078 -3.902,6.758 -3.242,7.578 1.602,1.911 2.852,1.051 6.41,-4.5 8.442,-13.039 9.801,-14.961 10.864,-14.961 1.679,0 13.75,8.321 13.75,9.5 0,0.543 -6.063,9.493 -13.481,19.84 -7.422,10.352 -16.761,23.59 -20.742,29.453 -20.348,29.731 -20.551,30.079 -16.988,30.508 1.211,0.16 3.789,-3.16 12.258,-15.898 5.902,-8.86 17.972,-26.289 26.8,-38.672 14.219,-20 16.25,-22.5 17.5,-21.801 2.422,1.293 12.852,9.223 12.852,9.774 0,0.269 -1.602,2.539 -3.59,5.039 -8.242,10.308 -11.57,14.757 -11.57,15.468 0,0.391 0.629,1.09 1.449,1.52 1.25,0.66 1.84,0.269 3.949,-2.457 6.711,-8.672 13,-16.481 13.281,-16.481 1.129,0 10.891,8.938 10.891,10 0,0.7 -2.223,3.821 -4.922,6.95 -2.73,3.078 -4.918,5.859 -4.918,6.168 0,0.312 -1.051,1.761 -2.301,3.16 -2.781,3.211 -2.929,4.812 -0.39,4.812 1.289,0 2.219,-0.672 3,-2.07 0.59,-1.133 3.211,-4.492 5.789,-7.383 2.57,-2.93 5.191,-6.098 5.82,-7.039 0.621,-0.93 1.563,-1.711 2.031,-1.711 1.008,0 12.969,10.461 12.969,11.363 0,0.321 -3.75,4.77 -8.359,9.848 -4.57,5.109 -8.32,9.84 -8.32,10.539 0,0.711 0.66,1.332 1.519,1.41 1.051,0.121 3.871,-2.5 9.801,-9.297 4.57,-5.191 8.441,-9.453 8.601,-9.453 0.618,0 11.481,10.121 11.829,11.024 0.199,0.539 -0.54,1.988 -1.68,3.16 -7.18,7.617 -16.09,18.519 -15.699,19.18 1.328,2.148 3.75,0.269 11.91,-9.18 l 8.597,-9.961 5.153,5.578 c 2.82,3.09 5.039,6.141 4.929,6.801 -0.199,0.98 -10.468,10.98 -28.519,27.66 -2.34,2.191 -3.121,3.398 -2.77,4.371 0.27,0.707 1.008,1.289 1.598,1.289 1.133,0 14.531,-11.949 26.172,-23.359 4.34,-4.223 6.949,-6.289 7.738,-5.973 1.129,0.434 10.313,11.094 10.352,11.953 0,0.27 -3.672,3.399 -8.211,7.028 -4.531,3.589 -8.82,7.23 -9.57,8.05 -1.442,1.602 -1.129,3.832 0.511,3.832 0.547,0 5.16,-3.402 10.239,-7.582 5.07,-4.179 9.492,-7.578 9.839,-7.578 0.391,0 1.993,1.598 3.629,3.59 1.641,1.988 4.34,5.238 5.981,7.188 2.422,2.972 2.812,3.793 2.031,4.73 -0.512,0.582 -4.648,3.902 -9.219,7.34 -4.531,3.402 -8.281,6.601 -8.281,7.152 0,0.508 0.469,1.289 1.02,1.758 1.011,0.82 2.378,0.152 6.21,-3.051 4.372,-3.629 10.149,-8.129 11.911,-9.297 1.949,-1.293 2.07,-1.25 3.16,0.039 2.738,3.321 8.828,11.918 8.828,12.5 0,0.309 -1.789,1.801 -3.981,3.239 -13.949,9.222 -16.839,11.922 -13.91,13.051 1.141,0.429 3.524,-1.008 15.59,-9.61 2.301,-1.601 4.613,-2.969 5.121,-2.969 1.321,-0.043 9.68,12.848 8.821,13.559 -0.348,0.352 -5,3.441 -10.309,6.871 -5.352,3.438 -9.691,6.367 -9.691,6.527 0,1.133 1.14,2.614 2,2.614 0.929,0 5.5,-2.774 12.609,-7.692 1.141,-0.82 3.359,-2.351 4.922,-3.398 l 2.82,-1.91 1.328,1.636 c 0.742,0.891 3.281,4.883 5.621,8.821 3.629,6.101 4.141,7.351 3.239,8.211 -0.969,0.968 -28.789,17.218 -44.688,26.129 -3.941,2.23 -9.762,5.511 -12.891,7.269 -3.121,1.75 -9.179,5.152 -13.429,7.531 -7.391,4.153 -9.18,6.02 -6.68,6.961 0.617,0.231 6.91,-2.808 14.219,-6.961 7.219,-4.019 18.898,-10.621 26.012,-14.597 17.968,-10.082 37.738,-21.453 38.828,-22.313 1.441,-1.129 2.109,-0.308 6.332,7.5 4.609,8.563 5.468,7.031 -7.582,13.992 -5,2.649 -9.102,5.231 -9.141,5.7 0,0.468 0.43,1.211 0.981,1.679 0.742,0.578 3.589,-0.629 11.171,-4.769 5.618,-3.082 10.508,-5.43 10.86,-5.192 0.777,0.469 6.558,12.422 6.558,13.59 0,0.512 -4.609,3.129 -10.238,5.86 -9.57,4.652 -11.672,6.332 -9.531,7.66 0.39,0.269 5.43,-1.797 11.14,-4.5 8.282,-3.938 10.622,-4.758 11.321,-4.02 0.469,0.551 2.148,3.832 3.75,7.34 2,4.34 2.699,6.68 2.23,7.43 -0.39,0.582 -3.242,2.179 -6.371,3.59 -12.851,5.703 -14.41,6.519 -14.41,7.66 0,2.5 2.699,1.953 12.578,-2.699 5.942,-2.77 10.472,-4.489 10.822,-4.059 1.05,1.25 7.11,17.578 6.83,18.437 -0.15,0.461 -5.23,2.852 -11.281,5.274 -10.039,4.019 -11.019,4.566 -11.25,6.437 -0.16,1.411 0.11,2 0.93,2 0.633,0 5.98,-2.031 11.961,-4.531 5.93,-2.539 11.13,-4.5 11.52,-4.34 0.78,0.274 5,12.891 5.04,15.043 0,0.938 -4.14,2.688 -17.271,7.149 -23.75,8.121 -24.059,8.281 -24.059,9.922 0,0.777 0.59,1.519 1.289,1.636 0.7,0.16 9.692,-2.699 19.961,-6.289 10.27,-3.59 19.57,-6.597 20.66,-6.679 1.84,-0.122 2.11,0.308 4.14,6.601 1.22,3.789 1.88,7.07 1.53,7.418 -0.35,0.359 -4.22,1.531 -8.56,2.539 -14.61,3.481 -17.418,4.344 -17.418,5.434 0,2.109 2.578,1.918 14.648,-1.172 6.72,-1.719 12.5,-2.852 12.77,-2.539 0.51,0.469 3.25,9.34 4.22,13.64 0.28,1.047 0,1.789 -0.62,1.989 -0.59,0.148 -4.96,1.211 -9.77,2.34 -13.24,3.089 -14.41,3.48 -14.41,5.082 0,1.91 1.01,1.839 14.18,-1.411 6.36,-1.562 11.72,-2.652 11.91,-2.461 0.63,0.59 3.63,15.86 3.32,16.801 -0.15,0.469 -5.82,1.949 -12.62,3.321 -6.79,1.328 -12.5,2.578 -12.69,2.769 -0.78,0.777 0.7,2.848 2.03,2.848 0.78,0 6.45,-1.047 12.54,-2.34 6.09,-1.289 11.37,-2.07 11.72,-1.719 0.62,0.629 3.01,12.852 3.01,15.469 0,0.902 -0.75,1.48 -2.11,1.762 -1.14,0.23 -6.02,1.129 -10.82,1.988 -4.77,0.902 -9.5,1.762 -10.43,1.949 -1.1,0.242 -1.68,0.902 -1.68,1.961 0,1.52 0.23,1.602 4.33,1.09 2.39,-0.27 8.05,-1.207 12.54,-2.109 4.49,-0.86 8.36,-1.411 8.6,-1.168 0.54,0.546 2.73,16.367 2.42,17.847 -0.24,1.211 -9.92,2.582 -74.729,10.473 -15.429,1.867 -17.652,2.297 -17.652,3.476 0,0.704 0.269,1.442 0.582,1.641 0.469,0.313 34.449,-3.598 54.419,-6.25 18.63,-2.461 32.22,-4.098 34.84,-4.18 2.62,-0.039 3.01,0.192 3.51,2.032 0.32,1.129 0.71,5.23 0.82,9.097 l 0.28,6.992 -6.1,0.508 c -3.32,0.274 -8.75,0.66 -12.07,0.942 -6.32,0.468 -7.57,0.968 -6.56,2.648 0.55,0.863 2.7,0.863 12.66,0.203 6.64,-0.429 12.3,-0.551 12.62,-0.242 0.35,0.359 0.7,3.992 0.78,8.133 l 0.19,7.539 -12.77,0.23 c -12.62,0.2 -12.74,0.239 -12.5,1.84 0.23,1.641 0.47,1.641 12.69,1.68 l 12.5,0.039 0.43,2.301 c 0.24,1.25 0.24,5.121 0.04,8.64 l -0.39,6.36 -12.73,-0.153 -12.7,-0.16 0,3.91 25.86,0 -0.23,8.122 -0.2,8.171 -12.73,-0.281 c -12.27,-0.308 -12.7,-0.23 -12.7,1.211 0,1.367 0.7,1.527 7.38,1.988 4.07,0.282 9.54,0.469 12.11,0.469 5.16,0 6.72,1.25 5.98,4.731 -0.19,0.98 -0.55,4.101 -0.78,6.992 -0.27,2.89 -0.63,5.429 -0.82,5.629 -0.35,0.39 -16.45,-0.821 -32.97,-2.461 -10,-0.981 -11.371,-0.86 -11.371,1.051 0,1.171 0.903,1.449 6.251,1.878 8.87,0.743 29.03,2.571 33.87,3.122 l 4.06,0.468 -0.51,5.782 c -0.27,3.199 -0.7,7.152 -0.97,8.75 -0.43,2.769 -0.55,2.89 -2.81,2.421 -7.54,-1.519 -22.82,-3.402 -23.36,-2.851 -0.36,0.39 -0.47,1.172 -0.2,1.84 0.31,0.859 3.01,1.48 10.43,2.422 16.6,2.148 15.2,1.597 14.73,5.66 -0.86,7.847 -2.19,15.707 -2.74,16.25 -0.35,0.347 -5.43,-0.313 -11.32,-1.403 -10.79,-2.031 -13.01,-2.07 -13.01,-0.039 0,1.371 0.27,1.442 12.5,3.551 5.43,0.938 10.23,1.988 10.7,2.348 0.59,0.429 0.66,1.679 0.23,3.859 -1.32,6.57 -2.81,12.113 -3.47,12.742 -0.35,0.391 -5.55,-0.511 -11.92,-2.07 -11.48,-2.738 -12.53,-2.738 -12.61,0.23 0,0.469 4.92,1.879 11.13,3.239 6.13,1.332 11.41,2.582 11.76,2.82 0.35,0.191 0.62,1.133 0.62,2.031 -0.08,2.5 -2.77,13.469 -3.51,14.219 -0.35,0.313 -5.28,-0.75 -10.9,-2.348 -5.63,-1.64 -10.82,-2.972 -11.52,-2.972 -1.18,-0.028 -2.7,2.703 -1.92,3.48 0.39,0.391 16.56,4.692 20.12,5.352 1.37,0.238 2.62,0.738 2.85,1.058 0.39,0.621 -3.75,15.7 -4.53,16.442 -0.24,0.277 -3.24,-0.43 -6.68,-1.481 -3.48,-1.101 -18.56,-5.781 -33.599,-10.468 -15,-4.653 -31.48,-9.813 -36.601,-11.454 -5.11,-1.597 -9.918,-2.957 -10.7,-2.957 -2.191,0 -2.66,2.957 -0.621,3.778 0.93,0.39 14.449,4.652 30.11,9.543 30.711,9.527 32.929,10.226 46.601,14.328 5,1.488 9.38,3.012 9.69,3.32 0.35,0.352 -0.51,3.75 -1.87,7.578 -1.84,5.231 -2.82,6.953 -3.79,6.953 -0.74,0.039 -5.59,-1.519 -10.78,-3.402 -5.16,-1.867 -9.89,-3.391 -10.512,-3.391 -1.41,0 -2.148,2.731 -1.019,3.672 0.473,0.352 5.32,2.11 10.751,3.899 5.42,1.801 10.11,3.359 10.39,3.562 0.46,0.231 -4.22,14.41 -5,15.188 -0.16,0.16 -5.12,-1.641 -10.981,-3.981 -5.898,-2.379 -11.25,-4.097 -11.91,-3.867 -0.707,0.277 -1.098,1.141 -0.938,2.109 0.188,1.372 2.071,2.348 10.821,5.629 5.818,2.153 10.698,4.289 10.818,4.68 0.15,0.402 -0.55,2.391 -1.56,4.461 -1.02,2.031 -2.23,4.961 -2.74,6.48 -1.479,4.731 -1.831,4.731 -12.729,-0.191 -5.512,-2.461 -10.551,-4.5 -11.141,-4.5 -1.289,0 -2.422,2.93 -1.48,3.75 0.351,0.32 5.351,2.539 11.09,4.973 5.75,2.379 10.429,4.597 10.429,4.918 0,1.679 -7.847,16.718 -8.75,16.718 -0.539,0 -6.008,-2.429 -12.07,-5.429 -6.09,-2.969 -11.207,-5.278 -11.359,-5.117 -0.122,0.16 -0.469,1.046 -0.79,1.988 -0.46,1.558 0.399,2.109 10.899,7.148 6.492,3.09 11.449,5.903 11.449,6.481 0,1.179 -4.609,10.472 -6.289,12.703 -1.059,1.406 -1.25,1.367 -6.328,-1.453 -2.852,-1.598 -7.109,-3.899 -9.371,-5.188 -2.309,-1.25 -8.32,-4.57 -13.36,-7.34 -11.96,-6.57 -11.531,-6.453 -12.66,-4.031 -0.55,1.25 -0.621,2.11 -0.16,2.27 0.75,0.269 12.93,6.718 29.809,15.781 4.652,2.539 8.48,5 8.48,5.551 0,0.539 -1.719,3.859 -3.828,7.379 -3.211,5.308 -4.101,6.289 -5.121,5.738 -0.699,-0.391 -5.699,-3.277 -11.129,-6.438 -8.91,-5.16 -9.961,-5.632 -10.82,-4.461 -0.512,0.711 -0.942,1.598 -0.942,2.071 0.039,0.429 4.692,3.359 10.352,6.488 5.66,3.121 10.469,6.133 10.66,6.641 0.399,1.011 -6.562,12.3 -7.531,12.3 -0.32,0 -5.391,-3.121 -11.289,-6.949 -10.199,-6.601 -10.781,-6.883 -11.801,-5.511 -0.551,0.781 -0.941,1.761 -0.781,2.152 0.23,0.699 5.98,4.527 16.293,10.816 3.316,2.071 4.648,3.321 4.449,4.184 -0.473,1.867 -8.32,12.726 -9.262,12.769 -0.39,0 -5.347,-3.281 -10.929,-7.3 -9.418,-6.762 -10.239,-7.192 -11.18,-5.903 -1.442,1.953 -1.211,3.16 0.711,4.223 2.5,1.289 18.789,12.891 18.789,13.32 0,0.547 -9.141,13.117 -9.57,13.117 -0.2,0 -4.848,-3.628 -10.36,-8.039 l -10,-8.05 -1.359,1.722 c -1.723,2.149 -2,1.867 9.488,10.578 4.691,3.602 8.59,7 8.711,7.621 0.199,1.02 -9.02,12.93 -10.43,13.442 -0.308,0.156 -2.07,-1.094 -3.91,-2.731 -7.18,-6.453 -34.84,-30.472 -41.988,-36.492 -4.184,-3.508 -10.973,-9.34 -15.152,-12.89 -10.86,-9.297 -10,-8.789 -11.02,-6.911 -1.211,2.301 -0.078,3.512 14.77,16.09 7.07,5.981 17.339,14.801 22.808,19.571 5.473,4.8 13.16,11.48 17.07,14.8 3.903,3.36 8.711,7.582 10.743,9.379 l 3.629,3.321 -1.481,1.992 c -0.777,1.097 -3.32,4.027 -5.629,6.449 l -4.14,4.488 -2.149,-1.679 c -1.133,-0.938 -5.5,-4.918 -9.641,-8.911 -6.96,-6.679 -7.621,-7.136 -8.558,-5.886 -1.602,2.179 -1.211,3.238 2.148,6.25 9.34,8.316 13.2,11.949 13.828,12.929 0.473,0.778 -0.82,2.528 -4.726,6.438 l -5.391,5.391 -18.281,-18.051 -3.359,3.441 8.91,8.52 c 4.879,4.679 8.898,8.832 8.898,9.261 0,1.168 -10.578,10.149 -11.988,10.149 -0.699,0 -4.492,-3.59 -8.441,-7.969 -8.942,-10 -8.668,-9.801 -10.661,-8.711 -0.898,0.469 -1.519,1.129 -1.371,1.488 0.121,0.313 3.793,4.411 8.211,9.102 4.371,4.691 8.199,8.941 8.473,9.449 0.348,0.629 -1.402,2.539 -4.844,5.391 l -5.387,4.422 -6.293,-6.762 c -3.476,-3.75 -6.328,-7.031 -6.367,-7.309 0,-0.312 -0.859,-1.441 -1.91,-2.582 -1.68,-1.828 -2.109,-1.949 -3.871,-1.168 l -1.949,0.899 2.148,2.422 c 2.461,2.816 3.321,3.828 8.352,9.687 2,2.27 4.258,4.922 5.078,5.86 l 1.449,1.679 -6.25,6.172 c -3.437,3.36 -6.527,5.86 -6.879,5.512 -0.308,-0.352 -3.59,-4.731 -7.219,-9.774 -11.64,-16.007 -20.39,-26.91 -21.679,-26.91 -0.672,0 -1.641,0.473 -2.11,1.051 -0.671,0.82 -0.281,1.762 1.95,4.383 7.339,8.707 25.269,33.547 25.269,35 0,1.09 -11.012,9.648 -12.34,9.609 -0.511,0 -2.808,-3.09 -5.082,-6.84 -8.008,-13.121 -8.75,-14.293 -9.218,-14.761 -0.7,-0.668 -3.668,0.968 -3.668,1.992 0,0.43 3.046,5.59 6.796,11.406 3.793,5.863 6.832,11.051 6.832,11.602 0,0.859 -12.101,9.718 -14.601,10.699 -0.789,0.312 -2.82,-2.457 -7.078,-9.57 -3.242,-5.469 -6.403,-10.161 -6.992,-10.387 -0.539,-0.203 -1.559,0.156 -2.188,0.777 -1.211,1.211 -0.851,1.949 9.891,19.531 1.008,1.641 1.207,2.579 0.617,3.282 -1.598,1.879 -12.34,8.25 -13.32,7.847 C 789.41,984.012 780,968.469 780,967.328 c 0,-0.226 -0.551,-1.047 -1.25,-1.789 -0.941,-1.059 -1.559,-1.18 -2.66,-0.629 -0.781,0.43 -1.399,1.211 -1.36,1.719 0,0.473 2.54,5.16 5.622,10.351 4.058,6.84 5.429,9.731 4.847,10.391 -0.429,0.508 -3.437,2.309 -6.719,3.988 -6.718,3.469 -6.019,3.75 -10.242,-4.097 -7.027,-13.09 -7.187,-13.321 -8.789,-12.5 -0.777,0.429 -1.437,1.277 -1.437,1.91 0,0.617 2.218,5.039 4.918,9.797 2.691,4.769 4.922,9.07 4.922,9.543 0,1.008 -14.332,7.768 -15.512,7.298 -1.09,-0.43 -20.461,-38.63 -27.961,-55.119 -12.899,-28.472 -12.859,-28.363 -15.668,-26.601 -0.902,0.59 -0.16,2.66 4.301,11.949 2.968,6.18 7.027,14.813 9.058,19.18 4.61,10.082 14.649,30.203 21.129,42.429 2.742,5.192 4.891,9.762 4.731,10.112 -0.231,0.78 -16.758,8.17 -18.239,8.17 -0.511,0 -3.011,-4.53 -5.511,-10.04 -4.41,-9.73 -5.59,-11.171 -7.77,-9.812 -1.019,0.672 -1.019,0.75 6.828,17.352 0.864,1.76 1.41,3.59 1.25,4.06 -0.269,0.78 -15.308,7.54 -16.758,7.54 -0.699,0 -0.968,-0.7 -5.89,-13.48 -2.86,-7.38 -3.52,-8.51 -5,-8.51 -0.942,0 -1.879,0.23 -2.07,0.54 -0.161,0.32 1.48,5.04 3.71,10.43 2.258,5.43 4.098,10.59 4.098,11.45 0.043,1.33 -1.328,2.15 -8.047,4.8 -4.453,1.72 -8.32,2.89 -8.633,2.58 -0.308,-0.35 -1.679,-3.79 -3.007,-7.65 -5.352,-15.59 -6.25,-17.19 -8.911,-15.47 -0.781,0.5 -0.742,1.25 0.282,3.59 2.258,5.39 7.109,19.65 7.109,20.94 0,1.33 -0.941,1.76 -10.473,4.84 -4.019,1.29 -6.597,1.76 -7.07,1.33 -0.387,-0.43 -2.109,-5.82 -3.789,-12.03 -3.988,-14.77 -3.789,-14.22 -4.57,-15.24 -0.86,-1.09 -3.668,-0.43 -3.668,0.86 0,0.55 0.539,2.46 1.168,4.3 2.422,6.72 6.519,23.59 5.902,24.18 -0.941,0.9 -12.891,4.53 -15.633,4.73 -2.187,0.15 -2.379,-0.04 -3.039,-2.86 -4.027,-17.89 -10.789,-43.59 -11.449,-43.59 -0.469,0 -1.328,0.308 -1.91,0.699 -0.899,0.551 -0.43,3.211 2.808,16.101 7.622,30.27 7.774,31.64 4.532,32.19 -0.551,0.07 -3.2,0.7 -5.899,1.36 -7.191,1.8 -7.34,1.84 -8.281,1.25 -0.469,-0.27 -1.52,-5.43 -2.379,-11.48 -2.351,-16.95 -2.031,-15.86 -4.18,-15.86 -1.019,0 -1.839,0.27 -1.839,0.58 -0.043,0.32 0.859,6.65 1.988,14.07 1.101,7.42 1.801,13.67 1.531,13.94 -0.781,0.78 -21.293,4.03 -21.801,3.44 -0.269,-0.31 -1.05,-6.52 -1.761,-13.83 -1.481,-15.51 -1.598,-15.94 -3.59,-15.94 -1.719,0 -1.68,1.25 0.551,20.86 0.539,5 0.742,9.38 0.39,9.73 -0.59,0.59 -11.961,1.99 -16.488,2.03 -2.344,0 -2.383,0 -2.852,-4.72 -0.23,-2.62 -0.621,-7.97 -0.859,-11.96 -0.59,-10.58 -0.941,-12.15 -2.66,-12.15 -1.832,0 -1.871,2 -0.621,17.93 0.468,6.02 0.699,11.14 0.468,11.33 -0.859,0.86 -14.769,2.07 -15.238,1.33 -0.23,-0.39 -0.781,-6.48 -1.25,-13.56 -1.051,-15.74 -1.129,-16.25 -3.121,-16.25 -1.488,0 -1.519,0.28 -1.059,8.17 0.282,4.45 0.79,11.01 1.18,14.57 0.391,3.51 0.43,6.68 0.11,6.99 -0.86,0.86 -18.551,1.45 -19.801,0.67 -0.899,-0.55 -0.981,-8.01 -0.59,-48.09 0.391,-42.42 0.32,-47.459 -0.738,-47.85 -0.621,-0.281 -1.481,-0.281 -1.871,-0.039 -0.399,0.231 -0.668,20.27 -0.668,48.079 0,37.93 -0.192,47.74 -0.973,48.05 -1.059,0.39 -17.43,-0.15 -17.899,-0.62 -0.429,-0.43 -0.152,-14.89 0.399,-22.15 0.391,-5.43 0.312,-6.29 -0.828,-6.72 -0.699,-0.27 -1.563,-0.2 -1.91,0.16 -0.352,0.39 -0.86,6.79 -1.129,14.29 -0.282,7.46 -0.711,13.91 -0.942,14.26 -0.351,0.59 -10,0.16 -13.91,-0.62 -0.621,-0.12 -1.441,-0.24 -1.789,-0.28 -0.391,-0.04 -0.512,-3.08 -0.242,-7.07 0.281,-3.87 0.711,-10.51 0.98,-14.8 0.512,-7.58 0.512,-7.78 -1.089,-7.78 -0.981,0 -1.641,0.51 -1.641,1.21 0,2.66 -2.469,27.27 -2.738,27.58 -0.43,0.43 -16.95,-1.17 -17.461,-1.72 -0.231,-0.19 0.308,-6.05 1.172,-13 2.187,-17.31 2.109,-18.52 -0.782,-16.14 -0.82,0.67 -1.558,4.34 -2.5,12.7 -1.718,15.43 -1.84,15.94 -3.359,15.94 -0.699,0 -5,-0.71 -9.531,-1.53 -4.571,-0.82 -8.399,-1.52 -8.559,-1.52 -0.582,0 -0.109,-4.49 1.649,-15.47 2.339,-14.41 2.378,-15.62 0.429,-15.62 -1.801,0 -1.719,-0.24 -4.258,15.93 -1.14,7.31 -2.269,13.52 -2.543,13.83 -0.777,0.86 -15.347,-2.66 -15.777,-3.79 -0.473,-1.21 3.359,-20.47 7.109,-35.74 2.11,-8.63 2.461,-11.05 1.68,-11.521 -2.859,-1.758 -3.48,0.07 -9.422,28.861 -1.949,9.42 -3.789,17.35 -4.058,17.66 -0.551,0.59 -14.379,-3.05 -15.551,-4.06 -0.699,-0.63 0.859,-8.28 4.5,-22.07 1.48,-5.63 1.601,-6.72 0.66,-7.5 -0.59,-0.47 -1.488,-0.71 -2.027,-0.51 -0.864,0.35 -6.602,21.99 -6.602,24.92 0,0.63 -0.43,1.72 -0.98,2.46 -0.86,1.21 -1.328,1.17 -6.641,-0.58 -3.129,-1.06 -7.109,-2.27 -8.91,-2.7 -4.059,-1.05 -4.059,-1.29 -0.078,-14.41 3.828,-12.62 3.871,-13.25 1.41,-13.52 -1.832,-0.19 -1.992,0.16 -5.231,12.03 -1.878,6.72 -3.75,12.39 -4.179,12.54 -0.473,0.16 -4.071,-1.01 -8.012,-2.65 -5.238,-2.19 -7.309,-3.4 -7.461,-4.46 -0.199,-1.25 2.262,-8.28 6.793,-19.72 0.859,-2.15 0.828,-2.62 -0.109,-3.21 -0.633,-0.43 -1.532,-0.74 -1.992,-0.74 -0.79,0 -3.641,6.76 -7.469,17.81 -0.93,2.62 -2.102,4.65 -2.813,4.77 -1.679,0.35 -12.187,-3.99 -13.078,-5.39 -0.551,-0.86 0.391,-3.83 3.59,-11.29 2.379,-5.55 4.34,-10.472 4.34,-10.94 -0.039,-1.481 -2.578,-1.989 -3.52,-0.7 -0.468,0.66 -2.691,5.51 -4.922,10.78 -2.226,5.23 -4.488,9.69 -5,9.92 -0.898,0.31 -14.378,-4.65 -15.546,-5.78 -0.274,-0.23 1.796,-5.08 4.57,-10.7 8.359,-16.88 14.808,-30.751 20.59,-44.38 2.968,-7.109 7.187,-16.949 9.289,-21.871 3.129,-7.348 3.64,-9.141 2.777,-9.687 -2.348,-1.524 -3.437,-0.082 -7.808,10.308 -13.829,32.781 -18.481,43.281 -25.508,57.852 -4.301,8.868 -8.242,16.098 -8.793,16.098 -1.719,0 -15.469,-6.37 -15.43,-7.19 0,-0.43 2.539,-5.35 5.621,-10.94 3.129,-5.582 5.469,-10.468 5.281,-10.82 -0.242,-0.351 -1.171,-0.621 -2.113,-0.621 -1.449,0 -2.578,1.641 -6.879,9.922 -2.808,5.469 -5.66,10.117 -6.289,10.348 -1.211,0.471 -11.558,-4.368 -12.961,-6.047 -0.629,-0.75 0.66,-3.481 5.231,-11.184 3.281,-5.578 6.019,-10.539 6.019,-11.047 0,-0.859 -1.609,-1.84 -3.051,-1.84 -0.347,0 -1.988,2.457 -3.628,5.469 -6.18,11.328 -8.911,15.699 -9.77,15.738 -0.941,0 -12.148,-5.66 -13.711,-6.949 -0.777,-0.66 -0.66,-1.289 0.582,-3.199 0.859,-1.289 3.988,-6.41 7,-11.328 5.149,-8.594 5.348,-9.063 3.981,-10.082 -2.301,-1.68 -2.891,-1.289 -5.582,3.711 -5.43,10 -10.122,17.269 -11.141,17.269 -1.719,0 -15.5,-9.422 -15.5,-10.59 0,-0.582 3.242,-5.902 7.18,-11.832 3.992,-5.937 7.23,-11.25 7.23,-11.839 0,-0.59 -0.699,-1.481 -1.519,-1.989 -1.411,-0.859 -2,-0.242 -7.821,8.711 -3.469,5.348 -6.949,10.821 -7.769,12.188 -0.86,1.441 -1.879,2.301 -2.461,2.07 -1.559,-0.59 -12.309,-8.988 -12.309,-9.609 0,-1.102 17.231,-25.711 26.61,-38.008 l 1.601,-2.07 -2,-0.903 c -1.211,-0.551 -2.223,-0.621 -2.57,-0.187 -2.891,3.238 -11.84,15.578 -17.93,24.597 -10.551,15.59 -8.832,14.653 -16.172,8.719 -3.437,-2.738 -6.219,-5.316 -6.219,-5.707 0,-0.82 7.11,-10.23 13.598,-18.012 3.902,-4.679 4.024,-5 2.692,-5.968 -0.782,-0.59 -1.79,-0.942 -2.219,-0.782 -0.86,0.27 -5.903,6.289 -12.352,14.801 -2.34,3.051 -4.679,5.738 -5.187,5.942 -1.25,0.468 -14.731,-11.133 -14.731,-12.661 0,-0.621 3.789,-5.312 8.399,-10.429 l 8.359,-9.25 -1.949,-0.942 c -1.918,-0.859 -2.231,-0.629 -7.461,5.121 -3.008,3.321 -6.84,7.5 -8.559,9.329 l -3.09,3.359 -6.21,-5.508 -6.25,-5.512 4.769,-4.961 c 2.621,-2.726 6.563,-6.679 8.75,-8.75 4.301,-4.058 4.801,-5.347 2.582,-6.519 -1.172,-0.66 -2.66,0.551 -9.851,7.93 -4.68,4.769 -8.942,8.711 -9.532,8.711 -1.09,0 -11.047,-9.45 -11.047,-10.469 0,-0.313 3.321,-3.512 7.379,-7.153 4.059,-3.589 8.16,-7.378 9.141,-8.386 1.68,-1.84 1.719,-1.883 0.269,-3.641 l -1.441,-1.762 -8.867,8.289 c -4.883,4.571 -9.301,8.391 -9.844,8.551 -1.168,0.27 -11.527,-11.008 -11.207,-12.23 0.149,-0.457 1.68,-2.071 3.399,-3.547 1.75,-1.453 5.07,-4.383 7.378,-6.453 2.301,-2.11 6.911,-6.207 10.231,-9.098 3.32,-2.93 8.09,-7.223 10.59,-9.531 6.953,-6.399 24.301,-21.719 31.332,-27.649 6.211,-5.281 7.027,-6.679 4.609,-8.211 -0.98,-0.621 -1.961,-0.152 -4.648,2.192 -1.883,1.637 -6.922,6.047 -11.25,9.797 -8.403,7.269 -26.41,23.25 -33.282,29.57 -4.46,4.07 -14.46,12.973 -19.07,17 -1.519,1.289 -3.039,2.383 -3.43,2.34 -0.351,0 -1.492,-1.129 -2.539,-2.539 -1.062,-1.399 -3.402,-4.371 -5.203,-6.602 l -3.316,-4.097 4.058,-3.602 c 2.231,-1.988 6.532,-5.578 9.54,-7.961 5.539,-4.418 6.48,-6.058 4.371,-7.816 -0.942,-0.742 -1.411,-0.742 -2.461,0.199 -13.442,11.437 -17.93,15.039 -18.668,14.801 -1.332,-0.434 -8.793,-10.66 -8.793,-12.071 0,-0.82 3.75,-3.941 9.84,-8.242 5.429,-3.828 9.851,-7.109 9.851,-7.301 0,-0.859 -1.609,-3.289 -2.23,-3.289 -0.352,0 -5.121,3.25 -10.551,7.192 -5.43,3.988 -10.149,7.23 -10.469,7.23 -0.351,0 -2.34,-2.422 -4.41,-5.39 -2.109,-2.969 -4.2617,-6.02 -4.7695,-6.762 -0.8907,-1.207 0.039,-2.027 9.6485,-8.438 5.82,-3.902 10.633,-7.5 10.633,-7.972 0.039,-0.457 -0.473,-1.25 -1.063,-1.75 -1.359,-1.141 -2.07,-0.778 -13.199,6.953 -7.1914,4.957 -8.8281,5.816 -9.7695,5.039 -1.1289,-0.981 -9.1016,-12.852 -9.8008,-14.652 -0.1992,-0.59 4.0195,-3.52 11.0898,-7.661 9.3395,-5.5 11.4105,-7.027 11.2105,-8.277 -0.109,-0.82 -0.742,-1.641 -1.359,-1.762 -0.672,-0.109 -6.062,2.743 -11.9921,6.332 -5.9375,3.598 -11.2578,6.368 -11.8008,6.168 -0.8984,-0.347 -8.0469,-11.789 -8.0469,-12.89 0,-0.231 2.3086,-1.707 5.1172,-3.239 2.8125,-1.558 8.8711,-4.921 13.4727,-7.539 4.5781,-2.613 11.3279,-6.332 14.9689,-8.281 3.629,-1.988 6.75,-3.832 6.949,-4.101 0.191,-0.27 -0.078,-1.289 -0.59,-2.231 -0.898,-1.68 -1.09,-1.598 -15.2693,6.332 -7.9297,4.418 -16.2891,9.102 -18.5899,10.352 -2.2695,1.289 -4.8515,2.816 -5.6679,3.359 -0.8203,0.551 -1.8711,1.02 -2.3828,1.02 -0.9805,0 -7.8477,-12.071 -7.8477,-13.789 0,-0.59 5.2695,-3.672 12.1094,-7.071 6.6797,-3.32 12.1484,-6.293 12.1484,-6.64 0,-0.352 -0.3594,-1.289 -0.75,-2.032 -0.6992,-1.289 -1.789,-0.898 -13.2383,5 -11.4414,5.86 -12.582,6.289 -13.3203,5.039 -1.8398,-3.128 -7.582,-15.546 -7.582,-16.41 0,-0.508 2.4609,-2.027 5.5117,-3.316 15.3086,-6.723 17.6211,-7.813 17.5391,-8.563 -0.0391,-0.418 -0.1211,-1.281 -0.1992,-1.91 -0.0313,-0.621 -0.5391,-1.129 -1.0508,-1.129 -0.5078,0 -5.6992,2.219 -11.4805,4.961 -5.8281,2.688 -11.0977,4.918 -11.7578,4.879 -1.4922,0 -7.5,-14.14 -6.4492,-15.148 0.3476,-0.364 4.7695,-2.231 9.7695,-4.153 13.1602,-5.031 12.5391,-4.679 12.5391,-6.828 0,-1.211 -0.4297,-1.922 -1.211,-1.922 -0.6289,0 -5.9804,1.922 -11.8398,4.219 -5.8594,2.352 -11.0899,4.07 -11.6016,3.871 -1.3281,-0.508 -5.9375,-13.48 -5.0781,-14.301 0.3516,-0.386 5.5898,-2.296 11.6016,-4.328 9.2187,-3.05 10.9375,-3.871 11.1289,-5.281 0.1601,-0.969 -0.2305,-1.828 -0.9688,-2.098 -0.6719,-0.242 -5.7422,1.129 -11.332,3.039 -5.5508,1.918 -10.8203,3.52 -11.6797,3.52 -1.25,0 -1.9492,-1.25 -3.9492,-7.031 -1.2813,-3.867 -2.5313,-7.391 -2.7305,-7.891 -0.2305,-0.508 2.0703,-1.609 5.9414,-2.777 6.6367,-2.031 27.9297,-8.403 62.9688,-18.86 19.3285,-5.793 21.0075,-6.41 20.5785,-7.82 -0.231,-0.859 -0.661,-1.762 -0.93,-2.031 -0.551,-0.578 -5.551,0.898 -66.8399,19.531 -11.8789,3.598 -21.9493,6.598 -22.3399,6.68 -0.4297,0.039 -1.2187,-1.442 -1.7578,-3.321 -3.5195,-11.558 -3.9102,-13.242 -3.3203,-13.871 0.3906,-0.347 4.7187,-1.668 9.6797,-2.918 15.9804,-3.992 14.8476,-3.562 14.2578,-5.429 -0.2695,-0.942 -0.5391,-1.723 -0.6172,-1.801 -0.082,-0.121 -4.1406,0.859 -18.0898,4.41 -3.6328,0.938 -6.8008,1.527 -6.9922,1.289 -0.7383,-0.738 -3.75,-15 -3.2813,-15.469 0.3516,-0.351 10.9727,-2.812 23.1602,-5.351 1.2109,-0.231 1.7226,-0.899 1.7226,-2.231 0,-1.007 -0.2695,-1.871 -0.6211,-1.871 -0.8984,0 -14.1093,2.852 -19.7304,4.262 -2.6992,0.66 -5.1211,0.941 -5.4688,0.539 -0.9414,-0.891 -4.1015,-16.129 -3.4804,-16.711 0.2812,-0.277 6.0195,-1.406 12.8203,-2.5 11.9883,-1.918 12.3007,-2.039 12.3007,-3.828 0,-2.191 0.8594,-2.23 -14.7304,0.43 -6.0117,1.05 -11.0899,1.761 -11.25,1.558 -0.582,-0.59 -2.2617,-14.488 -1.7891,-15 0.4297,-0.468 9.7188,-1.758 20.1875,-2.808 3.8711,-0.391 4.5313,-0.668 4.5313,-1.961 0,-1.399 -0.4297,-1.52 -5.7813,-1.36 -3.1601,0.11 -8.668,0.661 -12.2578,1.211 -3.5625,0.578 -6.8398,0.86 -7.2305,0.578 -0.7812,-0.457 -2.85152,-15.82 -2.2304,-16.437 0.2812,-0.242 40.75,-3.992 44.3789,-4.102 0.6211,0 0.082,-3.789 -0.5508,-3.789 -0.4297,0 -7.8477,0.66 -16.5195,1.481 -24.4493,2.308 -27.3086,2.461 -27.69926,1.801 -0.1914,-0.352 -0.62109,-4.102 -0.89062,-8.364 l -0.55078,-7.699 3.28126,-0.461 c 1.8398,-0.238 7.582,-0.508 12.7695,-0.668 9.3008,-0.191 9.5,-0.23 9.7696,-1.949 L 34.4492,564.91 21.3281,565.219 8.16016,565.5 7.92969,555.461 c -0.16016,-7.77 0.03906,-10.082 0.78125,-10.121 0.55078,-0.039 5.89846,-0.121 11.94926,-0.192 10.789,-0.117 11.0195,-0.16 11.25,-1.839 l 0.2382,-1.719 -12.1093,0 c -9.3399,0 -12.18754,-0.231 -12.50004,-1.012 -0.19922,-0.547 -0.19922,-4.566 0.03906,-8.988 l 0.4336,-7.969 12.45708,0.348 c 11.9531,0.39 12.5,0.359 12.2304,-1.047 -0.2383,-1.172 -1.1797,-1.481 -5.5898,-1.91 -2.8906,-0.242 -7.7305,-0.512 -10.7383,-0.551 -8.08985,-0.16 -7.82032,0.117 -7.82032,-8.012 0,-3.828 0.32031,-7.301 0.75,-7.73 0.5,-0.508 4.32812,-0.43 11.55862,0.23 11.5195,1.063 12.6914,0.942 12.6914,-0.898 0,-1.641 -0.461,-1.723 -12.5,-2.653 -5.8203,-0.468 -10.8516,-1.097 -11.17189,-1.41 -0.5,-0.468 0.71089,-16.797 1.29299,-17.379 0.0781,-0.121 20.5898,2.34 45.5078,5.5 24.9219,3.129 45.6213,5.512 46.0193,5.282 0.973,-0.629 0.821,-2.621 -0.277,-2.969 -0.543,-0.203 -11.8712,-1.723 -25.2306,-3.402 -13.3633,-1.68 -32.2695,-4.098 -42.0312,-5.348 -9.7305,-1.25 -18.6407,-2.274 -19.6914,-2.274 -4.0586,-0.039 -4.1797,-0.5 -2.8086,-10.308 0.6601,-4.961 1.4804,-9.262 1.789,-9.57 0.3203,-0.309 5.1602,0.269 10.7813,1.289 12.8203,2.339 12.8906,2.339 12.8906,0.082 0,-1.993 -0.8203,-2.231 -15.543,-4.34 -6.8398,-0.973 -8.0898,-1.641 -7.6172,-3.981 0.1602,-0.898 0.6993,-4.422 1.211,-7.808 0.4687,-3.442 1.289,-6.371 1.7969,-6.571 0.4726,-0.191 5.6601,0.629 11.4804,1.84 5.8203,1.207 10.9805,2.028 11.5313,1.828 0.5,-0.187 0.9297,-1.007 0.9297,-1.789 0,-1.64 0.3906,-1.531 -12.8907,-3.992 -5.2304,-0.93 -9.7578,-1.949 -10.0703,-2.219 -0.5898,-0.468 2.5703,-16.25 3.3906,-17.07 0.2383,-0.199 5.2813,0.82 11.25,2.301 6.0196,1.449 11.3321,2.66 11.879,2.66 1.7226,0 1.1328,-3.051 -0.6993,-3.672 -0.9414,-0.359 -6.0586,-1.609 -11.3711,-2.777 -8.1679,-1.832 -9.6875,-2.379 -9.6875,-3.551 0,-1.559 4.3399,-16.602 4.961,-17.191 0.1992,-0.231 4.8789,0.863 10.3867,2.421 14.6914,4.098 15,4.098 15,1.84 0,-1.8 -0.5781,-2.07 -9.6797,-4.609 -5.3203,-1.449 -10.7891,-2.891 -12.1484,-3.172 -1.3321,-0.269 -2.461,-0.848 -2.461,-1.277 0,-1.801 4.8399,-15.043 5.461,-15.043 0.3906,0 10,3.082 21.3281,6.832 18.9922,6.289 20.7109,6.758 21.5625,5.551 1.8398,-2.5 3.9101,-1.524 -21.7109,-10 -10.1993,-3.403 -18.8321,-6.454 -19.2188,-6.801 -0.7812,-0.821 4.0977,-15.473 5.3086,-15.903 0.4297,-0.109 5.8203,1.883 11.9492,4.5 10.75,4.571 11.1719,4.68 12.2305,3.282 0.5898,-0.782 0.9414,-1.719 0.8203,-2.11 -0.1211,-0.351 -5.2695,-2.742 -11.4492,-5.281 -6.1719,-2.527 -11.4024,-5.027 -11.6016,-5.578 C 43.9102,347.879 48.75,335.969 50,335.5 c 0.5508,-0.238 5.8984,1.871 11.8398,4.609 5.9297,2.77 11.211,5.039 11.6797,5.039 0.7813,0 1.7891,-1.636 1.7891,-3.007 0,-0.672 -17.457,-8.871 -21.8281,-10.243 -2.3516,-0.738 -2.1914,-1.789 1.4414,-9.609 3.6679,-7.93 2.1484,-7.769 15.6992,-1.359 5.1601,2.461 9.9297,4.531 10.5508,4.648 0.6289,0.113 1.4062,-0.59 1.7969,-1.527 0.582,-1.602 0.1914,-1.949 -5.9805,-4.801 -11.3672,-5.281 -12.9688,-5.98 -13.7071,-5.98 -0.3906,0 -1.1328,-0.551 -1.6796,-1.168 -0.8204,-1.024 -0.4727,-2.274 2.3476,-7.973 1.832,-3.75 3.6719,-6.801 4.1016,-6.84 0.4297,0 5.6601,2.473 11.5976,5.512 9.1016,4.648 10.9414,5.347 11.5625,4.418 0.4297,-0.629 0.668,-1.489 0.5079,-1.879 -0.1172,-0.391 -4.7696,-3.012 -10.3086,-5.82 -5.5508,-2.809 -10.4297,-5.43 -10.8594,-5.86 -0.9024,-0.898 7.3789,-16.051 8.75,-16.051 0.4297,0 1.3203,0.469 1.9883,1.012 1.6406,1.41 14.3711,8.949 36.4809,21.57 10.242,5.848 23.789,13.59 30.121,17.219 6.328,3.629 11.879,6.41 12.308,6.129 2.422,-1.48 0.461,-3.348 -9.219,-8.898 -53.9097,-30.743 -69.6089,-40.082 -69.6089,-41.371 0,-1.25 8.2773,-15.391 9.0195,-15.391 0.2696,0 5.0782,3.09 10.6604,6.84 5.59,3.75 10.59,6.832 11.097,6.832 0.903,0 2.34,-2.852 1.723,-3.36 -0.16,-0.113 -4.891,-3.203 -10.512,-6.91 -5.6285,-3.672 -10.3473,-6.801 -10.5074,-6.922 -0.4727,-0.308 6.4882,-11.168 8.0894,-12.609 1.36,-1.289 1.829,-1.059 11.559,5.969 7.539,5.429 10.43,7.109 11.289,6.609 2.77,-1.758 2.582,-1.957 -11.719,-11.918 -3.832,-2.648 -6.761,-5.23 -6.718,-5.898 0.117,-1.684 8.628,-12.731 9.808,-12.731 0.5,0 2.961,1.641 5.391,3.629 10.699,8.828 14.801,11.602 15.898,10.699 0.582,-0.5 1.051,-1.281 1.051,-1.828 0,-0.511 -3.871,-3.871 -8.629,-7.5 -12.582,-9.609 -12.031,-8.32 -6.531,-15.16 2.582,-3.199 5.039,-5.781 5.512,-5.781 0.468,0 5.429,3.48 11.019,7.738 8.039,6.094 10.391,7.531 11.359,6.953 0.668,-0.429 1.329,-1.133 1.489,-1.562 0.121,-0.43 -4.297,-4.18 -9.84,-8.278 -5.551,-4.113 -10.277,-7.82 -10.551,-8.171 -0.547,-0.782 8.242,-11.872 9.371,-11.872 0.391,0 1.641,0.973 2.742,2.114 1.129,1.168 6.789,6.359 12.61,11.558 5.828,5.231 11.918,10.739 13.48,12.301 1.559,1.598 3.321,2.848 3.828,2.848 1.051,0 2.813,-1.438 2.813,-2.297 0,-0.231 -5.863,-5.781 -13.082,-12.313 -7.192,-6.48 -14.57,-13.199 -16.371,-14.879 l -3.321,-3.082 2.071,-2.457 c 4.883,-5.832 8.633,-9.691 9.301,-9.691 0.429,0 4.609,4.102 9.289,9.102 4.691,5.039 8.91,9.019 9.339,8.867 0.43,-0.117 1.133,-0.778 1.524,-1.449 0.629,-0.981 -0.973,-3.051 -7.891,-10.43 -4.761,-5.078 -8.793,-9.57 -8.941,-10.039 -0.32,-0.86 13.039,-14.262 14.18,-14.262 0.39,0 4.058,3.91 8.16,8.723 5.55,6.437 7.929,8.707 9.019,8.547 2.821,-0.387 1.571,-2.731 -5.859,-11.129 -4.102,-4.571 -7.418,-8.828 -7.418,-9.418 0,-1.133 10.937,-11.133 12.148,-11.133 0.391,0 3.828,3.832 7.66,8.519 3.821,4.68 7.34,8.633 7.809,8.75 0.473,0.114 1.441,-0.238 2.191,-0.789 1.168,-0.847 0.54,-1.828 -6.289,-9.918 -4.179,-4.921 -7.582,-9.25 -7.582,-9.613 0,-0.887 10.821,-9.84 11.911,-9.84 0.511,0 3.871,3.91 7.5,8.75 5.199,6.84 6.96,8.711 8.21,8.524 0.891,-0.121 1.598,-0.793 1.598,-1.532 0,-1.171 -4.258,-7.152 -10.859,-15.191 -1.367,-1.68 -2.379,-3.519 -2.27,-4.027 0.242,-1.09 12.66,-10.192 13.91,-10.192 0.43,0 2.661,2.649 5,5.86 2.301,3.242 10,13.898 17.071,23.711 12.34,17.109 16.371,22.847 25.781,36.597 5.469,7.973 6.519,9.102 8.129,8.481 2.691,-1.02 2.648,-1.098 -19.61,-32.457 -9.929,-14.032 -22.308,-31.102 -28.25,-39.032 -4.101,-5.468 -4.332,-6.011 -3.281,-7.261 0.512,-0.59 3.992,-3.168 7.781,-5.707 5.11,-3.473 7.11,-4.453 7.809,-3.864 0.551,0.461 3.633,4.922 6.871,9.883 3.289,5 6.141,9.098 6.41,9.098 0.27,0 1.129,-0.469 1.91,-1.051 1.329,-0.976 1.219,-1.328 -2.652,-7.387 -2.226,-3.511 -5.199,-7.851 -6.598,-9.679 -1.371,-1.84 -2.5,-3.641 -2.5,-3.992 0,-0.739 12.141,-8.9809 13.282,-8.9809 0.777,0 2.258,2.3398 9.258,14.5699 1.832,3.243 3.511,5.903 3.71,5.903 0.891,0 3.321,-1.653 3.321,-2.231 0,-0.351 -2.539,-4.883 -5.672,-10.0427 -3.117,-5.1602 -5.699,-9.8789 -5.699,-10.5078 0,-1.0899 12.148,-8.3594 13.941,-8.3203 0.469,0 3.207,4.6093 6.141,10.2382 4.449,8.6326 5.539,10.2306 6.988,10.2306 1.129,0 1.762,-0.469 1.762,-1.25 0,-0.6602 -2.391,-5.6602 -5.313,-11.0509 -2.929,-5.3867 -5.32,-10.1172 -5.32,-10.5078 0,-0.9414 16.57,-9.2187 17.422,-8.6719 0.75,0.4297 7.699,14.6797 9.179,18.8204 0.551,1.5312 1.45,2.9296 2,3.1328 1.168,0.4296 3.282,-0.2422 3.282,-1.0625 0,-0.3086 -2.422,-5.6172 -5.391,-11.8282 -6.172,-12.8906 -6.449,-11.289 2.848,-16.0625 6.64,-3.4296 7.261,-3.1992 9.761,3.25 0.942,2.461 4.77,11.3204 8.481,19.6797 4.769,10.8203 7.109,15.2419 8.09,15.4339 2.609,0.508 2.89,-1.012 0.929,-5.2737 -1.011,-2.2695 -3.82,-8.5195 -6.171,-13.9492 -2.379,-5.4297 -5.661,-12.7305 -7.297,-16.25 -1.641,-3.5079 -2.703,-6.6407 -2.391,-6.9493 0.938,-0.8984 21.258,-9.371 26.957,-11.25 2.813,-0.9414 5.512,-1.6015 5.942,-1.4414 0.429,0.1524 2.5,5.461 4.57,11.8321 3.512,10.7109 3.941,11.5312 5.66,11.5312 1.25,0 1.84,-0.4023 1.84,-1.332 0,-0.7109 -1.68,-6.2109 -3.789,-12.1914 -2.071,-5.9766 -3.641,-11.168 -3.403,-11.5195 0.582,-0.9376 15.391,-5.668 15.981,-5.1172 0.269,0.2695 1.75,5.039 3.32,10.6172 3.711,13.25 4.332,14.3398 6.789,12.7812 0.903,-0.5508 0.473,-2.6992 -2.5,-12.5781 -1.988,-6.5625 -3.437,-12.0703 -3.238,-12.2735 0.23,-0.1875 3.629,-1.3203 7.621,-2.5 5.27,-1.5195 7.457,-1.8672 7.93,-1.25 0.39,0.4727 1.75,5.2813 3.078,10.711 1.293,5.4297 2.582,10.6211 2.851,11.5625 0.321,1.207 1.02,1.7187 2.348,1.7187 1.801,0 1.871,-0.1601 1.402,-3.0898 -0.269,-1.6797 -1.519,-6.7891 -2.73,-11.3594 -3.359,-12.3125 -3.551,-11.6523 4.609,-13.5625 7.969,-1.8398 9.731,-1.9101 10.161,-0.6172 0.152,0.5 1.519,6.9102 3.039,14.2071 1.531,7.3124 3.91,18.75 5.351,25.4296 1.449,6.6797 4.461,20.8204 6.68,31.4926 3.711,17.769 4.18,19.328 5.672,19.57 2.297,0.348 2.187,-1.172 -0.942,-15.981 -1.441,-6.7886 -3.871,-18.3198 -5.351,-25.6206 -3.59,-17.461 -6.129,-29.3789 -8.75,-40.9375 -1.168,-5.2305 -1.879,-9.7305 -1.598,-10.043 0.82,-0.8594 15.738,-3.9101 16.949,-3.4375 0.739,0.3203 1.602,3.9883 2.852,12.3477 1.797,11.789 2.348,13.2421 4.848,12.2617 0.851,-0.3125 0.621,-2.6524 -1.141,-12.7305 -1.328,-7.6211 -1.828,-12.5391 -1.399,-12.8086 1.211,-0.7929 14.219,-2.5 15.391,-2.0703 0.699,0.2695 1.207,2.457 1.641,7.0977 1.636,18.832 1.328,17.3125 3.668,17.582 l 2.109,0.2383 -0.508,-4.0313 c -0.23,-2.2187 -0.781,-6.25 -1.172,-8.9765 -1.8,-12.5821 -1.8,-12.7735 0.192,-13.2422 0.98,-0.2383 5.039,-0.5078 8.988,-0.5899 l 7.231,-0.1914 0.152,3.043 c 0.117,1.6406 0.59,7.3906 1.058,12.6992 0.86,9.4883 0.899,9.6914 2.731,9.6914 2.027,0 2.027,0.3477 0.16,-18.1719 -0.391,-3.9414 -0.473,-7.4179 -0.16,-7.7304 0.348,-0.3203 4.019,-0.668 8.199,-0.7813 l 7.578,-0.2773 0.473,12.539 c 0.238,6.879 0.508,12.6211 0.551,12.7383 0.078,0.1524 0.898,0.1524 1.828,0 1.879,-0.2773 1.801,0.9727 1.289,-16.5273 l -0.231,-8.75 4.102,-0.4297 c 6.172,-0.6602 10.309,-0.7422 11.68,-0.2305 z m -3.282,64.918 c -5.386,2.6602 -6.558,6.0898 -6.519,19.1794 0,9.453 0.191,10.981 1.672,13.832 2.347,4.41 4.258,5.539 9.418,5.539 4.101,0 4.453,-0.148 6.91,-3.039 3.359,-3.949 4.769,-10.781 4.141,-20.3512 -0.579,-8.9102 -2.5,-13.129 -6.95,-15.2774 -3.98,-1.9531 -4.609,-1.9102 -8.672,0.1172 z m 7.422,3.5898 c 4.02,4.0313 6.059,12.7422 4.649,19.9606 -1.328,6.801 -3.278,10.903 -5.508,11.45 -3.32,0.82 -6.172,-0.508 -7.66,-3.547 -4.102,-8.684 -2.141,-26.5315 3.129,-28.4417 3.011,-1.1289 3.789,-1.0195 5.39,0.5781 z M 331.988,112.609 c -0.269,1.09 -0.148,2.379 0.282,2.891 14.449,18.469 16.75,22.539 15.39,27.191 -1.101,3.707 -2.39,4.598 -6.25,4.329 -3.051,-0.231 -3.398,-0.469 -4.73,-3.481 -1.129,-2.461 -1.879,-3.199 -3.239,-3.199 -2.23,0 -2.312,1.949 -0.32,5.941 1.758,3.438 4.219,4.649 9.301,4.649 3.316,0 4.137,-0.321 6.328,-2.5 5.512,-5.469 3.828,-13.442 -5.309,-25.282 -2.781,-3.589 -5.242,-6.988 -5.429,-7.57 -0.352,-0.859 0.968,-1.058 6.91,-1.058 7.187,0 7.348,-0.04 7.109,-1.68 -0.23,-1.68 -0.551,-1.719 -9.883,-1.949 l -9.648,-0.2 -0.512,1.918 z m 33.282,-0.199 c -5.192,2.66 -6.559,6.41 -6.641,18.051 -0.039,10.469 0.859,14.609 3.871,18.16 1.801,2.149 2.27,2.309 6.988,2.309 4.262,0 5.313,-0.282 6.684,-1.719 3.129,-3.32 4.379,-8.52 4.379,-18.359 0,-12.543 -1.531,-16.524 -7.391,-18.993 -3.551,-1.437 -4.058,-1.398 -7.89,0.551 z m 6.57,3.238 c 4.961,2.543 7.07,14.571 4.25,24.301 -1.75,5.981 -3.039,7.313 -6.68,7.031 -4.101,-0.269 -5.89,-2.769 -7.07,-9.8 -1.559,-9.141 0.98,-19.18 5.551,-21.801 1.718,-1.02 1.449,-1.02 3.949,0.269 z m 296.832,1.293 c -0.551,0.508 -0.942,1.411 -0.942,2 0,0.579 3.129,5.028 7,9.879 4.098,5.231 7.692,10.66 8.75,13.239 1.75,4.382 1.75,4.453 0.391,6.839 -2.851,4.84 -8.32,4.723 -10.82,-0.238 -1.723,-3.359 -4.571,-4.262 -4.571,-1.48 0,2.3 2.809,7.379 4.372,7.89 2.886,0.899 6.757,1.051 9.488,0.352 6.101,-1.602 7.738,-9.492 3.64,-17.543 -1.8,-3.52 -6.371,-10.078 -8.402,-11.949 -1.129,-1.059 -3.789,-4.852 -3.789,-5.391 0,-0.348 3.32,-0.75 7.383,-0.859 6.84,-0.2 7.418,-0.352 7.418,-1.719 0,-1.449 -0.578,-1.563 -9.488,-1.762 -6.762,-0.121 -9.762,0.082 -10.43,0.742 z m 30.777,1.289 c -4.019,2.579 -4.57,3.629 -4.84,9.18 -0.199,4.488 1.602,9.18 3.981,10.512 1.18,0.656 1.14,1.019 -0.738,3.707 -2.622,3.75 -2.774,8.199 -0.391,11.293 2.461,3.156 2.738,3.277 8.711,3.238 6.719,-0.039 9.098,-1.719 9.808,-6.988 0.469,-3.32 -1.289,-8.832 -2.82,-8.832 -1.25,0 -0.699,-2.031 0.942,-3.512 2.308,-2.039 3.668,-5.75 3.668,-9.808 0,-4.571 -1.442,-7.192 -5.11,-9.258 -4.34,-2.461 -8.871,-2.262 -13.211,0.468 z m 10.629,2.7 c 4.063,2.109 5.082,7.582 2.192,11.871 -2.11,3.168 -5.122,4.687 -7.739,4.027 -2.691,-0.668 -5.742,-4.887 -6.25,-8.598 -0.351,-2.73 -0.121,-3.32 2.27,-5.699 2.969,-2.972 5.929,-3.48 9.527,-1.601 z m 1.094,23.242 c 3.168,3.906 0.469,8.277 -5.121,8.277 -5.192,0 -7.852,-3.59 -5.66,-7.66 1.757,-3.277 8.281,-3.629 10.781,-0.617 z m 19.058,-27.383 c -2.378,0.973 -5.46,5 -6.558,8.59 -1.293,4.301 -1.25,19.812 0.078,23.519 0.551,1.602 1.988,3.903 3.199,5.114 1.84,1.918 2.742,2.226 6.063,2.226 7.539,0 10.148,-3.129 11.207,-13.437 0.82,-8.442 0.429,-15.473 -1.129,-19.723 -1.84,-5.117 -8.129,-8.207 -12.86,-6.289 z m 5.942,3.789 c 0.277,0.031 1.488,1.641 2.617,3.633 1.992,3.359 2.109,4.141 2.109,12.461 0,8.629 -0.039,8.937 -2.269,12.148 -1.828,2.539 -2.848,3.321 -4.801,3.508 -3.398,0.32 -5.156,-1.437 -6.68,-6.637 -3.398,-11.64 0.821,-27.152 6.911,-25.543 0.863,0.231 1.8,0.43 2.113,0.43 z M 527.27,166.512 c -0.2,0.16 -5.75,0.347 -12.43,0.429 -6.641,0.039 -15.86,0.59 -20.461,1.168 -4.578,0.551 -11.57,1.411 -15.508,1.84 -10.199,1.172 -34.031,6.172 -47.82,10.082 -21.75,6.09 -55.461,19.649 -75.852,30.469 -16.097,8.512 -37.269,21.398 -49.179,29.922 -21.571,15.43 -49.11,43.09 -74.54,74.918 -12.261,15.351 -20,28.012 -35.5,58.238 -9.89,19.262 -20.242,46.25 -26.492,69.031 -8.16,29.879 -13.668,75.313 -12.648,104.961 1.172,35.149 4.922,60.969 13.672,94.532 5.109,19.687 20.699,56.168 34.957,81.949 12.621,22.777 35.859,53.008 57.652,75.121 6.219,6.289 12.66,12.617 14.34,14.058 9.449,8.09 13.051,11.059 22.027,17.93 12.543,9.649 31.641,22.66 41.024,27.969 3.976,2.269 7.34,4.101 7.5,4.101 0.109,0 3.078,1.641 6.558,3.629 15.782,9.11 43.008,20.2 65.469,26.653 5.859,1.679 15.43,3.937 21.25,5 5.859,1.047 13.012,2.418 15.941,3.039 15.348,3.277 34.532,5.039 59.84,5.469 36.168,0.628 61.879,-1.95 96.051,-9.61 38.91,-8.711 66.649,-20.148 102.777,-42.379 9.332,-5.742 34.223,-22.66 36.481,-24.769 0.473,-0.434 4.18,-3.512 8.281,-6.871 21.41,-17.379 36.879,-33.172 56.141,-57.27 11.25,-14.062 30.347,-43.32 31.719,-48.59 0.269,-1.019 1.171,-2.972 1.992,-4.301 1.789,-2.89 0.429,-3.281 15.968,4.18 5.2,2.5 11.879,5.668 14.77,6.988 2.93,1.372 8.551,4.032 12.539,5.903 3.941,1.879 10.621,4.918 14.762,6.801 4.179,1.867 10.32,4.687 13.679,6.289 3.321,1.558 11.25,5.269 17.54,8.238 6.32,2.973 12.5,5.391 13.671,5.391 1.868,0 2.418,-0.551 4.258,-4.329 2.301,-4.812 2.571,-6.453 1.129,-7.582 -0.508,-0.429 -13.906,-7.39 -29.769,-15.429 -15.86,-8.051 -37.688,-19.18 -48.547,-24.692 -10.864,-5.547 -19.852,-10.508 -19.961,-11.09 -0.121,-0.546 1.91,-5.628 4.449,-11.25 15.781,-34.648 26.211,-81.136 28.789,-128.519 2.383,-43.09 -6.41,-102.149 -21.059,-141.481 -6.128,-16.488 -9.058,-23.289 -17.57,-40.589 -3.68,-7.5 -7.621,-15.7 -8.789,-18.2 -1.84,-4.097 -7.152,-13.211 -12.973,-22.418 -13.32,-20.902 -43.988,-55.429 -67.07,-75.511 -25.859,-22.5 -57.93,-42.391 -93.277,-57.821 -13.36,-5.781 -35.121,-13.859 -44.071,-16.32 -2.261,-0.629 -7.531,-2.148 -11.71,-3.398 -18.52,-5.629 -51.25,-10.551 -74.34,-11.211 -7.5,-0.2 -14.02,-0.508 -14.532,-0.668 -0.468,-0.153 -0.976,-0.153 -1.128,0 z m 40.269,6.136 c 18.789,2.18 34.262,5.231 46.441,9.063 33.719,10.551 41.059,13.16 61.25,21.91 32.071,13.828 62.54,32.891 87.309,54.609 11.871,10.391 35.859,34.731 46.801,47.461 10.582,12.309 29.371,41.137 36.012,55.2 1.718,3.629 4.726,9.879 6.757,13.871 6.09,12.097 13.551,29.957 18.551,44.328 6.879,19.851 15.281,56.68 17.07,74.851 0.43,4.289 1.098,10.387 1.45,13.508 0.39,3.16 0.941,10.86 1.211,17.153 0.269,6.289 0.55,11.91 0.589,12.5 0.348,3.32 -1.332,29.41 -2.582,40.078 -3.558,30.039 -8.476,52.109 -17.738,79.101 -5,14.731 -13.82,35.508 -15.039,35.508 -0.391,0 -6.051,-2.82 -12.57,-6.289 -6.531,-3.48 -18.52,-9.691 -26.641,-13.789 -8.129,-4.102 -18.558,-9.383 -23.129,-11.762 -10.82,-5.621 -46.832,-24.301 -61.441,-31.871 -6.289,-3.25 -19.93,-10.238 -30.36,-15.547 -10.429,-5.312 -24.101,-12.312 -30.351,-15.551 -6.25,-3.199 -20.231,-10.39 -31.09,-15.941 -48.949,-25.027 -45.551,-23.16 -45.348,-25.109 0.079,-0.981 0.508,-5.282 0.969,-9.532 1.84,-16.488 -2.07,-32.429 -11.211,-45.75 -9.801,-14.289 -23.668,-23.75 -42.148,-28.589 -22.922,-6.047 -49.641,1.679 -66.563,19.222 -6.758,6.989 -9.179,10.309 -12.808,17.379 -5.309,10.469 -6.801,17.07 -6.84,30.469 0,9.73 0.281,12.66 1.801,18.562 2.269,8.821 5.629,16.129 10.55,22.957 5.348,7.43 8.36,10.43 15.348,15.473 7.582,5.469 14.57,8.75 23.871,11.289 6.211,1.68 8.711,1.949 18.199,1.949 9.571,0 11.95,-0.269 18.161,-1.988 13.25,-3.711 21.679,-8.512 31.371,-17.891 5.589,-5.39 6.019,-5.66 7.968,-4.878 2.153,0.898 33.832,15.66 46.84,21.839 4.141,1.989 9.449,4.45 11.75,5.5 2.27,1.02 6.531,3.008 9.461,4.379 12.539,5.969 34.641,16.328 34.879,16.328 0.16,0 6.012,2.731 13.051,6.133 24.101,11.598 44.64,21.328 63.98,30.27 10.629,4.918 24.059,11.211 29.84,13.949 5.75,2.77 10.59,5 10.711,5 0.109,0 4.527,2.07 9.801,4.57 5.308,2.5 9.726,4.532 9.918,4.532 0.16,0 4.301,1.91 9.262,4.257 4.918,2.34 10.429,4.922 12.187,5.661 1.762,0.781 3.242,1.718 3.242,2.109 0,1.449 -11.562,20.781 -19.761,33.133 -12.54,18.816 -31.61,42.218 -43.559,53.386 -2.5,2.352 -7.262,6.84 -10.621,10.043 -8.051,7.618 -27.27,23.25 -35.199,28.598 -3.481,2.383 -8.789,6.051 -11.762,8.16 -8.32,5.981 -30.699,19.141 -43.359,25.551 -25.11,12.691 -48.239,20.578 -83.821,28.59 -6.41,1.449 -28.129,4.57 -40.429,5.781 -52.969,5.238 -111.879,-2.18 -160.711,-20.269 -13.321,-4.961 -34.719,-14.571 -44.84,-20.161 -3.438,-1.91 -8.047,-4.453 -10.239,-5.66 -10.429,-5.672 -42.96,-28.59 -52.5,-37.031 -1.48,-1.289 -5.621,-4.809 -9.25,-7.809 -9.421,-7.781 -26.101,-24.972 -35.941,-36.961 -20.269,-24.761 -35.59,-48.32 -48.32,-74.332 -11.879,-24.218 -20.59,-47.66 -26.059,-69.808 -3.16,-12.891 -4.488,-19.219 -7.531,-36.012 -3.008,-16.449 -4.848,-59.648 -3.328,-77 2.621,-29.058 6.57,-52.18 12.898,-75.469 3.75,-13.75 10.973,-34.25 15.891,-45.148 1.961,-4.383 4.57,-10.199 5.75,-12.891 2.851,-6.371 16.558,-32.191 21.25,-39.922 6.558,-10.859 11.359,-18.046 15.539,-23.168 2.269,-2.769 5.633,-6.992 7.5,-9.41 11.531,-14.808 37.5,-41.492 58.172,-59.648 3.629,-3.203 21.871,-16.211 28.711,-20.473 16.718,-10.39 39.957,-22.808 50.078,-26.679 3.75,-1.442 9.531,-3.79 12.89,-5.231 3.321,-1.449 11.52,-4.57 18.2,-7 6.679,-2.418 12.461,-4.641 12.89,-4.961 1.602,-1.207 26.371,-7.726 38.75,-10.226 17.309,-3.481 39.692,-6.332 52.66,-6.641 18.821,-0.473 39.758,0.348 55.309,2.187 z m -25.348,303.204 c 8.278,2.257 14.098,4.796 21.168,9.367 6.801,4.34 8.59,6.019 14.532,13.64 5.937,7.539 10.23,15.743 12.539,23.981 2.3,8.238 2.5,22.308 0.429,31.289 -4.609,19.961 -19.019,37.66 -37.379,45.98 -9.421,4.25 -15.589,5.539 -27.23,5.539 -15.738,0.082 -26.641,-3.16 -37.93,-11.207 -7.34,-5.23 -10.429,-8.242 -15.742,-15.269 -5.629,-7.5 -8.906,-14.492 -11.207,-23.91 -9.262,-37.934 16.25,-74.571 56.52,-81.211 6.129,-1.012 16.839,-0.231 24.3,1.801 z m 57.539,89.918 c 2.969,1.64 12.77,6.718 21.719,11.289 8.981,4.613 23.121,11.882 31.481,16.171 8.359,4.258 17.23,8.79 19.73,10 2.5,1.25 13.078,6.68 23.512,12.11 10.43,5.43 24.418,12.699 31.098,16.129 6.679,3.48 21.359,11.062 32.609,16.922 33.949,17.578 41.57,21.48 63.711,32.808 11.68,5.942 24.851,12.742 29.219,15.082 4.382,2.34 9.691,5.117 11.761,6.129 2.071,1.02 8.399,4.301 14.02,7.27 5.629,2.968 24.18,12.5 41.211,21.09 17.039,8.628 31.648,16.128 32.469,16.601 1.679,1.098 1.832,2.309 0.429,3.52 -0.82,0.621 -3.211,-0.2 -10.429,-3.602 -5.2,-2.461 -13.52,-6.359 -18.52,-8.668 -38.238,-17.652 -61.602,-28.59 -79.301,-37.152 -6.437,-3.117 -18.078,-8.629 -25.859,-12.219 -7.77,-3.559 -18.82,-8.711 -24.531,-11.449 -5.739,-2.731 -10.508,-4.961 -10.661,-4.961 -0.117,0 -4.57,-2.07 -9.847,-4.57 -5.313,-2.5 -9.762,-4.532 -9.879,-4.532 -0.152,0 -6.332,-2.929 -13.672,-6.449 -7.34,-3.551 -13.48,-6.437 -13.59,-6.437 -0.121,0 -4.851,-2.231 -10.512,-4.922 -5.628,-2.7 -15.308,-7.27 -21.488,-10.16 -6.211,-2.891 -14.332,-6.68 -18.082,-8.442 -3.789,-1.789 -14.027,-6.558 -22.777,-10.617 -8.75,-4.102 -22.852,-10.699 -31.321,-14.731 -8.519,-3.98 -15.55,-7.261 -15.671,-7.261 -0.149,0 -3.938,-1.758 -8.469,-3.91 -4.539,-2.149 -11.762,-5.508 -16.059,-7.539 l -7.769,-3.668 2.297,-3.59 c 1.25,-2 2.269,-3.832 2.269,-4.114 0,-1.476 3.902,-9.058 4.652,-9.058 0.469,0 3.282,1.332 6.25,2.93 z M 790.199,223.82 c -0.629,0.66 -1.097,1.52 -1.097,1.91 0,0.391 2.886,4.301 6.449,8.668 9.328,11.454 11.719,16.961 9.371,21.454 -1.211,2.296 -2.113,2.769 -5.274,2.808 -2.968,0 -4.648,-1.332 -5.937,-4.719 -0.859,-2.312 -3.59,-2.929 -4.332,-0.98 -0.629,1.598 2.812,7.379 5.031,8.508 4.77,2.429 12.309,0.242 14.11,-4.059 2.73,-6.519 0.351,-13.281 -8.442,-23.789 -2.699,-3.242 -4.918,-6.293 -4.918,-6.762 0,-0.539 2.461,-0.82 7.219,-0.82 6.68,0 7.191,-0.109 7.191,-1.519 0,-0.899 -0.511,-1.52 -1.332,-1.559 -11.437,-0.512 -17.066,-0.242 -18.039,0.859 z m 31.75,0.43 c -4.719,2.301 -5.148,3.828 -5.148,17.379 0,10.121 0.23,12.66 1.359,15.23 1.801,3.993 4.61,5.59 9.809,5.59 3.441,0 4.371,-0.308 5.742,-1.91 1.68,-1.918 2.269,-4.93 0.98,-4.93 -0.39,0 -1.171,-0.148 -1.722,-0.39 -0.59,-0.188 -1.367,0.359 -1.797,1.332 -0.781,1.84 -3.16,2.539 -6.051,1.801 -2.109,-0.551 -4.922,-5.942 -4.922,-9.493 0,-2.109 0.192,-2.418 1.321,-1.918 0.75,0.321 2.66,0.75 4.339,0.938 6.211,0.742 11.02,-4.488 11.02,-12.027 0,-9.813 -7.231,-15.43 -14.93,-11.602 z m 6.961,3.32 c 3.43,1.289 5.352,8.442 3.32,12.379 -1.41,2.77 -3.871,5.039 -5.429,5.039 -0.781,0 -2.621,-1.129 -4.031,-2.578 -2.301,-2.262 -2.571,-3.012 -2.571,-6.64 0,-4.411 1.321,-7.11 4.063,-8.2 2.148,-0.898 2.34,-0.898 4.648,0 z m 20.699,-3.359 c -3.398,1.828 -5.269,7.027 -5.699,15.898 -0.39,7.77 0.43,13.75 2.539,17.93 1.871,3.711 3.16,4.41 7.891,4.41 3.859,0 4.719,-0.269 6.32,-1.988 3.828,-4.141 5.942,-16.641 4.262,-25.473 -1.094,-5.816 -3.121,-9.527 -6.051,-11.019 -2.5,-1.25 -6.723,-1.168 -9.262,0.242 z m 9.141,4.41 c 0.59,0.59 1.719,3.75 2.5,7.027 1.289,5.473 1.328,6.372 0.27,11.84 -1.719,9.184 -3.122,11.172 -7.969,11.172 -3.16,0 -4.84,-2.691 -5.973,-9.719 -1.527,-9.421 0.473,-19.929 4.102,-21.453 1.91,-0.816 5.742,-0.199 7.109,1.133 l -0.039,0 z m -644.648,-1.172 c -4.961,2.66 -5.704,5 -5.704,18.321 0,10.039 0.231,12.109 1.442,14.378 2.351,4.25 4.109,5.274 9.262,5.313 5.16,0.039 6.757,-1.133 9.097,-6.602 1.68,-3.91 2.27,-16.8 1.102,-22.578 -1.289,-6.062 -5.199,-10.242 -9.61,-10.242 -1.64,0 -4.14,0.633 -5.589,1.41 z m 8.359,3.789 c 3.867,3.871 5.269,12.422 3.398,20.821 -1.718,7.73 -3.32,9.769 -7.461,9.492 -2.929,-0.231 -3.277,-0.512 -4.957,-3.903 -1.562,-3.128 -1.839,-4.808 -1.882,-11.757 -0.039,-7.27 0.121,-8.442 1.8,-11.493 1.68,-2.957 4.371,-5.269 6.289,-5.308 0.352,0 1.602,0.941 2.813,2.148 z m -28.32,-3.949 c -0.27,0.281 -0.512,2.699 -0.512,5.32 l 0,4.801 -5.699,0 c -5.43,0 -5.782,0.121 -6.602,1.988 -0.777,1.641 -0.668,2.391 0.473,4.34 0.777,1.332 3.629,6.453 6.359,11.41 2.738,4.922 5.43,9.141 6.02,9.372 2.031,0.781 2.808,-1.29 2.929,-7.579 0.039,-3.429 0.161,-8.363 0.192,-10.929 l 0.121,-4.692 2.457,-0.242 c 1.883,-0.187 2.543,-0.656 2.699,-1.949 0.231,-1.481 -0.078,-1.719 -2.418,-1.719 l -2.66,0 -0.23,-5.121 c -0.161,-3.859 -0.508,-5.148 -1.411,-5.309 -0.629,-0.121 -1.41,0 -1.718,0.309 z m -0.661,20.75 c 0.231,8.402 -0.082,8.359 -4.89,-0.59 -3.281,-6.129 -3.039,-6.91 1.879,-6.719 l 2.769,0.122 0.242,7.187 z m -91.058,124.41 c -5.0822,2.742 -6.7228,8.52 -5.8634,20.473 0.8633,12.109 2.8516,15.59 9.6914,17.066 3.281,0.703 7.73,-0.16 7.73,-1.476 0,-0.551 0.508,-1.223 1.18,-1.453 1.602,-0.618 1.09,-3.789 -0.672,-4.137 -0.738,-0.16 -2.187,0.617 -3.16,1.68 -1.797,1.91 -4.488,2.539 -6.098,1.41 -1.75,-1.223 -4.058,-5.321 -4.57,-8.09 -0.539,-2.852 -0.5,-2.934 1.25,-2.313 3.602,1.25 9.5,0.832 11.328,-0.781 4.301,-3.816 5.711,-11.789 3.051,-17.566 -2.539,-5.672 -8.519,-7.742 -13.867,-4.813 z m 8.867,4.84 c 3.551,3.52 3.199,10.43 -0.699,14.109 -1.488,1.403 -2.352,1.602 -4.539,1.211 -4.492,-0.859 -6.8322,-6.57 -5,-12.109 1.648,-5.039 6.801,-6.641 10.238,-3.211 z m 19.57,-5.187 c -3.281,1.437 -4.808,4.058 -5.98,10.078 -1.328,6.789 -1.289,12.07 0.16,18.359 0.981,4.289 1.68,5.621 3.91,7.609 2.5,2.192 3.039,2.352 6.481,1.961 6.84,-0.82 9.101,-3.359 10.941,-12.347 1.051,-5.114 1.09,-6.91 0.309,-12.422 -1.211,-8.199 -2.578,-11.051 -6.211,-12.93 -3.36,-1.719 -6.129,-1.801 -9.61,-0.308 z m 7.34,3.707 c 5.86,3.05 6.961,19.769 1.84,27.89 -1.449,2.313 -2.269,2.891 -4.141,2.891 -3.519,0 -4.957,-1.168 -6.488,-5.121 -1.012,-2.61 -1.398,-5.578 -1.359,-10.821 0,-8.75 1.168,-12.5 4.41,-14.488 2.848,-1.719 3.008,-1.762 5.738,-0.351 z m 750.551,4.613 c -1.172,1.797 -1.051,2.027 3.98,8.359 5.75,7.149 12.43,17.539 12.43,19.297 0,0.66 -0.672,2.262 -1.531,3.633 -1.289,2.148 -1.867,2.461 -4.719,2.461 -4.031,-0.043 -4.648,-0.434 -6.18,-4.063 -2.07,-5 -5.5,-2.347 -3.55,2.77 1.718,4.57 10.351,6.68 15.269,3.793 2.231,-1.332 4.5,-5.742 4.5,-8.871 0,-2.852 -4.179,-10.231 -9.847,-17.461 -2.891,-3.668 -5.122,-7.031 -4.883,-7.379 0.23,-0.352 3.48,-0.672 7.23,-0.672 6.563,0 6.832,-0.027 6.602,-1.641 -0.242,-1.519 -0.711,-1.636 -9.141,-1.828 -8.75,-0.242 -8.988,-0.199 -10.16,1.602 z m 60,0.269 c -3.629,2.231 -4.922,4.887 -5.82,12.27 -1.168,9.57 0.121,18.398 3.32,22.258 2.191,2.66 2.422,2.742 7.34,2.742 4.73,0 5.238,-0.16 7.109,-2.313 4.461,-5.109 5.711,-21.949 2.192,-29.918 -2.621,-5.859 -9.02,-8.16 -14.141,-5.039 z m 8.949,3.75 c 3.43,2.969 4.84,15.348 2.61,22.969 -1.598,5.352 -3.278,6.918 -7.071,6.602 -3.75,-0.313 -6.047,-3.551 -6.789,-9.453 -1.84,-14.84 4.41,-26.02 11.25,-20.118 z m -29.027,1.289 c 0,3.399 -0.313,4.918 -0.942,4.961 -12.261,0.629 -10.968,0.387 -11.949,2.231 -0.66,1.207 0,2.887 3.91,9.648 2.579,4.489 5.508,9.649 6.52,11.399 1.019,1.761 2.23,3.211 2.699,3.211 2.418,-0.039 2.77,-1.289 2.969,-11.758 l 0.191,-10.594 2.539,-0.269 c 2.692,-0.231 4.063,-2.11 2.34,-3.2 -0.578,-0.39 -1.64,-0.507 -2.301,-0.32 -1.949,0.633 -3.128,-1.519 -2.66,-4.918 0.512,-3.793 0,-5.351 -1.867,-5.351 -1.293,0 -1.449,0.628 -1.449,4.96 z m -0.152,15.348 c 0.109,3.871 -0.079,6.25 -0.551,6.25 -1.059,0 -7.699,-11.437 -7.149,-12.297 0.2,-0.351 1.989,-0.551 3.95,-0.429 l 3.511,0.226 0.239,6.25 z m -16.801,160.121 c -0.699,0.742 -1.25,1.602 -1.25,1.91 0,0.282 3.203,4.539 7.109,9.422 7.774,9.731 10.82,15.508 10,18.938 -0.816,3.25 -2.617,4.73 -5.699,4.73 -3.008,0 -5.508,-1.949 -6.449,-5.121 -0.59,-1.906 -3.239,-2.34 -3.91,-0.617 -0.622,1.598 1.878,6.437 4.031,7.809 2.609,1.718 10.469,1.558 12.539,-0.27 1.949,-1.762 3.629,-5.629 3.629,-8.398 0,-3.524 -4.098,-11.024 -9.809,-18.012 -2.961,-3.629 -5.191,-6.91 -4.961,-7.301 0.242,-0.391 3.672,-0.711 7.66,-0.711 7.032,0 7.192,-0.039 6.95,-1.68 -0.231,-1.679 -0.539,-1.707 -9.411,-1.91 -8.046,-0.16 -9.339,0 -10.429,1.211 z m 27.34,0.352 c -1.129,1.758 -0.969,2.07 6.293,11.168 7.457,9.34 11.058,16.019 10.117,18.75 -2.149,6.101 -9.528,6.41 -11.949,0.551 -0.79,-1.801 -1.61,-2.622 -2.661,-2.622 -2.968,0 -1.558,5.942 2.11,8.911 1.801,1.48 10.781,1.211 12.73,-0.387 6.141,-5 4.071,-13.953 -6.129,-26.371 -2.73,-3.321 -4.961,-6.481 -4.961,-6.992 0,-0.7 1.95,-0.981 7.27,-0.981 7.07,0 7.223,-0.039 6.992,-1.68 -0.242,-1.636 -0.551,-1.707 -9.422,-1.91 -8.937,-0.226 -9.219,-0.199 -10.39,1.563 z m 35.589,-0.942 c -2.929,0.86 -6.328,4.18 -7.308,7.192 -1.289,3.91 -1.949,13.988 -1.289,19.258 0.711,5.472 2.109,8.671 4.969,11.332 1.64,1.519 2.5,1.757 6.128,1.48 3.082,-0.23 4.801,-0.82 6.372,-2.152 5.46,-4.758 6.64,-24.528 1.871,-32.418 -2.27,-3.789 -6.95,-5.821 -10.743,-4.692 z m 4.692,4.18 c 3.551,2.5 5.039,6.883 5.07,15.121 0.039,10.899 -2.531,16.289 -7.691,16.289 -4.957,0 -7.379,-5.039 -7.418,-15.551 -0.039,-8.429 1.359,-12.929 4.801,-15.148 3.32,-2.191 3.168,-2.191 5.238,-0.711 z m -905.7111,-2.07 c -2.8086,1.801 -3.6289,2.859 -3.9375,4.812 -1.1719,7.77 -1.1719,8.008 1.0078,11.481 1.211,1.84 2.6211,3.519 3.211,3.707 0.6992,0.242 0.3086,1.14 -1.4102,3.09 -2.3008,2.66 -2.5781,4.101 -1.8398,9.8 0.039,0.321 0.9414,1.411 2,2.469 1.6406,1.602 2.6914,1.953 6.6406,2.07 6.9101,0.153 7.5781,0 9.4492,-2.187 2.3789,-2.742 2.3789,-8.992 0.0781,-11.949 -1.0976,-1.41 -1.4062,-2.434 -0.9765,-3.051 2.9687,-4.02 3.707,-5.633 4.1367,-9.02 1.0625,-8.05 -2.6094,-12.66 -10.5078,-13.211 -3.75,-0.23 -4.7617,0 -7.8516,1.989 z m 11.6797,3.133 c 2.8516,2.226 3.9531,5.468 2.9297,8.507 -1.9102,5.629 -6.1289,8.25 -10,6.25 -6.25,-3.199 -6.9883,-13.16 -1.168,-15.5 2.8086,-1.14 6.2891,-0.82 8.2383,0.743 z m -1.4375,21.207 c 3.75,1.41 3.9805,7.703 0.3477,9.101 -2.3399,0.86 -7.1094,0.512 -8.5196,-0.699 -1.3984,-1.133 -1.5195,-5.313 -0.2304,-6.992 1.6796,-2.071 5.121,-2.66 8.4023,-1.41 z m 19.9179,-24.77 c -3.9882,2.27 -5.5898,5.711 -6.4101,13.832 -0.6992,6.84 -0.3906,10.738 1.3711,16.957 0.9414,3.434 3.949,6.871 6.051,6.992 2.269,0.121 6.527,0.121 7.82,0.039 2.301,-0.16 5.348,-5.199 6.399,-10.589 2.539,-13.239 -0.071,-24.489 -6.559,-27.809 -3.012,-1.563 -5.16,-1.41 -8.672,0.578 z m 7.191,3.051 c 0.622,0.512 1.989,2.269 3.04,3.949 1.64,2.731 1.839,3.82 1.839,11.012 -0.039,9.058 -1.8,14.461 -5.199,16.019 -4.41,1.989 -7.89,-1.492 -9.609,-9.648 -2.5002,-12.031 3.988,-26.024 9.929,-21.332 z m 734.879,182.969 c -0.738,1.64 -0.629,2.152 0.743,3.671 0.937,0.942 1.679,2.11 1.679,2.54 0,0.429 1.289,2.269 2.848,4.101 10.633,12.309 12.66,17.848 8.32,22.5 -2.109,2.27 -5.429,2.231 -7.808,-0.152 -1.02,-1.02 -1.871,-2.348 -1.871,-2.891 0,-1.488 -1.532,-2.777 -2.739,-2.308 -1.371,0.511 -1.332,2.421 0.16,5.98 1.68,4.02 3.039,4.801 8.118,4.84 5.043,0.039 7.5,-1.25 9.261,-4.731 2.93,-5.89 0.43,-13.078 -8.281,-23.859 -2.738,-3.398 -5,-6.559 -5,-6.961 0,-0.461 2.93,-0.848 7.031,-1.008 6.45,-0.203 6.989,-0.312 6.989,-1.722 0,-1.411 -0.539,-1.52 -9.289,-1.719 l -9.301,-0.231 -0.86,1.95 z m 33.981,-1.129 c -5.699,1.761 -7.692,6.761 -7.692,19.332 0,10.429 1.293,15 5.043,18.207 4.098,3.39 11.789,2.031 14.528,-2.578 1.832,-3.129 3.051,-13.051 2.461,-20.161 -0.59,-6.871 -2.461,-11.871 -5.078,-13.55 -2.34,-1.532 -6.563,-2.11 -9.262,-1.25 z m 6.18,4.961 c 2.57,1.8 3.781,4.8 4.332,10.621 1.289,13.437 -3.672,22.816 -10.192,19.297 -2.66,-1.411 -4.219,-7.27 -4.14,-15.547 0.07,-8.59 1.359,-13.16 4.179,-14.571 2.422,-1.25 3.781,-1.211 5.821,0.2 z m 21.05,-4.813 c -4.3,1.613 -5.898,4.57 -7.23,13.32 -1.559,10.282 0.941,21.614 5.469,24.774 0.98,0.656 3.242,1.207 5.312,1.207 2.93,0 4.07,-0.43 6.219,-2.34 3.16,-2.777 4.058,-5.199 4.922,-13.641 0.968,-9.878 -1.41,-19.679 -5.434,-22.257 -2.418,-1.563 -6.637,-2.032 -9.258,-1.063 z m 5.981,4.383 c 2.34,0.859 3.828,4.219 4.879,10.898 1.289,8.282 -1.68,18.942 -5.508,19.879 -4.453,1.133 -6.871,-1.476 -8.512,-9.218 -2.148,-10.122 1.289,-22.301 6.289,-22.301 0.5,0 1.789,0.312 2.852,0.742 z m -755.473,-3.633 c -6.098,2.141 -7.578,5.891 -7.578,19.184 0,10.699 0.738,14.097 3.949,17.847 1.75,2.11 2.262,2.262 7.071,2.262 4.839,0 5.269,-0.152 7.101,-2.301 3.008,-3.558 3.867,-7.699 3.867,-18.172 0,-11.359 -1.367,-15.269 -6.367,-18.078 -3.199,-1.8 -4.601,-1.922 -8.043,-0.742 z m 6.094,4.211 c 5.238,3.75 6.637,18.871 2.578,27.27 -2.578,5.312 -8.199,5.39 -10.66,0.203 -2.309,-4.813 -2.82,-12.621 -1.328,-20.242 1.09,-5.622 6.207,-9.532 9.41,-7.231 z m 21.168,-4.059 c -4.641,2.032 -6.641,6.168 -7.57,15.711 -0.551,5.457 0.699,14.918 2.46,18.348 2.301,4.5 3.282,5.082 8.43,5.082 5.668,0 7.27,-0.699 8.949,-3.941 1.871,-3.641 2.192,-6.168 2.192,-17.309 -0.082,-11.949 -0.781,-14.019 -5.942,-17.031 -3.711,-2.149 -5.16,-2.301 -8.519,-0.86 z m 7.582,5.391 c 3.168,3.438 4.457,13.641 2.777,22.27 -1.019,5.23 -2.969,7.3 -6.961,7.3 -3.078,0 -3.437,-0.191 -4.687,-2.691 -1.949,-4.059 -3.039,-11.102 -2.461,-16.25 0.512,-4.73 2.82,-10.898 4.422,-11.922 1.91,-1.207 5.148,-0.578 6.91,1.293 z m -58.012,-4.41 c 0,0.348 -0.07,6.91 -0.148,14.648 -0.203,14.879 -0.16,14.762 -3.711,13.321 -0.86,-0.352 -1.571,-0.039 -2.11,1.011 -0.711,1.329 -0.351,2.028 2.539,5.039 3.469,3.668 5.969,4.141 6.68,1.29 0.149,-0.739 0.27,-8.981 0.27,-18.399 l -0.039,-17.07 -1.719,-0.231 c -0.942,-0.121 -1.723,0.039 -1.723,0.391 l -0.039,0 z m 639.461,107.93 c -3.441,0.621 -7.422,3.437 -8.359,5.859 -1.801,4.801 -0.313,12.77 2.968,15.66 l 1.598,1.449 -2.187,2.731 c -2.969,3.75 -3.012,8.012 -0.161,11.371 2.04,2.34 2.192,2.379 8.559,2.379 5.781,0 6.641,-0.149 8.121,-1.762 2.352,-2.5 2.391,-9.879 0,-12.379 -1.48,-1.597 -1.519,-1.871 -0.461,-3.09 2.461,-2.808 3.629,-6.281 3.629,-10.738 0,-5.742 -0.937,-7.851 -4.457,-9.762 -3.512,-1.918 -5.851,-2.39 -9.25,-1.718 z m 6.008,5 c 2.891,1.437 3.91,3.16 3.91,6.558 0,2.582 -2.269,7.11 -4.379,8.75 -4.84,3.789 -12.379,-4.758 -10.07,-11.437 1.64,-4.692 5.82,-6.223 10.539,-3.871 z m 1.601,23.05 c 1.141,2.098 0.981,5.778 -0.308,6.829 -1.762,1.449 -8.871,1.171 -10.043,-0.43 -1.359,-1.828 -1.25,-4.84 0.281,-6.481 1.789,-2.031 8.981,-2 10.07,0.082 z m 17.43,-26.531 c -4.609,2.461 -5.629,5.942 -5.629,19.34 0,12.262 0.629,14.84 4.34,17.422 2.578,1.84 11.25,1.637 12.891,-0.274 4.609,-5.386 6.25,-16.207 4.058,-26.41 -2.148,-10.078 -8.242,-13.976 -15.66,-10.078 z m 7.692,4.031 c 2.148,1.399 2.808,2.571 3.867,6.637 1.562,6.051 1.64,9.723 0.351,15.313 -1.519,6.371 -2.929,8.16 -6.441,8.16 -5.551,0 -7.738,-4.41 -7.738,-15.66 0,-7.813 1.328,-12.27 4.41,-14.692 2.39,-1.871 2.429,-1.871 5.551,0.242 z m -56.481,-3.441 c -0.199,0.738 -0.281,7.301 -0.16,14.609 0.117,7.301 0.078,13.672 -0.121,14.18 -0.231,0.66 -0.781,0.699 -2.18,0.039 -1.488,-0.668 -2.109,-0.59 -3.129,0.434 -1.172,1.207 -1.051,1.476 2.071,4.289 3.437,3.129 4.257,3.48 5.82,2.461 1.019,-0.66 1.719,-34.883 0.738,-36.442 -0.82,-1.332 -2.609,-1.101 -3.039,0.43 z m -495.199,11.91 c -0.543,1.289 -0.582,2.192 -0.082,2.852 13.91,17.738 17.351,23.09 16.609,26.058 -0.75,2.891 -3.168,4.879 -5.98,4.879 -3.278,0 -5.547,-1.679 -6.09,-4.527 -0.359,-1.641 -0.899,-2.313 -2.039,-2.313 -2.141,0 -2.649,1.84 -1.52,5.321 1.09,3.281 3.008,4.449 8.399,5.082 6.519,0.777 11.332,-3.211 11.332,-9.383 0,-3.52 -2.742,-9.609 -5.903,-13.199 -3.988,-4.532 -8.519,-10.86 -8.519,-11.879 0,-0.699 1.801,-0.973 6.84,-0.973 6.761,0 6.832,0 6.832,-1.879 l 0,-1.91 -9.531,0 c -9.329,0 -9.489,0.039 -10.348,1.871 z m 33.558,-0.512 c -1.64,0.821 -3.402,2.622 -4.57,4.731 -1.801,3.199 -1.922,4.062 -1.922,14.019 0,11.454 0.672,13.872 4.692,17.622 1.84,1.718 6.679,2.308 10.55,1.289 4.84,-1.289 8.04,-13.52 6.481,-24.528 -1.051,-7.383 -2.461,-10.312 -6.133,-12.769 -3.008,-2.043 -5.508,-2.114 -9.098,-0.364 z m 7.54,4.614 c 3.82,3.789 5.23,12.269 3.511,20.508 -1.48,6.949 -3.402,9.339 -7.23,9.019 -2.031,-0.148 -3.082,-0.82 -4.332,-2.73 -4.489,-6.637 -2.5,-26.02 2.89,-28.161 2.621,-1.058 2.813,-0.976 5.161,1.364 z m -57.149,-3.942 c -0.281,0.27 -0.473,6.989 -0.473,14.879 0,13.403 -0.117,14.34 -1.328,13.832 -5.039,-2.07 -5.468,0.039 -1.019,4.84 2.578,2.82 3.168,3.129 4.539,2.391 1.519,-0.821 1.601,-1.371 1.601,-18.641 0,-16.762 -0.082,-17.812 -1.41,-17.812 -0.781,0 -1.601,0.23 -1.91,0.511 z m 213.43,75.969 c -6.09,2.781 -7.961,7.699 -7.922,21.02 0.031,10.589 0.891,13.793 4.601,17.031 2.469,2.191 3.051,2.351 7.071,2.07 4.769,-0.308 6.57,-1.48 8.558,-5.469 3.121,-6.171 2.969,-23.043 -0.23,-29.332 -2.231,-4.339 -8.328,-7.031 -12.078,-5.32 z m 6.41,5.16 c 3.711,3.672 5.551,12.77 4.219,20.629 -1.45,8.594 -4.731,12.031 -9.809,10.313 -3.512,-1.211 -4.961,-5.551 -4.961,-15.082 0,-9.918 1.02,-13.547 4.418,-15.618 2.891,-1.761 4.531,-1.839 6.133,-0.242 z m -57.231,11.332 c 0,17.028 0.239,16.129 -3.941,14.41 -0.859,-0.39 -1.41,-0.043 -1.758,1.098 -0.39,1.289 0.117,2.18 2.379,4.223 1.641,1.437 3.602,2.5 4.461,2.418 1.328,-0.16 1.559,-0.899 1.867,-6.25 0.242,-3.36 0.391,-11.719 0.391,-18.602 0,-12.379 0,-12.5 -1.719,-12.769 l -1.68,-0.231 0,15.703 z m 28.68,-10.082 -0.238,5.512 -5.781,0.187 c -5.192,0.204 -5.86,0.391 -6.719,2.043 -0.902,1.668 -0.473,2.731 5.738,13.278 6.102,10.39 6.918,11.441 8.641,11.25 l 1.91,-0.239 0.199,-11.128 0.231,-11.133 2.418,-0.239 c 1.839,-0.191 2.5,-0.66 2.703,-1.91 0.187,-1.371 -0.203,-1.679 -2.274,-1.879 l -2.539,-0.23 -0.187,-5.512 c -0.242,-5.269 -0.313,-5.508 -2.071,-5.508 -1.761,0 -1.839,0.239 -2.031,5.508 z m 0.11,17.071 0,7.378 -1.52,-2.257 c -2.07,-3.012 -6.051,-10.743 -6.051,-11.762 0,-0.43 1.711,-0.777 3.781,-0.777 l 3.829,0 -0.039,7.418 z m 216.609,-21.641 c -6.41,2.191 -8.359,7.109 -8.359,21.062 0.031,8.469 0.269,10.7 1.402,12.809 2.457,4.531 4.808,6.172 9.027,6.172 4.879,0 7.77,-1.801 9.879,-6.063 1.481,-3.039 1.684,-4.597 1.684,-13.668 0,-9.41 -0.16,-10.582 -1.883,-14.019 -2.649,-5.274 -7.379,-7.813 -11.75,-6.293 z m 6.09,5.633 c 5.152,5.578 5.781,20.578 1.133,28.117 -1.293,2.109 -1.954,2.461 -4.372,2.461 -3.64,0 -4.46,-0.551 -5.82,-3.871 -3.91,-9.328 -2.39,-24.098 2.852,-27.258 3.16,-1.922 3.976,-1.84 6.207,0.551 z m -37.348,-3.481 c -4.922,3.481 -6.133,9.489 -4.68,23.707 1.09,10.703 3.789,14.184 11.047,14.184 3.602,0 4.422,-0.313 6.41,-2.313 1.25,-1.25 2.153,-2.687 1.954,-3.199 -0.43,-1.398 -4.332,-1.719 -4.332,-0.308 0,2.257 -5.942,2.808 -8.051,0.699 -1.758,-1.789 -3.36,-5.781 -3.36,-8.551 0,-2.27 0.039,-2.309 1.871,-1.102 2.309,1.493 6.329,1.922 8.399,0.864 2.82,-1.403 5.551,-5.192 6.449,-8.903 1.563,-6.597 -0.629,-12.929 -5.508,-15.898 -3.398,-2.07 -6.441,-1.84 -10.199,0.82 z m 8.758,3.399 c 4.762,3.98 4.211,13.281 -0.981,16.679 -1.679,1.09 -2.027,1.09 -4.136,0 -3.012,-1.57 -4.653,-4.769 -4.653,-9.179 0,-3.129 0.391,-3.91 2.969,-6.489 1.602,-1.64 3.281,-2.972 3.711,-2.972 0.473,0 1.832,0.902 3.09,1.961 z m -29.027,-3.641 c -0.231,0.711 -0.313,7.5 -0.231,15.121 0.078,7.578 -0.082,13.988 -0.351,14.262 -0.282,0.269 -1.25,0.117 -2.149,-0.391 -1.371,-0.703 -1.922,-0.672 -2.851,0.27 -1.059,1.058 -0.821,1.527 2.179,4.527 2.781,2.82 3.602,3.281 5.039,2.742 1.723,-0.629 1.723,-0.672 1.723,-19.261 0,-17.887 -0.082,-18.59 -1.481,-18.59 -0.82,0 -1.64,0.582 -1.878,1.32"
         id="path14"
         style="fill:#000000;fill-opacity:1;fill-rule:nonzero;stroke:none" /></g></g></svg>