<?xml version="1.0" encoding="UTF-8" standalone="no"?>
<!-- Created with Inkscape (http://www.inkscape.org/) -->

<svg
   xmlns:dc="http://purl.org/dc/elements/1.1/"
   xmlns:cc="http://creativecommons.org/ns#"
   xmlns:rdf="http://www.w3.org/1999/02/22-rdf-syntax-ns#"
   xmlns:svg="http://www.w3.org/2000/svg"
   xmlns="http://www.w3.org/2000/svg"
   version="1.1"
   width="176.25"
   height="140"
   id="svg2"
   xml:space="preserve"><metadata
     id="metadata8"><rdf:RDF><cc:Work
         rdf:about=""><dc:format>image/svg+xml</dc:format><dc:type
           rdf:resource="http://purl.org/dc/dcmitype/StillImage" /><dc:title></dc:title></cc:Work></rdf:RDF></metadata><defs
     id="defs6" /><g
     transform="matrix(1.25,0,0,-1.25,0,140)"
     id="g10"><g
       transform="scale(0.1,0.1)"
       id="g12"><path
         d="m 1218.44,30.8516 c -81.99,86.6364 -146.21,200.3204 -179.3,317.4684 -40.589,143.629 -39.96,288.711 1.88,436.321 32.85,115.898 96.4,227.969 177.26,312.619 l 20.24,21.17 161.64,-161.95 -13.87,-14.73 c -18.17,-19.289 -30.08,-33.941 -30.08,-37.031 0,-1.367 -0.94,-2.457 -2.07,-2.457 -2.97,0 -30.62,-40.473 -44.41,-64.922 -23.52,-41.84 -46.96,-103.91 -58.05,-153.789 -17.19,-77.27 -17.19,-163.442 0,-240.699 21.29,-95.672 68.91,-186.454 134.06,-255.473 L 1400.2,172.031 1319.18,91.0117 1238.2,9.98828 1218.44,30.8516 z m -562.069,341.7574 -0.16,103.129 -14.102,-51.84 c -7.769,-28.507 -14.449,-52.187 -14.839,-52.617 -1.141,-1.172 -22.469,4.219 -23.52,5.981 -0.512,0.816 5.27,24.726 12.891,53.129 7.578,28.347 13.519,51.91 13.129,52.257 -0.36,0.391 -23.29,-38.437 -50.899,-86.25 -27.621,-47.847 -50.473,-87.226 -50.781,-87.578 -0.32,-0.308 -4.5,2 -9.301,5.121 l -8.711,5.7 6.293,10.711 c 3.469,5.886 7.649,13.937 9.289,17.847 1.641,3.903 21.68,39.571 44.5,79.223 22.809,39.648 41.988,73.039 42.61,74.219 0.628,1.211 -18.2,-16.922 -41.829,-40.243 l -42.929,-42.378 -8.09,7.808 -8.043,7.852 43.711,44.101 c 24.019,24.258 41.289,42.617 38.32,40.86 -2.969,-1.789 -37.969,-21.993 -77.781,-44.922 -39.758,-22.93 -78.039,-45.43 -85,-50.039 -6.949,-4.571 -13.32,-8.36 -14.098,-8.36 -0.82,0 -4.609,4.102 -8.441,9.102 -5.5,7.148 -6.399,9.566 -4.25,11.527 1.519,1.371 41.359,24.653 88.551,51.789 47.187,27.114 85.429,49.692 84.961,50.16 -0.43,0.473 -24.883,-5.578 -54.262,-13.476 -29.371,-7.852 -54.18,-13.512 -55.11,-12.57 -0.902,0.968 -2.308,5.226 -3.089,9.449 l -1.411,7.687 105.079,27.821 L 0,558.898 l 0,34.493 282.379,0.55 282.351,0.547 -47.5,12.653 c -26.14,6.961 -48.171,13.05 -48.91,13.519 -1.332,0.781 3.52,19.879 5.551,21.91 0.469,0.469 22.539,-5 49.059,-12.148 26.48,-7.141 48.48,-12.692 48.789,-12.383 0.351,0.352 -37.028,22.313 -83.09,48.789 -46.051,26.492 -84.918,49.141 -86.399,50.274 -2.07,1.636 -1.41,4.457 3,12.578 3.129,5.742 6.29,10.121 7.04,9.648 14.492,-8.867 178.082,-102.726 179.101,-102.726 0.738,0 -16.84,18.277 -39.141,40.578 l -40.511,40.55 15.312,14.84 40.16,-39.879 c 22.071,-21.91 38.899,-37.461 37.418,-34.492 -1.488,2.973 -24.41,43.012 -50.937,88.903 -26.524,45.937 -48.473,84.609 -48.832,85.937 -0.578,2.461 18.949,14.852 20.629,13.012 0.511,-0.59 23.91,-40.821 51.953,-89.449 28.047,-48.641 51.019,-87.352 51.019,-86.024 0,1.293 -6.679,27.313 -14.812,57.813 l -14.84,55.39 4.883,1.879 c 2.699,1.012 8.168,2.461 12.226,3.238 l 7.34,1.372 14.813,-55.782 c 8.121,-30.668 15.578,-57.226 16.558,-58.988 0.981,-1.789 1.801,45.078 1.84,104.18 l 0.071,107.461 23.089,0 1.411,-24.289 c 0.781,-13.364 1.48,-55.903 1.558,-94.5 0.121,-40.231 0.942,-67.891 1.992,-64.801 0.981,2.969 6.95,23.16 13.321,44.84 7.769,26.597 12.5,39.379 14.531,39.379 6.098,0 19.687,-5.079 19.648,-7.348 -0.039,-1.281 -6.8,-27.102 -15.039,-57.344 -8.203,-30.269 -14.652,-55.308 -14.301,-55.656 0.321,-0.32 23.719,39.488 51.961,88.469 28.2,49.031 51.989,89.89 52.848,90.781 1.602,1.758 19.531,-7.07 19.57,-9.602 0,-0.832 -23.437,-42.109 -52.07,-91.8 -28.629,-49.649 -52.578,-91.25 -53.16,-92.461 -0.629,-1.168 18.902,17.769 43.391,42.07 l 44.57,44.262 8.051,-8.09 L 825.98,723 785,681.602 c -22.578,-22.782 -38.59,-39.93 -35.621,-38.172 42.769,25.511 169.601,97.422 172.141,97.66 1.96,0.148 5.98,-4.059 9.339,-9.692 l 5.942,-10 L 840,665.539 c -53.238,-30.738 -96.559,-56.129 -96.25,-56.398 0.27,-0.282 29.41,7.218 64.77,16.711 35.351,9.5 64.531,17.226 64.921,17.226 1.047,0 6.168,-19.488 5.27,-20.226 -0.473,-0.391 -26.09,-7.391 -56.949,-15.59 l -56.102,-14.922 102,-0.551 101.988,-0.578 0,-28.012 -106.367,-0.16 -106.332,-0.148 57.582,-15.512 c 31.68,-8.52 58.129,-16.02 58.75,-16.641 1.989,-2.027 -5.351,-23.707 -8.011,-23.597 -1.36,0.039 -25.348,6.25 -53.282,13.828 -27.886,7.582 -50.968,13.562 -51.289,13.242 -0.308,-0.313 38.789,-23.242 86.84,-50.93 l 87.383,-50.359 -5.231,-8.82 c -2.89,-4.852 -6.211,-9.114 -7.351,-9.5 -1.168,-0.391 -40.07,21.218 -86.481,48.046 -46.41,26.801 -84.879,48.711 -85.468,48.711 -0.59,0 15.98,-16.64 36.757,-36.988 20.782,-20.351 37.813,-38.133 37.813,-39.531 0,-1.41 -3.441,-5.86 -7.621,-9.918 l -7.57,-7.352 -42.071,42 c -23.168,23.121 -42.078,41.168 -42.078,40.11 0,-1.051 22.777,-41.399 50.629,-89.61 27.852,-48.242 51.25,-89.332 51.988,-91.332 1.063,-2.726 -0.859,-4.797 -7.617,-8.238 -4.961,-2.539 -9.293,-4.289 -9.601,-3.898 -0.321,0.386 -23.211,40.039 -50.86,88.16 -27.699,48.09 -51.14,88.359 -52.109,89.449 -1.68,1.918 0.23,-5.66 19.84,-78.551 4.609,-17.148 8.05,-31.558 7.621,-31.988 -2.032,-2.031 -20.672,-6.602 -21.371,-5.281 -0.469,0.82 -7.032,24.808 -14.653,53.25 l -13.828,51.711 -0.539,-101.911 -0.59,-101.953 -28.011,0"
         id="path14"
         style="fill:#000000;fill-opacity:1;fill-rule:nonzero;stroke:none" /></g></g></svg>