<?xml version="1.0" encoding="UTF-8" standalone="no"?>
<!-- Created with Inkscape (http://www.inkscape.org/) -->

<svg
   xmlns:dc="http://purl.org/dc/elements/1.1/"
   xmlns:cc="http://creativecommons.org/ns#"
   xmlns:rdf="http://www.w3.org/1999/02/22-rdf-syntax-ns#"
   xmlns:svg="http://www.w3.org/2000/svg"
   xmlns="http://www.w3.org/2000/svg"
   xmlns:sodipodi="http://sodipodi.sourceforge.net/DTD/sodipodi-0.dtd"
   xmlns:inkscape="http://www.inkscape.org/namespaces/inkscape"
   width="744.09448819"
   height="1052.3622047"
   id="svg3949"
   version="1.1"
   inkscape:version="0.48.3.1 r9886"
   sodipodi:docname="Nowy dokument 3">
  <defs
     id="defs3951">
    <clipPath
       clipPathUnits="userSpaceOnUse"
       id="clipPath380">
      <path
         inkscape:connector-curvature="0"
         d="m 56.64,425 453,0 0,346.08 -453,0 0,-346.08 z"
         id="path382" />
    </clipPath>
    <clipPath
       clipPathUnits="userSpaceOnUse"
       id="clipPath368">
      <path
         inkscape:connector-curvature="0"
         d="m 470.4,688.76 39.24,0 0,12 -39.24,0 0,-12 z"
         id="path370" />
    </clipPath>
    <clipPath
       clipPathUnits="userSpaceOnUse"
       id="clipPath338">
      <path
         inkscape:connector-curvature="0"
         d="m 56.64,425 453,0 0,346.08 -453,0 0,-346.08 z"
         id="path340" />
    </clipPath>
    <clipPath
       clipPathUnits="userSpaceOnUse"
       id="clipPath326">
      <path
         inkscape:connector-curvature="0"
         d="m 56.64,425 453,0 0,346.08 -453,0 0,-346.08 z"
         id="path328" />
    </clipPath>
    <clipPath
       clipPathUnits="userSpaceOnUse"
       id="clipPath308">
      <path
         inkscape:connector-curvature="0"
         d="m 259.2,494.36 15.6,0 0,11.88 -15.6,0 0,-11.88 z"
         id="path310" />
    </clipPath>
    <clipPath
       clipPathUnits="userSpaceOnUse"
       id="clipPath274">
      <path
         inkscape:connector-curvature="0"
         d="m 210.96,647 16.8,0 0,11.88 -16.8,0 0,-11.88 z"
         id="path276" />
    </clipPath>
    <clipPath
       clipPathUnits="userSpaceOnUse"
       id="clipPath246">
      <path
         inkscape:connector-curvature="0"
         d="m 264.84,636.56 16.68,0 0,11.88 -16.68,0 0,-11.88 z"
         id="path248" />
    </clipPath>
    <clipPath
       clipPathUnits="userSpaceOnUse"
       id="clipPath218">
      <path
         inkscape:connector-curvature="0"
         d="m 318.12,626 16.2,0 0,12 -16.2,0 0,-12 z"
         id="path220" />
    </clipPath>
    <clipPath
       clipPathUnits="userSpaceOnUse"
       id="clipPath184">
      <path
         inkscape:connector-curvature="0"
         d="m 307.2,436.04 16.68,0 0,12 -16.68,0 0,-12 z"
         id="path186" />
    </clipPath>
    <clipPath
       clipPathUnits="userSpaceOnUse"
       id="clipPath156">
      <path
         inkscape:connector-curvature="0"
         d="m 253.2,446.48 16.8,0 0,12 -16.8,0 0,-12 z"
         id="path158" />
    </clipPath>
    <clipPath
       clipPathUnits="userSpaceOnUse"
       id="clipPath40">
      <path
         inkscape:connector-curvature="0"
         d="m 56.64,425 453,0 0,346.08 -453,0 0,-346.08 z"
         id="path42" />
    </clipPath>
  </defs>
  <sodipodi:namedview
     id="base"
     pagecolor="#ffffff"
     bordercolor="#666666"
     borderopacity="1.0"
     inkscape:pageopacity="0.0"
     inkscape:pageshadow="2"
     inkscape:zoom="0.49497475"
     inkscape:cx="715.41415"
     inkscape:cy="554.94874"
     inkscape:document-units="px"
     inkscape:current-layer="layer1"
     showgrid="false"
     inkscape:window-width="1025"
     inkscape:window-height="558"
     inkscape:window-x="339"
     inkscape:window-y="24"
     inkscape:window-maximized="0" />
  <metadata
     id="metadata3954">
    <rdf:RDF>
      <cc:Work
         rdf:about="">
        <dc:format>image/svg+xml</dc:format>
        <dc:type
           rdf:resource="http://purl.org/dc/dcmitype/StillImage" />
        <dc:title></dc:title>
      </cc:Work>
    </rdf:RDF>
  </metadata>
  <g
     inkscape:label="Layer 1"
     inkscape:groupmode="layer"
     id="layer1">
    <g
       transform="matrix(1.25,0,0,-1.25,21.075,1279.9122)"
       id="g36">
      <g
         id="g38"
         clip-path="url(#clipPath40)">
        <path
           inkscape:connector-curvature="0"
           d="m 52.44,778.16 507,0 0,-363.84 -507,0 0,363.84 z"
           style="fill:#ffffff;fill-opacity:1;fill-rule:nonzero;stroke:#ffffff;stroke-width:0.12;stroke-linecap:butt;stroke-linejoin:miter;stroke-miterlimit:10;stroke-opacity:1;stroke-dasharray:none"
           id="path44" />
      </g>
    </g>
    <path
       inkscape:connector-curvature="0"
       d="m 180.975,385.36218 0.15,7.5 m -0.15,0 7.35,-3.75 -7.35,-3.75 m 7.35,0 0,7.5 m -7.35,-3.75 -4.2,0.15 m 15.6,-0.15 -4.05,0.15 m -3.15,-2.55 2.25,-1.95"
       style="fill:none;stroke:#000000;stroke-width:0.14999999;stroke-linecap:round;stroke-linejoin:round;stroke-miterlimit:10;stroke-opacity:1;stroke-dasharray:none"
       id="path46" />
    <path
       inkscape:connector-curvature="0"
       d="m 186.825,384.16218 2.85,-1.35 -1.65,2.4 -1.2,-1.05"
       style="fill:#000000;fill-opacity:1;fill-rule:evenodd;stroke:none"
       id="path48" />
    <path
       inkscape:connector-curvature="0"
       d="m 186.825,384.16218 2.85,-1.35 -1.65,2.4 -1.2,-1.05 m -3.15,1.2 2.25,-1.95"
       style="fill:none;stroke:#000000;stroke-width:0.14999999;stroke-linecap:round;stroke-linejoin:round;stroke-miterlimit:10;stroke-opacity:1;stroke-dasharray:none"
       id="path50" />
    <path
       inkscape:connector-curvature="0"
       d="m 185.325,382.96218 2.85,-1.5 -1.65,2.55 -1.2,-1.05"
       style="fill:#000000;fill-opacity:1;fill-rule:evenodd;stroke:none"
       id="path52" />
    <path
       inkscape:connector-curvature="0"
       d="m 185.325,382.96218 2.85,-1.5 -1.65,2.55 -1.2,-1.05 m 7.05,47.25 -4.05,0.15 m 0,-3.9 0,7.5 m -7.35,0 7.35,-3.75 m -7.35,-3.75 0.15,7.5 m 7.2,-3.75 -7.35,-3.75 m 0,3.75 -4.2,0.15 m 10.5,-8.85 -2.25,1.95"
       style="fill:none;stroke:#000000;stroke-width:0.14999999;stroke-linecap:round;stroke-linejoin:round;stroke-miterlimit:10;stroke-opacity:1;stroke-dasharray:none"
       id="path54" />
    <path
       inkscape:connector-curvature="0"
       d="m 185.625,424.06218 -2.85,1.35 1.65,-2.55 1.2,1.2"
       style="fill:#000000;fill-opacity:1;fill-rule:evenodd;stroke:none"
       id="path56" />
    <path
       inkscape:connector-curvature="0"
       d="m 185.625,424.06218 -2.85,1.35 1.65,-2.55 1.2,1.2 m 3.15,-1.35 -2.25,2.1"
       style="fill:none;stroke:#000000;stroke-width:0.14999999;stroke-linecap:round;stroke-linejoin:round;stroke-miterlimit:10;stroke-opacity:1;stroke-dasharray:none"
       id="path58" />
    <path
       inkscape:connector-curvature="0"
       d="m 187.125,425.26218 -2.7,1.5 1.5,-2.55 1.2,1.05"
       style="fill:#000000;fill-opacity:1;fill-rule:evenodd;stroke:none"
       id="path60" />
    <path
       inkscape:connector-curvature="0"
       d="m 187.125,425.26218 -2.7,1.5 1.5,-2.55 1.2,1.05 m 121.35,-62.25 0.15,99 m 133.65,-99 0.15,99"
       style="fill:none;stroke:#000000;stroke-width:0.14999999;stroke-linecap:round;stroke-linejoin:round;stroke-miterlimit:10;stroke-opacity:1;stroke-dasharray:none"
       id="path62" />
    <text
       style="font-size:15px"
       y="358.21143"
       x="302.625"
       id="text64">
      <tspan
         style="font-size:16.20000076px;font-variant:normal;font-weight:normal;writing-mode:lr-tb;fill:#000000;fill-opacity:1;fill-rule:nonzero;stroke:none;font-family:Arial;-inkscape-font-specification:Arial"
         x="302.625 436.87439 569.62531"
         y="358.21143"
         sodipodi:role="line"
         id="tspan66">ABC</tspan>
    </text>
    <text
       style="font-size:15px"
       y="377.71194"
       x="168.675"
       id="text68">
      <tspan
         style="font-size:10.05000019px;font-variant:normal;font-weight:normal;writing-mode:lr-tb;fill:#000000;fill-opacity:1;fill-rule:nonzero;stroke:none;font-family:Arial;-inkscape-font-specification:Arial"
         x="168.675"
         sodipodi:role="line"
         id="tspan70"
         y="377.71194">Diode</tspan>
      <tspan
         style="font-size:10.05000019px;font-variant:normal;font-weight:normal;writing-mode:lr-tb;fill:#000000;fill-opacity:1;fill-rule:nonzero;stroke:none;font-family:Arial;-inkscape-font-specification:Arial"
         x="168.675"
         sodipodi:role="line"
         id="tspan72"
         y="390.27444" />
      <tspan
         style="font-size:10.05000019px;font-variant:normal;font-weight:normal;writing-mode:lr-tb;fill:#000000;fill-opacity:1;fill-rule:nonzero;stroke:none;font-family:Arial;-inkscape-font-specification:Arial"
         x="168.675"
         sodipodi:role="line"
         y="402.83694"
         id="tspan4318" />
      <tspan
         style="font-size:10.05000019px;font-variant:normal;font-weight:normal;writing-mode:lr-tb;fill:#000000;fill-opacity:1;fill-rule:nonzero;stroke:none;font-family:Arial;-inkscape-font-specification:Arial"
         x="168.675"
         sodipodi:role="line"
         y="415.39944"
         id="tspan4324">Receiver.</tspan>
    </text>
    <path
       inkscape:connector-curvature="0"
       d="m 576.075,363.01218 0,99"
       style="fill:none;stroke:#000000;stroke-width:0.14999999;stroke-linecap:round;stroke-linejoin:round;stroke-miterlimit:10;stroke-opacity:1;stroke-dasharray:none"
       id="path74" />
    <path
       inkscape:connector-curvature="0"
       d="m 285.525,514.36218 46.2,0 0,41.4 -46.2,0 0,-41.4 z"
       style="fill:none;stroke:#000000;stroke-width:0.14999999;stroke-linecap:butt;stroke-linejoin:miter;stroke-miterlimit:10;stroke-opacity:1;stroke-dasharray:none"
       id="path76" />
    <path
       inkscape:connector-curvature="0"
       d="m 329.325,535.06218 -0.9,-5.85 -3,-5.25 -4.65,-4.2 -5.85,-2.55 -6.45,-0.9 -6.45,0.9 -5.85,2.55 -4.5,4.2 -3,5.25 -1.05,5.85 1.05,5.85 3,5.1 4.5,4.2 5.85,2.7 6.45,0.9 6.45,-0.9 5.85,-2.7 4.65,-4.2 3,-5.1 0.9,-5.85 m -8.85,-10.8 -24,21.6 m 300.45,-10.8 -0.9,-5.85 -3,-5.25 -4.65,-4.2 -5.85,-2.55 -6.45,-0.9 -6.45,0.9 -5.85,2.55 -4.65,4.2 -2.85,5.25 -1.05,5.85 1.05,5.85 2.85,5.1 4.65,4.2 5.85,2.7 6.45,0.9 6.45,-0.9 5.85,-2.7 4.65,-4.2 3,-5.1 0.9,-5.85"
       style="fill:none;stroke:#000000;stroke-width:0.14999999;stroke-linecap:round;stroke-linejoin:round;stroke-miterlimit:10;stroke-opacity:1;stroke-dasharray:none"
       id="path78" />
    <path
       inkscape:connector-curvature="0"
       d="m 553.125,514.36218 46.05,0 0,41.4 -46.05,0 0,-41.4 z"
       style="fill:none;stroke:#000000;stroke-width:0.14999999;stroke-linecap:butt;stroke-linejoin:miter;stroke-miterlimit:10;stroke-opacity:1;stroke-dasharray:none"
       id="path80" />
    <path
       inkscape:connector-curvature="0"
       d="m 463.125,535.06218 -1.05,-5.85 -3,-5.25 -4.5,-4.2 -5.85,-2.55 -6.45,-0.9 -6.45,0.9 -5.85,2.55 -4.65,4.2 -2.85,5.25 -1.05,5.85 1.05,5.85 2.85,5.1 4.65,4.2 5.85,2.7 6.45,0.9 6.45,-0.9 5.85,-2.7 4.5,-4.2 3,-5.1 1.05,-5.85"
       style="fill:none;stroke:#000000;stroke-width:0.14999999;stroke-linecap:round;stroke-linejoin:round;stroke-miterlimit:10;stroke-opacity:1;stroke-dasharray:none"
       id="path82" />
    <path
       inkscape:connector-curvature="0"
       d="m 419.325,514.36218 46.05,0 0,41.4 -46.05,0 0,-41.4 z"
       style="fill:none;stroke:#000000;stroke-width:0.14999999;stroke-linecap:butt;stroke-linejoin:miter;stroke-miterlimit:10;stroke-opacity:1;stroke-dasharray:none"
       id="path84" />
    <path
       inkscape:connector-curvature="0"
       d="m 430.275,524.26218 24,21.6 m -57.9,-10.8 -1.05,-5.85 -3,-5.25 -4.65,-4.2 -5.85,-2.55 -6.45,-0.9 -6.45,0.9 -5.85,2.55 -4.5,4.2 -3,5.25 -1.05,5.85 1.05,5.85 3,5.1 4.5,4.2 5.85,2.7 6.45,0.9 6.45,-0.9 5.85,-2.7 4.65,-4.2 3,-5.1 1.05,-5.85"
       style="fill:none;stroke:#000000;stroke-width:0.14999999;stroke-linecap:round;stroke-linejoin:round;stroke-miterlimit:10;stroke-opacity:1;stroke-dasharray:none"
       id="path86" />
    <path
       inkscape:connector-curvature="0"
       d="m 352.425,514.36218 46.05,0 0,41.4 -46.05,0 0,-41.4 z"
       style="fill:none;stroke:#000000;stroke-width:0.14999999;stroke-linecap:butt;stroke-linejoin:miter;stroke-miterlimit:10;stroke-opacity:1;stroke-dasharray:none"
       id="path88" />
    <path
       inkscape:connector-curvature="0"
       d="m 375.375,363.01218 0,99 m 16.95,73.05 -1.35,-6 -3.6,-4.8 -5.55,-3.3 -6.45,-1.2 -6.45,1.2 -5.4,3.3 -3.75,4.8 -1.35,6 1.35,5.85 3.75,4.95 5.4,3.3 6.45,1.05 6.45,-1.05 5.55,-3.3 3.6,-4.95 1.35,-5.85"
       style="fill:none;stroke:#000000;stroke-width:0.14999999;stroke-linecap:round;stroke-linejoin:round;stroke-miterlimit:10;stroke-opacity:1;stroke-dasharray:none"
       id="path90" />
    <path
       inkscape:connector-curvature="0"
       d="m 471.525,514.36218 46.2,0 0,41.4 -46.2,0 0,-41.4 z"
       style="fill:none;stroke:#000000;stroke-width:0.14999999;stroke-linecap:butt;stroke-linejoin:miter;stroke-miterlimit:10;stroke-opacity:1;stroke-dasharray:none"
       id="path92" />
    <path
       inkscape:connector-curvature="0"
       d="m 515.475,535.06218 -1.05,-5.85 -3,-5.25 -4.65,-4.2 -5.7,-2.55 -6.6,-0.9 -6.45,0.9 -5.85,2.55 -4.5,4.2 -3,5.25 -1.05,5.85 1.05,5.85 3,5.1 4.5,4.2 5.85,2.7 6.45,0.9 6.6,-0.9 5.7,-2.7 4.65,-4.2 3,-5.1 1.05,-5.85 m -20.85,-172.05 0,99 m 11.85,62.25 -1.5,-1.05 -2.1,-0.75 -2.25,-0.15 -2.55,0.3 -2.55,0.75 -2.7,1.05 -2.7,1.5 -2.4,1.95 -2.25,2.1 -1.8,2.4 -1.5,2.4 -1.05,2.4 -0.6,2.25 0,2.1 0.45,1.95 0.9,1.65 1.5,1.2 1.8,0.9 2.1,0.45 2.4,-0.15 2.55,-0.45 2.7,-0.9 2.7,-1.35 2.55,-1.65 2.25,-1.95 2.1,-2.25 1.8,-2.25 1.2,-2.55 0.75,-2.4 0.3,-2.25 -0.15,-2.1 -0.75,-1.8 -1.2,-1.35"
       style="fill:none;stroke:#000000;stroke-width:0.14999999;stroke-linecap:round;stroke-linejoin:round;stroke-miterlimit:10;stroke-opacity:1;stroke-dasharray:none"
       id="path94" />
    <text
       style="font-size:15px"
       y="658.06195"
       x="168.075"
       id="text96">
      <tspan
         style="font-size:10.05000019px;font-variant:normal;font-weight:normal;writing-mode:lr-tb;fill:#000000;fill-opacity:1;fill-rule:nonzero;stroke:none;font-family:Arial;-inkscape-font-specification:Arial"
         sodipodi:role="line"
         x="168.075"
         y="658.06195"
         id="tspan4334">Receiver.</tspan>
    </text>
    <path
       inkscape:connector-curvature="0"
       d="m 415.125,602.41218 0,97.2 m -222.75,-30 -4.05,0.15 m 0,-3.9 0,7.5 m -7.35,-7.5 0.15,7.5 m -0.15,0 7.35,-3.75 m 0.45,-7.5 -2.25,2.1"
       style="fill:none;stroke:#000000;stroke-width:0.14999999;stroke-linecap:round;stroke-linejoin:round;stroke-miterlimit:10;stroke-opacity:1;stroke-dasharray:none"
       id="path100" />
    <path
       inkscape:connector-curvature="0"
       d="m 187.125,664.66218 -2.7,1.5 1.5,-2.55 1.2,1.05"
       style="fill:#000000;fill-opacity:1;fill-rule:evenodd;stroke:none"
       id="path102" />
    <path
       inkscape:connector-curvature="0"
       d="m 187.125,664.66218 -2.7,1.5 1.5,-2.55 1.2,1.05 m 1.2,4.95 -7.35,-3.75 m 0,3.75 -4.2,0.15 m 10.5,-8.85 -2.25,1.95"
       style="fill:none;stroke:#000000;stroke-width:0.14999999;stroke-linecap:round;stroke-linejoin:round;stroke-miterlimit:10;stroke-opacity:1;stroke-dasharray:none"
       id="path104" />
    <path
       inkscape:connector-curvature="0"
       d="m 185.625,663.31218 -2.85,1.5 1.65,-2.55 1.2,1.05"
       style="fill:#000000;fill-opacity:1;fill-rule:evenodd;stroke:none"
       id="path106" />
    <text
       style="font-size:15px"
       y="616.96191"
       x="168.675"
       id="text108">
      <tspan
         style="font-size:10.05000019px;font-variant:normal;font-weight:normal;writing-mode:lr-tb;fill:#000000;fill-opacity:1;fill-rule:nonzero;stroke:none;font-family:Arial;-inkscape-font-specification:Arial"
         sodipodi:role="line"
         x="168.675"
         y="616.96191"
         id="tspan4346">Diode</tspan>
    </text>
    <path
       inkscape:connector-curvature="0"
       d="m 185.625,663.31218 -2.85,1.5 1.65,-2.55 1.2,1.05 m 6.75,-34.8 -4.05,0.15 m 0,-3.9 0,7.5 m -7.35,-7.5 0.15,7.5 m 7.2,-3.75 -7.35,-3.75 m 0,7.5 7.35,-3.75 m -7.35,0 -4.2,0.15 m 6.9,-3.9 2.25,-1.95"
       style="fill:none;stroke:#000000;stroke-width:0.14999999;stroke-linecap:round;stroke-linejoin:round;stroke-miterlimit:10;stroke-opacity:1;stroke-dasharray:none"
       id="path112" />
    <path
       inkscape:connector-curvature="0"
       d="m 185.325,622.36218 2.85,-1.5 -1.65,2.55 -1.2,-1.05"
       style="fill:#000000;fill-opacity:1;fill-rule:evenodd;stroke:none"
       id="path114" />
    <path
       inkscape:connector-curvature="0"
       d="m 185.325,622.36218 2.85,-1.5 -1.65,2.55 -1.2,-1.05 m -0.15,3.75 2.25,-1.95"
       style="fill:none;stroke:#000000;stroke-width:0.14999999;stroke-linecap:round;stroke-linejoin:round;stroke-miterlimit:10;stroke-opacity:1;stroke-dasharray:none"
       id="path116" />
    <path
       inkscape:connector-curvature="0"
       d="m 186.825,623.56218 2.85,-1.35 -1.65,2.4 -1.2,-1.05"
       style="fill:#000000;fill-opacity:1;fill-rule:evenodd;stroke:none"
       id="path118" />
    <text
       style="font-size:15px"
       y="597.61145"
       x="409.125"
       id="text120">
      <tspan
         style="font-size:16.20000076px;font-variant:normal;font-weight:normal;writing-mode:lr-tb;fill:#000000;fill-opacity:1;fill-rule:nonzero;stroke:none;font-family:Arial;-inkscape-font-specification:Arial"
         x="409.125"
         y="597.61145"
         id="tspan122">D</tspan>
    </text>
    <path
       inkscape:connector-curvature="0"
       d="m 186.825,623.56218 2.85,-1.35 -1.65,2.4 -1.2,-1.05 m 278.4,1.2 0,-7.5 10.5,3.75 -10.5,3.75 m 83.7,-22.35 0,97.2 m 20.7,-59.25 -3.75,3.3 -34.05,-30.3 3.75,-3.3 34.05,30.3"
       style="fill:none;stroke:#000000;stroke-width:0.14999999;stroke-linecap:round;stroke-linejoin:round;stroke-miterlimit:10;stroke-opacity:1;stroke-dasharray:none"
       id="path124" />
    <text
       style="font-size:15px"
       y="597.61145"
       x="543.375"
       id="text126">
      <tspan
         style="font-size:16.20000076px;font-variant:normal;font-weight:normal;writing-mode:lr-tb;fill:#000000;fill-opacity:1;fill-rule:nonzero;stroke:none;font-family:Arial;-inkscape-font-specification:Arial"
         x="543.375"
         y="597.61145"
         id="tspan128">E</tspan>
    </text>
    <path
       inkscape:connector-curvature="0"
       d="m 561.375,643.51218 -8.25,0 4.05,9.3 4.2,-9.3"
       style="fill:none;stroke:#000000;stroke-width:0.14999999;stroke-linecap:round;stroke-linejoin:round;stroke-miterlimit:10;stroke-opacity:1;stroke-dasharray:none"
       id="path130" />
    <path
       inkscape:connector-curvature="0"
       d="m 308.475,617.26218 85.8,0 0,22.65 -85.8,0 0,-22.65 z"
       style="fill:none;stroke:#000000;stroke-width:0.14999999;stroke-linecap:butt;stroke-linejoin:miter;stroke-miterlimit:10;stroke-opacity:1;stroke-dasharray:none"
       id="path132" />
    <path
       inkscape:connector-curvature="0"
       d="m 275.025,363.01218 0.15,99"
       style="fill:none;stroke:#000000;stroke-width:0.14999999;stroke-linecap:round;stroke-linejoin:round;stroke-miterlimit:10;stroke-opacity:1;stroke-dasharray:none"
       id="path134" />
    <text
       style="font-size:15px"
       y="597.61145"
       x="270.07501"
       id="text136">
      <tspan
         style="font-size:16.20000076px;font-variant:normal;font-weight:normal;writing-mode:lr-tb;fill:#000000;fill-opacity:1;fill-rule:nonzero;stroke:none;font-family:Arial;-inkscape-font-specification:Arial"
         x="270.07501"
         y="597.61145"
         id="tspan138">0</tspan>
    </text>
    <path
       inkscape:connector-curvature="0"
       d="m 275.025,602.41218 0.15,97.2 m -0.15,0.15 0.15,13.5 m 139.95,-13.5 0,13.5 m -140.1,-0.6 61.35,0 m 78.75,0 -61.35,0"
       style="fill:none;stroke:#000000;stroke-width:0.14999999;stroke-linecap:round;stroke-linejoin:round;stroke-miterlimit:10;stroke-opacity:1;stroke-dasharray:none"
       id="path140" />
    <path
       inkscape:connector-curvature="0"
       d="m 277.425,711.01218 -0.45,-0.45 -3.75,4.2 4.2,-3.75"
       style="fill:#000000;fill-opacity:1;fill-rule:evenodd;stroke:none"
       id="path142" />
    <path
       inkscape:connector-curvature="0"
       d="m 276.975,710.56218 -3.75,4.2 -0.45,-0.45 4.2,-3.75"
       style="fill:#000000;fill-opacity:1;fill-rule:evenodd;stroke:none"
       id="path144" />
    <path
       inkscape:connector-curvature="0"
       d="m 277.425,711.01218 -0.45,-0.45 -4.2,3.75 0.45,0.45 4.2,-3.75"
       style="fill:none;stroke:#000000;stroke-width:0.14999999;stroke-linecap:round;stroke-linejoin:round;stroke-miterlimit:10;stroke-opacity:1;stroke-dasharray:none"
       id="path146" />
    <path
       inkscape:connector-curvature="0"
       d="m 412.875,714.31218 0.45,0.45 3.6,-4.2 -4.05,3.75"
       style="fill:#000000;fill-opacity:1;fill-rule:evenodd;stroke:none"
       id="path148" />
    <path
       inkscape:connector-curvature="0"
       d="m 413.175,714.76218 3.75,-4.2 0.45,0.45 -4.2,3.75"
       style="fill:#000000;fill-opacity:1;fill-rule:evenodd;stroke:none"
       id="path150" />
    <g
       transform="matrix(1.25,0,0,-1.25,21.075,1279.9122)"
       id="g152">
      <g
         id="g154"
         clip-path="url(#clipPath156)">
        <text
           transform="matrix(1,0,0,-1,253.2,447.68)"
           id="text160">
          <tspan
             style="font-size:12px;font-style:italic;font-variant:normal;writing-mode:lr-tb;fill:#000000;fill-opacity:1;fill-rule:nonzero;stroke:none;font-family:Times New Roman;-inkscape-font-specification:TimesNewRoman Italic"
             x="0"
             y="0"
             id="tspan162">x</tspan>
        </text>
        <text
           transform="matrix(1,0,0,-1,258.48,446.1194)"
           id="text164">
          <tspan
             style="font-size:8.03999996px;font-style:italic;font-variant:normal;writing-mode:lr-tb;fill:#000000;fill-opacity:1;fill-rule:nonzero;stroke:none;font-family:Times New Roman;-inkscape-font-specification:TimesNewRoman Italic"
             x="0"
             y="0"
             id="tspan166">D</tspan>
        </text>
      </g>
    </g>
    <path
       inkscape:connector-curvature="0"
       d="m 412.875,714.31218 0.45,0.45 4.05,-3.75 -0.45,-0.45 -4.05,3.75 m -137.85,-14.7 0.15,0 m 139.95,0 0,0 m 0,13.05 0,0 m -140.1,-12.9 0.15,26.55 m 273.75,-26.55 0,26.55 m -273.9,-0.6 128.85,0.15 m 145.05,-0.15 -128.85,0.15"
       style="fill:none;stroke:#000000;stroke-width:0.14999999;stroke-linecap:round;stroke-linejoin:round;stroke-miterlimit:10;stroke-opacity:1;stroke-dasharray:none"
       id="path168" />
    <path
       inkscape:connector-curvature="0"
       d="m 277.425,724.06218 -0.45,-0.45 -3.75,4.2 4.2,-3.75"
       style="fill:#000000;fill-opacity:1;fill-rule:evenodd;stroke:none"
       id="path170" />
    <path
       inkscape:connector-curvature="0"
       d="m 276.975,723.61218 -3.75,4.2 -0.45,-0.45 4.2,-3.75"
       style="fill:#000000;fill-opacity:1;fill-rule:evenodd;stroke:none"
       id="path172" />
    <path
       inkscape:connector-curvature="0"
       d="m 277.425,724.06218 -0.45,-0.45 -4.2,3.75 0.45,0.45 4.2,-3.75"
       style="fill:none;stroke:#000000;stroke-width:0.14999999;stroke-linecap:round;stroke-linejoin:round;stroke-miterlimit:10;stroke-opacity:1;stroke-dasharray:none"
       id="path174" />
    <path
       inkscape:connector-curvature="0"
       d="m 546.525,727.36218 0.45,0.45 3.75,-4.2 -4.2,3.75"
       style="fill:#000000;fill-opacity:1;fill-rule:evenodd;stroke:none"
       id="path176" />
    <path
       inkscape:connector-curvature="0"
       d="m 546.975,727.81218 3.75,-4.2 0.45,0.45 -4.2,3.75"
       style="fill:#000000;fill-opacity:1;fill-rule:evenodd;stroke:none"
       id="path178" />
    <g
       transform="matrix(1.25,0,0,-1.25,21.075,1279.9122)"
       id="g180">
      <g
         id="g182"
         clip-path="url(#clipPath184)">
        <text
           transform="matrix(1,0,0,-1,307.2,437.24)"
           id="text188">
          <tspan
             style="font-size:12px;font-style:italic;font-variant:normal;writing-mode:lr-tb;fill:#000000;fill-opacity:1;fill-rule:nonzero;stroke:none;font-family:Times New Roman;-inkscape-font-specification:TimesNewRoman Italic"
             x="0"
             y="0"
             id="tspan190">x</tspan>
        </text>
        <text
           transform="matrix(1,0,0,-1,312.48,435.6794)"
           id="text192">
          <tspan
             style="font-size:8.03999996px;font-style:italic;font-variant:normal;writing-mode:lr-tb;fill:#000000;fill-opacity:1;fill-rule:nonzero;stroke:none;font-family:Times New Roman;-inkscape-font-specification:TimesNewRoman Italic"
             x="0"
             y="0"
             id="tspan194">E</tspan>
        </text>
      </g>
    </g>
    <path
       inkscape:connector-curvature="0"
       d="m 546.525,727.36218 0.45,0.45 4.2,-3.75 -0.45,-0.45 -4.2,3.75 m -271.5,-27.75 0.15,0 m 273.75,0 0,0"
       style="fill:none;stroke:#000000;stroke-width:0.14999999;stroke-linecap:round;stroke-linejoin:round;stroke-miterlimit:10;stroke-opacity:1;stroke-dasharray:none"
       id="path196" />
    <text
       style="font-size:15px"
       y="358.21143"
       x="270.07501"
       id="text198">
      <tspan
         style="font-size:16.20000076px;font-variant:normal;font-weight:normal;writing-mode:lr-tb;fill:#000000;fill-opacity:1;fill-rule:nonzero;stroke:none;font-family:Arial;-inkscape-font-specification:Arial"
         x="270.07501"
         y="358.21143"
         id="tspan200">0</tspan>
    </text>
    <path
       inkscape:connector-curvature="0"
       d="m 548.925,725.71218 0,0.15 m -273.9,-263.55 0.15,26.55 m 300.9,-26.55 0,26.55 m -301.05,-0.6 142.5,0 m 158.55,0 -142.5,0"
       style="fill:none;stroke:#000000;stroke-width:0.14999999;stroke-linecap:round;stroke-linejoin:round;stroke-miterlimit:10;stroke-opacity:1;stroke-dasharray:none"
       id="path202" />
    <path
       inkscape:connector-curvature="0"
       d="m 277.425,486.61218 -0.45,-0.45 -3.75,4.05 4.2,-3.6"
       style="fill:#000000;fill-opacity:1;fill-rule:evenodd;stroke:none"
       id="path204" />
    <path
       inkscape:connector-curvature="0"
       d="m 276.975,486.16218 -3.75,4.05 -0.45,-0.3 4.2,-3.75"
       style="fill:#000000;fill-opacity:1;fill-rule:evenodd;stroke:none"
       id="path206" />
    <path
       inkscape:connector-curvature="0"
       d="m 277.425,486.61218 -0.45,-0.45 -4.2,3.75 0.45,0.3 4.2,-3.6"
       style="fill:none;stroke:#000000;stroke-width:0.14999999;stroke-linecap:round;stroke-linejoin:round;stroke-miterlimit:10;stroke-opacity:1;stroke-dasharray:none"
       id="path208" />
    <path
       inkscape:connector-curvature="0"
       d="m 573.675,489.91218 0.45,0.3 3.75,-4.05 -4.2,3.75"
       style="fill:#000000;fill-opacity:1;fill-rule:evenodd;stroke:none"
       id="path210" />
    <path
       inkscape:connector-curvature="0"
       d="m 574.125,490.21218 3.75,-4.05 0.45,0.45 -4.2,3.6"
       style="fill:#000000;fill-opacity:1;fill-rule:evenodd;stroke:none"
       id="path212" />
    <g
       transform="matrix(1.25,0,0,-1.25,21.075,1279.9122)"
       id="g214">
      <g
         id="g216"
         clip-path="url(#clipPath218)">
        <text
           transform="matrix(1,0,0,-1,318.12,627.2)"
           id="text222">
          <tspan
             style="font-size:12px;font-style:italic;font-variant:normal;writing-mode:lr-tb;fill:#000000;fill-opacity:1;fill-rule:nonzero;stroke:none;font-family:Times New Roman;-inkscape-font-specification:TimesNewRoman Italic"
             x="0"
             y="0"
             id="tspan224">x</tspan>
        </text>
        <text
           transform="matrix(1,0,0,-1,323.4,625.6394)"
           id="text226">
          <tspan
             style="font-size:8.03999996px;font-style:italic;font-variant:normal;writing-mode:lr-tb;fill:#000000;fill-opacity:1;fill-rule:nonzero;stroke:none;font-family:Times New Roman;-inkscape-font-specification:TimesNewRoman Italic"
             x="0"
             y="0"
             id="tspan228">C</tspan>
        </text>
      </g>
    </g>
    <path
       inkscape:connector-curvature="0"
       d="m 573.675,489.91218 0.6,0.3 4.05,-3.6 -0.45,-0.45 -4.2,3.75 m -298.65,-27.9 0.15,0 m 300.9,0 0,0 m 0,26.25 0,0 m -301.05,-25.95 0.15,13.5 m 167.1,-13.5 0.15,13.5 m -167.4,-0.6 75.9,0 m 91.35,0 -75.9,0"
       style="fill:none;stroke:#000000;stroke-width:0.14999999;stroke-linecap:round;stroke-linejoin:round;stroke-miterlimit:10;stroke-opacity:1;stroke-dasharray:none"
       id="path230" />
    <path
       inkscape:connector-curvature="0"
       d="m 277.425,473.41218 -0.45,-0.3 -3.75,4.05 4.2,-3.75"
       style="fill:#000000;fill-opacity:1;fill-rule:evenodd;stroke:none"
       id="path232" />
    <path
       inkscape:connector-curvature="0"
       d="m 276.975,473.11218 -3.75,4.05 -0.45,-0.3 4.2,-3.75"
       style="fill:#000000;fill-opacity:1;fill-rule:evenodd;stroke:none"
       id="path234" />
    <path
       inkscape:connector-curvature="0"
       d="m 277.425,473.41218 -0.45,-0.3 -4.2,3.75 0.45,0.3 4.2,-3.75"
       style="fill:none;stroke:#000000;stroke-width:0.14999999;stroke-linecap:round;stroke-linejoin:round;stroke-miterlimit:10;stroke-opacity:1;stroke-dasharray:none"
       id="path236" />
    <path
       inkscape:connector-curvature="0"
       d="m 440.025,476.86218 0.45,0.3 3.6,-4.05 -4.05,3.75"
       style="fill:#000000;fill-opacity:1;fill-rule:evenodd;stroke:none"
       id="path238" />
    <path
       inkscape:connector-curvature="0"
       d="m 440.475,477.16218 3.75,-4.05 0.45,0.3 -4.2,3.75"
       style="fill:#000000;fill-opacity:1;fill-rule:evenodd;stroke:none"
       id="path240" />
    <g
       transform="matrix(1.25,0,0,-1.25,21.075,1279.9122)"
       id="g242">
      <g
         id="g244"
         clip-path="url(#clipPath246)">
        <text
           transform="matrix(1,0,0,-1,264.84,637.64)"
           id="text250">
          <tspan
             style="font-size:12px;font-style:italic;font-variant:normal;writing-mode:lr-tb;fill:#000000;fill-opacity:1;fill-rule:nonzero;stroke:none;font-family:Times New Roman;-inkscape-font-specification:TimesNewRoman Italic"
             x="0"
             y="0"
             id="tspan252">x</tspan>
        </text>
        <text
           transform="matrix(1,0,0,-1,270.12,636.0793)"
           id="text254">
          <tspan
             style="font-size:8.03999996px;font-style:italic;font-variant:normal;writing-mode:lr-tb;fill:#000000;fill-opacity:1;fill-rule:nonzero;stroke:none;font-family:Times New Roman;-inkscape-font-specification:TimesNewRoman Italic"
             x="0"
             y="0"
             id="tspan256">B</tspan>
        </text>
      </g>
    </g>
    <path
       inkscape:connector-curvature="0"
       d="m 440.025,476.86218 0.45,0.3 4.2,-3.75 -0.45,-0.3 -4.2,3.75 m -165,-14.85 0.15,0 m 167.1,0 0.15,0 m -0.15,13.2 0.15,0 m -167.4,-13.35 0.15,-0.45 m 33.3,0.45 0.15,-0.45 m -33.6,0.6 8.7,0 m 24.75,0 -8.55,0"
       style="fill:none;stroke:#000000;stroke-width:0.14999999;stroke-linecap:round;stroke-linejoin:round;stroke-miterlimit:10;stroke-opacity:1;stroke-dasharray:none"
       id="path258" />
    <path
       inkscape:connector-curvature="0"
       d="m 277.425,460.36218 -0.45,-0.45 -3.75,4.2 4.2,-3.75"
       style="fill:#000000;fill-opacity:1;fill-rule:evenodd;stroke:none"
       id="path260" />
    <path
       inkscape:connector-curvature="0"
       d="m 276.975,459.91218 -3.75,4.2 -0.45,-0.3 4.2,-3.9"
       style="fill:#000000;fill-opacity:1;fill-rule:evenodd;stroke:none"
       id="path262" />
    <path
       inkscape:connector-curvature="0"
       d="m 277.425,460.36218 -0.45,-0.45 -4.2,3.9 0.45,0.3 4.2,-3.75"
       style="fill:none;stroke:#000000;stroke-width:0.14999999;stroke-linecap:round;stroke-linejoin:round;stroke-miterlimit:10;stroke-opacity:1;stroke-dasharray:none"
       id="path264" />
    <path
       inkscape:connector-curvature="0"
       d="m 306.225,463.81218 0.45,0.3 3.75,-4.2 -4.2,3.9"
       style="fill:#000000;fill-opacity:1;fill-rule:evenodd;stroke:none"
       id="path266" />
    <path
       inkscape:connector-curvature="0"
       d="m 306.675,464.11218 3.75,-4.2 0.45,0.45 -4.2,3.75"
       style="fill:#000000;fill-opacity:1;fill-rule:evenodd;stroke:none"
       id="path268" />
    <g
       transform="matrix(1.25,0,0,-1.25,21.075,1279.9122)"
       id="g270">
      <g
         id="g272"
         clip-path="url(#clipPath274)">
        <text
           transform="matrix(1,0,0,-1,210.96,648.08)"
           id="text278">
          <tspan
             style="font-size:12px;font-style:italic;font-variant:normal;writing-mode:lr-tb;fill:#000000;fill-opacity:1;fill-rule:nonzero;stroke:none;font-family:Times New Roman;-inkscape-font-specification:TimesNewRoman Italic"
             x="0"
             y="0"
             id="tspan280">x</tspan>
        </text>
        <text
           transform="matrix(1,0,0,-1,216.24,646.5194)"
           id="text282">
          <tspan
             style="font-size:8.03999996px;font-style:italic;font-variant:normal;writing-mode:lr-tb;fill:#000000;fill-opacity:1;fill-rule:nonzero;stroke:none;font-family:Times New Roman;-inkscape-font-specification:TimesNewRoman Italic"
             x="0"
             y="0"
             id="tspan284">A</tspan>
        </text>
      </g>
    </g>
    <path
       inkscape:connector-curvature="0"
       d="m 306.225,463.81218 0.45,0.3 4.2,-3.75 -0.45,-0.45 -4.2,3.9 m -31.2,-1.8 0.15,0 m 33.3,0 0.15,0 m -0.15,0 0.15,0 m 267.45,33.75 0,18.6 m -267.6,-18.6 0.15,18.6 m 66.75,-18.6 0,18.6 m 66.9,-18.6 0.15,18.6"
       style="fill:none;stroke:#000000;stroke-width:0.14999999;stroke-linecap:round;stroke-linejoin:round;stroke-miterlimit:10;stroke-opacity:1;stroke-dasharray:none"
       id="path286" />
    <text
       style="font-size:15px"
       y="534.61194"
       x="159.075"
       id="text288">
      <tspan
         style="font-size:10.05000019px;font-variant:normal;font-weight:normal;writing-mode:lr-tb;fill:#000000;fill-opacity:1;fill-rule:nonzero;stroke:none;font-family:Arial;-inkscape-font-specification:Arial"
         x="159.075"
         sodipodi:role="line"
         id="tspan290"
         y="534.61194">Oscilloscope</tspan>
    </text>
    <path
       inkscape:connector-curvature="0"
       d="m 494.625,495.76218 0,18.6 m -186.15,125.55 0.15,13.5 m 85.5,-13.5 0.15,13.5 m -85.8,-0.6 34.8,0 m 50.85,0 -34.65,0"
       style="fill:none;stroke:#000000;stroke-width:0.14999999;stroke-linecap:round;stroke-linejoin:round;stroke-miterlimit:10;stroke-opacity:1;stroke-dasharray:none"
       id="path292" />
    <path
       inkscape:connector-curvature="0"
       d="m 310.875,651.16218 -0.45,-0.45 -3.75,4.2 4.2,-3.75"
       style="fill:#000000;fill-opacity:1;fill-rule:evenodd;stroke:none"
       id="path294" />
    <path
       inkscape:connector-curvature="0"
       d="m 310.425,650.71218 -3.75,4.2 -0.45,-0.45 4.2,-3.75"
       style="fill:#000000;fill-opacity:1;fill-rule:evenodd;stroke:none"
       id="path296" />
    <path
       inkscape:connector-curvature="0"
       d="m 310.875,651.16218 -0.45,-0.45 -4.2,3.75 0.45,0.45 4.2,-3.75"
       style="fill:none;stroke:#000000;stroke-width:0.14999999;stroke-linecap:round;stroke-linejoin:round;stroke-miterlimit:10;stroke-opacity:1;stroke-dasharray:none"
       id="path298" />
    <path
       inkscape:connector-curvature="0"
       d="m 391.875,654.46218 0.45,0.45 3.75,-4.2 -4.2,3.75"
       style="fill:#000000;fill-opacity:1;fill-rule:evenodd;stroke:none"
       id="path300" />
    <path
       inkscape:connector-curvature="0"
       d="m 392.325,654.91218 3.75,-4.2 0.45,0.45 -4.2,3.75"
       style="fill:#000000;fill-opacity:1;fill-rule:evenodd;stroke:none"
       id="path302" />
    <g
       transform="matrix(1.25,0,0,-1.25,21.075,1279.9122)"
       id="g304">
      <g
         id="g306"
         clip-path="url(#clipPath308)">
        <text
           transform="matrix(1,0,0,-1,259.2,495.44)"
           id="text312">
          <tspan
             style="font-size:12px;font-style:italic;font-variant:normal;writing-mode:lr-tb;fill:#000000;fill-opacity:1;fill-rule:nonzero;stroke:none;font-family:Times New Roman;-inkscape-font-specification:TimesNewRoman Italic"
             x="0"
             y="0"
             id="tspan314">L</tspan>
        </text>
        <text
           transform="matrix(1,0,0,-1,265.92,493.8794)"
           id="text316">
          <tspan
             style="font-size:8.03999996px;font-style:italic;font-variant:normal;writing-mode:lr-tb;fill:#000000;fill-opacity:1;fill-rule:nonzero;stroke:none;font-family:Times New Roman;-inkscape-font-specification:TimesNewRoman Italic"
             x="0"
             y="0"
             id="tspan318">O</tspan>
        </text>
      </g>
    </g>
    <path
       inkscape:connector-curvature="0"
       d="m 391.875,654.46218 0.45,0.45 4.2,-3.75 -0.45,-0.45 -4.2,3.75 m -83.4,-14.7 0.15,0 m 85.5,0 0.15,0 m -0.15,13.05 0.15,0"
       style="fill:none;stroke:#000000;stroke-width:0.14999999;stroke-linecap:round;stroke-linejoin:round;stroke-miterlimit:10;stroke-opacity:1;stroke-dasharray:none"
       id="path320" />
    <text
       style="font-size:15px"
       y="654.31195"
       x="620.62469"
       id="text350">
      <tspan
         style="font-size:10.05000019px;font-variant:normal;font-weight:normal;writing-mode:lr-tb;fill:#000000;fill-opacity:1;fill-rule:nonzero;stroke:none;font-family:Arial;-inkscape-font-specification:Arial"
         x="620.62469"
         y="654.31195"
         id="tspan352" />
    </text>
    <text
       style="font-size:15px"
       y="654.31195"
       x="622.87488"
       id="text354">
      <tspan
         style="font-size:10.05000019px;font-variant:normal;font-weight:normal;writing-mode:lr-tb;fill:#000000;fill-opacity:1;fill-rule:nonzero;stroke:none;font-family:Arial;-inkscape-font-specification:Arial"
         sodipodi:role="line"
         id="tspan358"
         x="622.87488"
         y="654.31195" />
    </text>
    <text
       style="font-size:15px"
       y="413.11194"
       x="651.82489"
       id="text360">
      <tspan
         style="font-size:10.05000019px;font-variant:normal;font-weight:normal;writing-mode:lr-tb;fill:#000000;fill-opacity:1;fill-rule:nonzero;stroke:none;font-family:Arial;-inkscape-font-specification:Arial"
         x="651.82489"
         y="413.11194"
         id="tspan362" />
    </text>
    <g
       transform="matrix(1.25,0,0,-1.25,21.075,1279.9122)"
       id="g364">
      <g
         id="g366"
         clip-path="url(#clipPath368)">
        <text
           transform="matrix(1,0,0,-1,506.4,693.4402)"
           id="text372">
          <tspan
             style="font-size:8.03999996px;font-variant:normal;font-weight:normal;writing-mode:lr-tb;fill:#000000;fill-opacity:1;fill-rule:nonzero;stroke:none;font-family:Arial;-inkscape-font-specification:Arial"
             x="0"
             y="0"
             id="tspan374" />
        </text>
      </g>
    </g>
    <path
       inkscape:connector-curvature="0"
       d="m 262.575,646.21218 1.8,-11.7 0,-12 -1.8,-11.7 -1.95,11.7 0,12 1.95,11.7 m -12.6,41.1 1.8,-11.7 0,-11.85 -1.8,-11.85 -1.8,11.85 0,11.85 1.8,11.7 m 14.4,-51.3 200.85,0 m -200.85,-15 200.85,0.15 m 75.3,-0.15 0.15,22.5 m 16.5,-7.5 0.15,7.5 m -305.7,18.6 213.6,0.15 m -213.6,14.85 213.6,0 m -204.45,-55.95 -60.9,7.35 m 60.9,7.35 -60.9,-7.35 m 64.5,-7.5 -3.6,0.15 m 3.6,14.85 -3.6,-0.15 m -12.6,26.55 -48.3,7.2 m 0.15,0.3 47.55,6.9 m 3.6,-14.7 -3.15,0.3 m 3.6,14.7 -3,-0.3 m 219,-36.15 0,-7.5 9.45,3.75 -9.45,3.75 m 76.8,2.7 -7.35,0 3.75,9.3 3.6,-9.3 m -66.75,15.9 0,7.5 -9.3,-3.75 9.3,-3.75 m 0,14.4 0,7.5 -9.3,-3.75 9.3,-3.75 m -238.35,-238.2 136.65,0.15 m -136.65,-15.15 136.65,0.15 m -183,7.35 43.2,7.35 m 0,-14.55 -43.2,7.2 m 54.45,-33.75 -54.45,-7.35 m 54.45,-7.2 -54.45,7.2 m 44.7,58.95 1.8,-11.85 0,-11.85 -1.8,-11.85 -1.5,11.85 0,11.85 1.5,11.85 m 1.65,-10.35 -3.15,-0.15 m 3.15,-14.85 -3.15,0.3 m 14.4,-26.4 -3.15,-0.15 m 3.15,-14.7 -3.15,0.15 m 1.5,25.05 1.8,-11.85 0,-11.85 -1.8,-11.85 -1.65,11.85 0,11.85 1.65,11.85 m 1.65,-10.35 125.4,0.15 m -125.4,-15 125.4,0 m 9.45,52.2 0,7.5 -9.45,-3.75 9.45,-3.75 m 0,-14.85 0,7.35 -9.45,-3.6 9.45,-3.75 m -9.45,-33.75 0,-7.35 9.45,3.6 -9.45,3.75 m 0,15 0,-7.5 9.45,3.75 -9.45,3.75 m 149.55,3.75 -7.5,0 3.75,9.3 3.75,-9.3 m 14.85,0 -7.35,0 3.75,9.3 3.6,-9.3 m -3.75,-7.5 0.15,7.5 m -15,-22.35 0,22.35 m 47.1,255.15 -3.45,-3.3 -30.3,30.45 3.3,3.3 30.45,-30.45"
       style="fill:none;stroke:#000000;stroke-width:0.14999999;stroke-linecap:round;stroke-linejoin:round;stroke-miterlimit:10;stroke-opacity:1;stroke-dasharray:none"
       id="path386" />
    <path
       inkscape:connector-curvature="0"
       d="m 557.175,652.81218 0.15,9.3 m -16.5,-9.45 0,24.3 m -63.15,-40.05 79.2,0 m -82.05,-15.75 61.8,0 m -58.2,41.85 76.5,0.15 m -76.5,14.25 60.9,0 m -5.1,-62.55 0.9,-3.6 m 1.05,5.4 1.35,-5.1 m 0.6,7.05 1.35,-5.25 m 0.45,7.2 1.5,-5.25 m 1.5,7.35 1.5,-5.25 m 0.3,7.5 1.65,-5.55 m 0.45,7.05 1.35,-5.25 m 0.6,7.2 0.45,-1.95 0.9,-3.3 m 0.45,7.2 1.35,-5.25 m 0.6,7.05 1.35,-5.1 m 1.35,6.75 1.35,-5.25 m 0.6,7.05 1.35,-5.1 m 0.45,7.05 1.5,-5.25 m 0.45,7.2 1.35,-5.25 m 0.6,7.2 1.35,-5.25 m 0.45,7.05 1.5,-5.1 m 1.5,3.15 0.3,-1.35 m -31.35,45 1.05,-3.9 m 0.9,5.7 2.4,-9 m 0.9,5.7 2.4,-9 m 0.9,5.7 2.4,-9 m 0.9,5.7 1.95,-7.05 m 1.35,3.75 2.4,-9 m 0.9,5.7 2.4,-9 m 0.9,5.7 2.4,-9 m 0.9,5.7 2.4,-9 m 0.9,5.7 1.65,-6.15 m 1.65,2.85 0.3,-0.9 m -53.25,-283.05 1.05,-3.6 m 0.9,5.4 1.35,-5.1 m 0.6,7.05 1.35,-5.25 m 0.45,7.2 1.35,-5.25 m 0.6,7.2 1.35,-5.25 m 0.6,7.05 1.35,-5.25 m 0.6,7.2 1.35,-5.25 m 0.45,7.2 0.6,-1.95 0.75,-3.3 m -14.55,63.45 1.05,-3.9 m 14.1,-52.5 1.35,-5.1 m -14.55,63.3 2.4,-9 m 12.6,-47.25 1.5,-5.25 m -13.2,58.2 2.4,-9 m 11.25,-42 1.5,-5.25 m -11.85,52.95 2.4,-9 m 9.9,-36.75 1.35,-5.25 m -10.35,47.7 1.95,-7.05 m 9,-33.6 1.35,-5.1 m -10.35,38.7 0.45,-1.95 m 0.9,5.7 2.4,-9 m 7.05,-26.4 1.5,-5.25 m -7.65,37.35 2.4,-9 m 5.7,-21.15 1.35,-5.25 m -6.15,32.1 2.4,-9 m 4.35,-15.9 1.35,-5.25 m -4.8,26.85 2.4,-9 m 4.05,-14.7 0.3,-1.35 m -3.45,21.75 1.65,-6.15 m 1.65,2.85 0.3,-0.9"
       style="fill:none;stroke:#000000;stroke-width:0.14999999;stroke-linecap:round;stroke-linejoin:round;stroke-miterlimit:10;stroke-opacity:1;stroke-dasharray:none"
       id="path388" />
    <path
       inkscape:connector-curvature="0"
       d="m 547.725,416.11218 -3.3,-3.3 -30.3,30.45 3.3,3.3 30.3,-30.45 m 0,-17.25 -3.3,3.15 -30.3,-30.3 3.3,-3.3 30.3,30.45 m -25.95,12.3 0,24.3 m 14.85,-24.3 0.15,9.3 m -151.35,15 136.35,0.15 m -136.35,-15.15 151.2,0.15 m -151.2,-26.25 151.2,0.15 m -151.2,-15 136.35,0 m 63.3,143.7 -21.45,21.6 m -117,14.55 0,9 m -2.7,0 -24.3,0 0,13.05 m 159.3,-22.05 0,11.25 -24.3,0 0,13.05"
       style="fill:none;stroke:#000000;stroke-width:0.14999999;stroke-linecap:round;stroke-linejoin:round;stroke-miterlimit:10;stroke-opacity:1;stroke-dasharray:none"
       id="path390" />
    <text
       style="font-size:15px"
       y="407.73151"
       x="599.31659"
       id="text68-4">
      <tspan
         style="font-size:10.05000019px;font-variant:normal;font-weight:normal;writing-mode:lr-tb;fill:#000000;fill-opacity:1;fill-rule:nonzero;stroke:none;font-family:Arial;-inkscape-font-specification:Arial"
         x="599.31659"
         sodipodi:role="line"
         y="407.73151"
         id="tspan4324-3">Mirrors</tspan>
    </text>
    <flowRoot
       xml:space="preserve"
       id="flowRoot4393"
       style="fill:black;stroke:none;stroke-opacity:1;stroke-width:1px;stroke-linejoin:miter;stroke-linecap:butt;fill-opacity:1;font-family:Times New Roman;font-style:normal;font-weight:normal;font-size:11px;line-height:125%;letter-spacing:0px;word-spacing:0px;-inkscape-font-specification:Times New Roman"><flowRegion
         id="flowRegion4395"><rect
           id="rect4397"
           width="119.198"
           height="780.8479"
           x="754.58392"
           y="450.31128" /></flowRegion><flowPara
         id="flowPara4399"></flowPara></flowRoot>    <text
       style="font-size:15px"
       y="659.92047"
       x="610.46143"
       id="text68-4-8">
      <tspan
         style="font-size:10.05000019px;font-variant:normal;font-weight:normal;writing-mode:lr-tb;fill:#000000;fill-opacity:1;fill-rule:nonzero;stroke:none;font-family:Arial;-inkscape-font-specification:Arial"
         x="610.46143"
         sodipodi:role="line"
         y="659.92047"
         id="tspan4324-3-4">Mirrors</tspan>
    </text>
  </g>
</svg>
