<?xml version="1.0" encoding="UTF-8" standalone="no"?>
<!-- Created with Inkscape (http://www.inkscape.org/) -->

<svg
   xmlns:dc="http://purl.org/dc/elements/1.1/"
   xmlns:cc="http://creativecommons.org/ns#"
   xmlns:rdf="http://www.w3.org/1999/02/22-rdf-syntax-ns#"
   xmlns:svg="http://www.w3.org/2000/svg"
   xmlns="http://www.w3.org/2000/svg"
   xmlns:sodipodi="http://sodipodi.sourceforge.net/DTD/sodipodi-0.dtd"
   xmlns:inkscape="http://www.inkscape.org/namespaces/inkscape"
   width="744.09448819"
   height="1052.3622047"
   id="svg4479"
   version="1.1"
   inkscape:version="0.48.3.1 r9886"
   sodipodi:docname="Nowy dokument 9">
  <defs
     id="defs4481" />
  <sodipodi:namedview
     id="base"
     pagecolor="#ffffff"
     bordercolor="#666666"
     borderopacity="1.0"
     inkscape:pageopacity="0.0"
     inkscape:pageshadow="2"
     inkscape:zoom="0.98994949"
     inkscape:cx="328.68661"
     inkscape:cy="583.50723"
     inkscape:document-units="px"
     inkscape:current-layer="layer1"
     showgrid="false"
     inkscape:window-width="974"
     inkscape:window-height="604"
     inkscape:window-x="390"
     inkscape:window-y="24"
     inkscape:window-maximized="0" />
  <metadata
     id="metadata4484">
    <rdf:RDF>
      <cc:Work
         rdf:about="">
        <dc:format>image/svg+xml</dc:format>
        <dc:type
           rdf:resource="http://purl.org/dc/dcmitype/StillImage" />
        <dc:title></dc:title>
      </cc:Work>
    </rdf:RDF>
  </metadata>
  <g
     inkscape:label="Layer 1"
     inkscape:groupmode="layer"
     id="layer1">
    <path
       inkscape:connector-curvature="0"
       d="m 520.64286,441.95713 -4.65,4.8 6.45,1.8 -1.8,-6.6 m 4.2,4.05 -4.65,4.8 m -1.8,-6.6 -2.4,-2.25 m 8.85,8.85 -2.4,-2.25 m -0.3,-3.3 2.55,0 m 0,-0.75 2.55,0.75 -2.55,0.6 0,-1.35 m -2.55,-0.9 2.55,0 m 0,-0.75 2.55,0.6 -2.55,0.6 0,-1.2 m 0.15,105.15 -2.4,-2.4 m 2.4,-2.4 -4.65,4.8 m -4.2,-4.2 6.45,1.8 m -1.8,-6.45 -4.65,4.65 m 6.45,1.8 -1.8,-6.45 m -2.25,2.4 -2.4,-2.4 m 11.55,1.95 -2.7,0 0.15,0 m -0.15,0.75 -2.4,-0.75 2.4,-0.6 0,1.35 m 2.7,1.05 -2.7,0 0.15,0"
       style="fill:none;stroke:#000000;stroke-width:0.14999999;stroke-linecap:round;stroke-linejoin:round;stroke-miterlimit:10;stroke-opacity:1;stroke-dasharray:none"
       id="path488" />
    <path
       inkscape:connector-curvature="0"
       d="m 524.84286,543.65713 -2.4,-0.75 2.4,-0.6 0,1.35 m -327.45,-13.05 97.2,0 0,-73.8 -97.2,0 0,73.8 z m 70.35,-36.9 -0.45,-6.6 -1.95,-6.3 -3.15,-5.85 -4.2,-5.1 -5.1,-4.05 -5.85,-3.15 -6.15,-1.95 -6.6,-0.6 -6.45,0.6 -6.3,1.95 -5.85,3.15 -5.1,4.05 -4.2,5.1 -3,5.85 -1.95,6.3 -0.6,6.6 0.6,6.45 1.95,6.3 3,5.85 4.2,5.1 5.1,4.2 5.85,3 6.3,1.8 6.45,0.75 6.6,-0.75 6.15,-1.8 5.85,-3 5.1,-4.2 4.2,-5.1 3.15,-5.85 1.95,-6.3 0.45,-6.45 m -14.25,-19.35 -1.2,-0.6 -1.95,0.3 -2.4,0.75 -3,1.5 -3.3,2.25 -3.6,2.7 -3.75,3.15 -3.75,3.6 -3.6,3.6 -3.45,3.75 -2.85,3.75 -2.4,3.6 -1.95,3 -1.2,2.85 -0.45,2.1 0.15,1.65 0.9,0.75 1.65,0.3 2.1,-0.45 2.7,-1.35 3.15,-1.8 3.6,-2.55 3.6,-2.85 3.9,-3.3 3.6,-3.6 3.45,-3.75 3.15,-3.75 2.7,-3.6 2.1,-3.3 1.65,-3 0.9,-2.4 0.15,-1.95 -0.6,-1.35"
       style="fill:none;stroke:#000000;stroke-width:0.14999999;stroke-linecap:round;stroke-linejoin:round;stroke-miterlimit:10;stroke-opacity:1;stroke-dasharray:none"
       id="path494" />
    <path
       inkscape:connector-curvature="0"
       d="m 558.29286,548.90713 7.65,0 m -7.65,-13.35 7.65,0 m -36.9,6.75 26.4,6.3 m 0,-12.9 -26.4,6.6 m 34.05,-90.9 -34.05,-6.3 m 34.05,-6.75 -34.05,6.75 m 27.9,113.1 1.35,-7.95 0.3,-7.95 -0.3,-8.1 -1.35,-7.95 -1.35,7.95 -0.3,8.1 0.3,7.95 1.35,7.95 m 1.35,-9.3 -2.85,-0.3 0.15,0 m 2.7,-13.2 -2.85,0.3 0.15,0 m 10.35,-84 -2.85,-0.3 m 2.85,-13.2 -2.85,0.15 m 1.5,22.5 1.2,-7.95 0.45,-7.8 -0.45,-8.1 -1.2,-7.8 -1.35,7.8 -0.45,8.1 0.45,7.8 1.35,7.95 m 1.35,-9.15 11.4,0 m -11.4,-13.5 11.4,0 m -3,107.4 0,6.75 -8.4,-3.45 8.4,-3.3 m 0,-13.5 0,6.75 -8.4,-3.3 8.4,-3.45 m 3,-90.45 0,-6.6 8.25,3.3 -8.25,3.3 m 0,13.5 0,-6.75 8.25,3.3 -8.25,3.45 m 49.65,-3.45 0,37.8 m -13.35,-51.3 0,51.3 m 23.25,42 -3,-2.85 -27.3,27.15 3,3 27.3,-27.3 m 0,-75.75 -3,3 -27.3,-27.3 3,-3 27.3,27.3 m -23.25,42.15 0,51 m 13.35,-51 0,37.5 m -52.65,13.5 4.95,0 m -4.95,-13.35 5.25,0 m 6,-83.85 3.3,0 m -3.3,-13.5 1.5,0"
       style="fill:none;stroke:#000000;stroke-width:0.14999999;stroke-linecap:round;stroke-linejoin:round;stroke-miterlimit:10;stroke-opacity:1;stroke-dasharray:none"
       id="path498" />
    <text
       style="font-size:15px"
       y="414.80725"
       x="417.59286"
       id="text500">
      <tspan
         style="font-size:6.75px;font-variant:normal;font-weight:normal;writing-mode:lr-tb;fill:#000000;fill-opacity:1;fill-rule:nonzero;stroke:none;font-family:Arial;-inkscape-font-specification:Arial"
         x="412.94278"
         y="423.0571"
         id="tspan504" />
    </text>
    <text
       style="font-size:15px"
       y="414.80725"
       x="417.59286"
       id="text4983">
      <tspan
         style="font-size:6.75px;font-variant:normal;font-weight:normal;writing-mode:lr-tb;fill:#000000;fill-opacity:1;fill-rule:nonzero;stroke:none;font-family:Arial;-inkscape-font-specification:Arial"
         x="412.94278"
         y="423.0571"
         id="tspan4985">f</tspan>
    </text>
    <text
       style="font-size:15px"
       y="424.40701"
       x="414.89285"
       id="text506">
      <tspan
         style="font-size:4.5px;font-variant:normal;font-weight:normal;writing-mode:lr-tb;fill:#000000;fill-opacity:1;fill-rule:nonzero;stroke:none;font-family:Arial;-inkscape-font-specification:Arial"
         x="414.89285"
         y="424.40701"
         id="tspan508">1</tspan>
    </text>
    <text
       style="font-size:15px"
       y="423.05725"
       x="417.29288"
       id="text510">
      <tspan
         style="font-size:6.75px;font-variant:normal;font-weight:normal;writing-mode:lr-tb;fill:#000000;fill-opacity:1;fill-rule:nonzero;stroke:none;font-family:Arial;-inkscape-font-specification:Arial"
         x="417.29288 419.54263"
         y="423.05725"
         sodipodi:role="line"
         id="tspan512">-f</tspan>
    </text>
    <text
       style="font-size:15px"
       y="424.40701"
       x="421.49286"
       id="text514">
      <tspan
         style="font-size:4.5px;font-variant:normal;font-weight:normal;writing-mode:lr-tb;fill:#000000;fill-opacity:1;fill-rule:nonzero;stroke:none;font-family:Arial;-inkscape-font-specification:Arial"
         x="421.49286"
         y="424.40701"
         id="tspan516">2</tspan>
    </text>
    <text
       style="font-size:15px"
       y="423.05725"
       x="423.89285"
       id="text518">
      <tspan
         style="font-size:6.75px;font-variant:normal;font-weight:normal;writing-mode:lr-tb;fill:#000000;fill-opacity:1;fill-rule:nonzero;stroke:none;font-family:Arial;-inkscape-font-specification:Arial"
         x="423.89285 427.77615 431.67493 435.42389 438.87381 443.6886"
         y="423.05725"
         sodipodi:role="line"
         id="tspan520">=50kHz</tspan>
      <tspan
         style="font-size:6.75px;font-variant:normal;font-weight:normal;writing-mode:lr-tb;fill:#000000;fill-opacity:1;fill-rule:nonzero;stroke:none;font-family:Arial;-inkscape-font-specification:Arial"
         x="412.94302"
         sodipodi:role="line"
         id="tspan522"
         y="0">z</tspan>
      <tspan
         style="font-size:6.75px;font-variant:normal;font-weight:normal;writing-mode:lr-tb;fill:#000000;fill-opacity:1;fill-rule:nonzero;stroke:none;font-family:Arial;-inkscape-font-specification:Arial"
         x="412.94302"
         y="575.60724"
         id="tspan524">f</tspan>
    </text>
    <text
       style="font-size:15px"
       y="576.95697"
       x="414.89285"
       id="text526">
      <tspan
         style="font-size:4.5px;font-variant:normal;font-weight:normal;writing-mode:lr-tb;fill:#000000;fill-opacity:1;fill-rule:nonzero;stroke:none;font-family:Arial;-inkscape-font-specification:Arial"
         x="414.89285"
         y="576.95697"
         id="tspan528">1</tspan>
    </text>
    <text
       style="font-size:15px"
       y="575.60724"
       x="417.29288"
       id="text530">
      <tspan
         style="font-size:6.75px;font-variant:normal;font-weight:normal;writing-mode:lr-tb;fill:#000000;fill-opacity:1;fill-rule:nonzero;stroke:none;font-family:Arial;-inkscape-font-specification:Arial"
         x="417.29288 419.54263"
         y="575.60724"
         sodipodi:role="line"
         id="tspan532">-f</tspan>
    </text>
    <text
       style="font-size:15px"
       y="576.95697"
       x="421.49286"
       id="text534">
      <tspan
         style="font-size:4.5px;font-variant:normal;font-weight:normal;writing-mode:lr-tb;fill:#000000;fill-opacity:1;fill-rule:nonzero;stroke:none;font-family:Arial;-inkscape-font-specification:Arial"
         x="421.49286"
         y="576.95697"
         id="tspan536">2</tspan>
    </text>
    <text
       style="font-size:15px"
       y="575.60724"
       x="423.89285"
       id="text538">
      <tspan
         style="font-size:6.75px;font-variant:normal;font-weight:normal;writing-mode:lr-tb;fill:#000000;fill-opacity:1;fill-rule:nonzero;stroke:none;font-family:Arial;-inkscape-font-specification:Arial"
         x="423.89285 427.77615 431.67493 435.42389 438.87381 443.6886"
         y="575.60724"
         sodipodi:role="line"
         id="tspan540">=50kHz</tspan>
      <tspan
         style="font-size:6.75px;font-variant:normal;font-weight:normal;writing-mode:lr-tb;fill:#000000;fill-opacity:1;fill-rule:nonzero;stroke:none;font-family:Arial;-inkscape-font-specification:Arial"
         x="423.89285"
         sodipodi:role="line"
         id="tspan542"
         y="0" />
      <tspan
         style="font-size:6.75px;font-variant:normal;font-weight:normal;writing-mode:lr-tb;fill:#000000;fill-opacity:1;fill-rule:nonzero;stroke:none;font-family:Arial;-inkscape-font-specification:Arial"
         x="465.29263 469.04227 472.94107 476.6907 480.58951 482.83386 486.5835 488.3844 492.2832"
         y="470.00754"
         sodipodi:role="line"
         id="tspan544">generator</tspan>
      <tspan
         style="font-size:6.75px;font-variant:normal;font-weight:normal;writing-mode:lr-tb;fill:#000000;fill-opacity:1;fill-rule:nonzero;stroke:none;font-family:Arial;-inkscape-font-specification:Arial"
         x="459.59296"
         y="478.40723"
         id="tspan546">f</tspan>
    </text>
    <text
       style="font-size:15px"
       y="479.75699"
       x="461.54288"
       id="text548">
      <tspan
         style="font-size:4.5px;font-variant:normal;font-weight:normal;writing-mode:lr-tb;fill:#000000;fill-opacity:1;fill-rule:nonzero;stroke:none;font-family:Arial;-inkscape-font-specification:Arial"
         x="461.54288"
         y="479.75699"
         id="tspan550">1</tspan>
    </text>
    <text
       style="font-size:15px"
       y="478.40726"
       x="463.94287"
       id="text552">
      <tspan
         style="font-size:6.75px;font-variant:normal;font-weight:normal;writing-mode:lr-tb;fill:#000000;fill-opacity:1;fill-rule:nonzero;stroke:none;font-family:Arial;-inkscape-font-specification:Arial"
         x="463.94287 467.84302 471.74182 475.49078"
         y="478.40726"
         sodipodi:role="line"
         id="tspan554">=50.</tspan>
    </text>
    <text
       style="font-size:15px"
       y="478.40726"
       x="477.44287"
       id="text556">
      <tspan
         style="font-size:6.75px;font-variant:normal;font-weight:normal;writing-mode:lr-tb;fill:#000000;fill-opacity:1;fill-rule:nonzero;stroke:none;font-family:Arial;-inkscape-font-specification:Arial"
         x="477.44287"
         y="478.40726"
         id="tspan558">1</tspan>
    </text>
    <text
       style="font-size:15px"
       y="478.40726"
       x="481.19318"
       id="text560">
      <tspan
         style="font-size:6.75px;font-variant:normal;font-weight:normal;writing-mode:lr-tb;fill:#000000;fill-opacity:1;fill-rule:nonzero;stroke:none;font-family:Arial;-inkscape-font-specification:Arial"
         x="481.19318 485.09198 490.64182 495.4404"
         y="478.40726"
         sodipodi:role="line"
         id="tspan562">0MHz</tspan>
      <tspan
         style="font-size:6.75px;font-variant:normal;font-weight:normal;writing-mode:lr-tb;fill:#000000;fill-opacity:1;fill-rule:nonzero;stroke:none;font-family:Arial;-inkscape-font-specification:Arial"
         x="367.49347"
         y="500.1571"
         id="tspan564">f</tspan>
    </text>
    <text
       style="font-size:15px"
       y="501.50699"
       x="369.44287"
       id="text566">
      <tspan
         style="font-size:4.5px;font-variant:normal;font-weight:normal;writing-mode:lr-tb;fill:#000000;fill-opacity:1;fill-rule:nonzero;stroke:none;font-family:Arial;-inkscape-font-specification:Arial"
         x="369.44287"
         y="501.50699"
         id="tspan568">2</tspan>
    </text>
    <text
       style="font-size:15px"
       y="500.15726"
       x="371.84286"
       id="text570">
      <tspan
         style="font-size:6.75px;font-variant:normal;font-weight:normal;writing-mode:lr-tb;fill:#000000;fill-opacity:1;fill-rule:nonzero;stroke:none;font-family:Arial;-inkscape-font-specification:Arial"
         x="371.84286 375.74301 379.64182 383.39078 385.34219 389.09113 392.98993 398.53979 403.33835"
         y="500.15726"
         sodipodi:role="line"
         id="tspan572">=50.05MHz</tspan>
      <tspan
         style="font-size:6.75px;font-variant:normal;font-weight:normal;writing-mode:lr-tb;fill:#000000;fill-opacity:1;fill-rule:nonzero;stroke:none;font-family:Arial;-inkscape-font-specification:Arial"
         x="373.19287 376.94247 380.84128 384.59091 388.48972 390.7341 394.4837 396.28461 400.18341"
         y="491.75754"
         sodipodi:role="line"
         id="tspan574">generator</tspan>
    </text>
    <text
       style="font-size:15px"
       y="554.60712"
       x="382.49286"
       id="text576">
      <tspan
         style="font-size:5.69999981px;font-variant:normal;font-weight:normal;writing-mode:lr-tb;fill:#000000;fill-opacity:1;fill-rule:nonzero;stroke:none;font-family:Symbol;-inkscape-font-specification:Symbol"
         x="382.49286"
         y="554.60712"
         id="tspan578">ϕ</tspan>
    </text>
    <path
       inkscape:connector-curvature="0"
       d="m 338.09286,441.65713 0,-51.9 0.15,0 m 76.95,135.75 33.45,0 0,33.45 -33.45,0 0,-33.45 z m 33.45,33.45 -33.45,-33.45 m 0,-63.75 33.45,0 0,-33.6 -33.45,0 0,33.6 z m 33.45,-33.6 -33.45,33.6 m 0,48.6 33.45,0 0,-33.45 -33.45,0 0,33.45 z m 62.7,-73.65 5.1,0 0,16.65 -5.1,0 0,-16.65 0.15,0 m -1.65,1.5 0,13.5 m 8.4,-13.5 0,13.5 m -8.4,-6.6 -5.1,0 m 13.5,0 4.95,0 m -123,80.4 33.45,0 0,33.45 -33.45,0 0,-33.45 z m 97.05,0 33.45,0 0,33.45 -33.45,0 0,-33.45 z m 0,-63.75 33.45,0 0,-33.6 -33.45,0 0,33.6 z m -27.75,25.05 0,13.5 0.15,0 m -8.4,-13.5 0,13.5 m 1.65,-15.15 4.95,0 0,16.8 -4.95,0 0,-16.8 z m 6.6,8.55 5.25,0 m -13.5,0 -5.1,0 m 62.85,43.5 0,11.7 -13.5,-6.6 13.5,-5.1 m -110.4,13.35 8.25,-8.25 m -1.8,-1.8 10.05,-6.6 -6.45,10.05 -3.6,-3.45 m 130.8,1.8 -8.4,0 m 0,1.5 -6.75,-1.5 6.75,-1.8 0,3.3 m -40.2,-1.5 -8.4,0 m 0,1.5 -6.75,-1.5 6.75,-1.8 0,3.3 m -40.2,-1.5 -8.4,0 m 0,1.5 -6.6,-1.5 6.6,-1.8 0,3.3 m -40.05,-1.5 -18.6,0 m 0,1.5 -6.6,-1.5 6.6,-1.8 0,3.3 m 83.85,-33.45 0,8.4 m 1.65,0 -1.65,6.75 -1.65,-6.75 3.3,0 m -1.65,-41.85 0,-8.4 m -1.65,0 1.65,-6.75 1.65,6.75 -3.3,0 m -15.15,-23.4 -67.05,0 m 0,1.65 -6.6,-1.65 6.6,-1.8 0,3.45 m 115.65,-1.65 -8.4,0 m 0,1.65 -6.75,-1.65 6.75,-1.8 0,3.45 m 57,-1.65 -8.4,0 m 0,1.65 -6.75,-1.65 6.75,-1.8 0,3.45"
       style="fill:none;stroke:#000000;stroke-width:0.14999999;stroke-linecap:round;stroke-linejoin:round;stroke-miterlimit:10;stroke-opacity:1;stroke-dasharray:none"
       id="path580" />
    <path
       inkscape:connector-curvature="0"
       d="m 341.54286,542.30713 -0.45,-1.65 -1.2,-1.2 -1.8,-0.6 -1.65,0.6 -1.2,1.2 -0.45,1.65 0.45,1.5 1.2,1.35 1.65,0.45 1.8,-0.45 1.2,-1.35 0.45,-1.5 m 0,-97.2 -0.45,-1.65 -1.2,-1.2 -1.8,-0.6 -1.65,0.6 -1.2,1.2 -0.45,1.65 0.45,1.65 1.2,1.2 1.65,0.45 1.8,-0.45 1.2,-1.2 0.45,-1.65 m 139.05,-16.95 0,-18.3 m -1.65,0 1.65,-6.75 1.65,6.75 -3.3,0 m -15.15,-6.75 33.45,0 0,-33.45 -33.45,0 0,33.45 z m -122.25,-16.65 -0.15,-1.05 -0.3,-0.75 -0.6,-0.75 -0.6,-0.45 -0.9,-0.3 -0.9,-0.15 -0.75,0.15 -0.9,0.3 -0.6,0.45 -0.6,0.75 -0.3,0.75 -0.15,1.05 0.15,0.75 0.3,0.9 1.2,1.2 0.9,0.3 0.75,0.15 0.9,-0.15 0.9,-0.3 1.2,-1.2 0.3,-0.9 0.15,-0.75 m 122.25,0 -115.65,0"
       style="fill:none;stroke:#000000;stroke-width:0.14999999;stroke-linecap:round;stroke-linejoin:round;stroke-miterlimit:10;stroke-opacity:1;stroke-dasharray:none"
       id="path582" />
    <text
       style="font-size:15px"
       y="436.70688"
       x="421.34286"
       id="text606">
      <tspan
         style="font-size:5.69999981px;font-variant:normal;font-weight:normal;writing-mode:lr-tb;fill:#000000;fill-opacity:1;fill-rule:nonzero;stroke:none;font-family:Arial;-inkscape-font-specification:Arial"
         x="421.34286"
         y="436.70688"
         id="tspan608">f</tspan>
    </text>
    <text
       style="font-size:15px"
       y="437.30698"
       x="422.99286"
       id="text610">
      <tspan
         style="font-size:3.45000005px;font-variant:normal;font-weight:normal;writing-mode:lr-tb;fill:#000000;fill-opacity:1;fill-rule:nonzero;stroke:none;font-family:Arial;-inkscape-font-specification:Arial"
         x="422.99286"
         y="437.30698"
         id="tspan612">1</tspan>
    </text>
    <text
       style="font-size:15px"
       y="436.70688"
       x="424.94287"
       id="text614">
      <tspan
         style="font-size:5.69999981px;font-variant:normal;font-weight:normal;writing-mode:lr-tb;fill:#000000;fill-opacity:1;fill-rule:nonzero;stroke:none;font-family:Arial;-inkscape-font-specification:Arial"
         x="424.94287 426.74292"
         y="436.70688"
         sodipodi:role="line"
         id="tspan616">-f</tspan>
    </text>
    <text
       style="font-size:15px"
       y="437.30698"
       x="428.39285"
       id="text618">
      <tspan
         style="font-size:3.45000005px;font-variant:normal;font-weight:normal;writing-mode:lr-tb;fill:#000000;fill-opacity:1;fill-rule:nonzero;stroke:none;font-family:Arial;-inkscape-font-specification:Arial"
         x="428.39285"
         y="437.30698"
         id="tspan620">2</tspan>
    </text>
    <text
       style="font-size:15px"
       y="446.75687"
       x="441.29288"
       id="text622">
      <tspan
         style="font-size:5.69999981px;font-variant:normal;font-weight:normal;writing-mode:lr-tb;fill:#000000;fill-opacity:1;fill-rule:nonzero;stroke:none;font-family:Arial;-inkscape-font-specification:Arial"
         x="441.29288"
         y="446.75687"
         id="tspan624">f</tspan>
    </text>
    <text
       style="font-size:15px"
       y="447.35699"
       x="442.94287"
       id="text626">
      <tspan
         style="font-size:3.45000005px;font-variant:normal;font-weight:normal;writing-mode:lr-tb;fill:#000000;fill-opacity:1;fill-rule:nonzero;stroke:none;font-family:Arial;-inkscape-font-specification:Arial"
         x="442.94287"
         y="447.35699"
         id="tspan628">1</tspan>
    </text>
    <text
       style="font-size:15px"
       y="458.45688"
       x="429.59286"
       id="text630">
      <tspan
         style="font-size:5.69999981px;font-variant:normal;font-weight:normal;writing-mode:lr-tb;fill:#000000;fill-opacity:1;fill-rule:nonzero;stroke:none;font-family:Arial;-inkscape-font-specification:Arial"
         x="429.59286"
         y="458.45688"
         id="tspan632">f</tspan>
    </text>
    <text
       style="font-size:15px"
       y="459.05701"
       x="431.24286"
       id="text634">
      <tspan
         style="font-size:3.45000005px;font-variant:normal;font-weight:normal;writing-mode:lr-tb;fill:#000000;fill-opacity:1;fill-rule:nonzero;stroke:none;font-family:Arial;-inkscape-font-specification:Arial"
         x="431.24286"
         y="459.05701"
         id="tspan636">2</tspan>
    </text>
    <text
       style="font-size:15px"
       y="378.05688"
       x="467.84286"
       id="text638">
      <tspan
         style="font-size:5.69999981px;font-variant:normal;font-weight:normal;writing-mode:lr-tb;fill:#000000;fill-opacity:1;fill-rule:nonzero;stroke:none;font-family:Arial;-inkscape-font-specification:Arial"
         x="467.84286"
         y="378.05688"
         id="tspan640">f</tspan>
    </text>
    <text
       style="font-size:15px"
       y="378.65698"
       x="469.49286"
       id="text642">
      <tspan
         style="font-size:3.45000005px;font-variant:normal;font-weight:normal;writing-mode:lr-tb;fill:#000000;fill-opacity:1;fill-rule:nonzero;stroke:none;font-family:Arial;-inkscape-font-specification:Arial"
         x="469.49286"
         y="378.65698"
         id="tspan644">1</tspan>
    </text>
    <text
       style="font-size:15px"
       y="378.05688"
       x="471.44287"
       id="text646">
      <tspan
         style="font-size:5.69999981px;font-variant:normal;font-weight:normal;writing-mode:lr-tb;fill:#000000;fill-opacity:1;fill-rule:nonzero;stroke:none;font-family:Arial;-inkscape-font-specification:Arial"
         x="471.44287"
         y="378.05688"
         id="tspan648">/</tspan>
    </text>
    <text
       style="font-size:15px"
       y="378.05688"
       x="473.09302"
       id="text650">
      <tspan
         style="font-size:5.69999981px;font-variant:normal;font-weight:normal;writing-mode:lr-tb;fill:#000000;fill-opacity:1;fill-rule:nonzero;stroke:none;font-family:Arial;-inkscape-font-specification:Arial"
         x="473.09302"
         y="378.05688"
         id="tspan652">1</tspan>
    </text>
    <text
       style="font-size:15px"
       y="378.05688"
       x="476.24283"
       id="text654">
      <tspan
         style="font-size:5.69999981px;font-variant:normal;font-weight:normal;writing-mode:lr-tb;fill:#000000;fill-opacity:1;fill-rule:nonzero;stroke:none;font-family:Arial;-inkscape-font-specification:Arial"
         x="476.24283 479.39209 482.39142"
         y="378.05688"
         sodipodi:role="line"
         id="tspan656">000</tspan>
      <tspan
         style="font-size:5.69999981px;font-variant:normal;font-weight:normal;writing-mode:lr-tb;fill:#000000;fill-opacity:1;fill-rule:nonzero;stroke:none;font-family:Arial;-inkscape-font-specification:Arial"
         x="478.19281"
         y="399.80695"
         id="tspan658">f</tspan>
    </text>
    <text
       style="font-size:15px"
       y="400.40701"
       x="479.84286"
       id="text660">
      <tspan
         style="font-size:3.45000005px;font-variant:normal;font-weight:normal;writing-mode:lr-tb;fill:#000000;fill-opacity:1;fill-rule:nonzero;stroke:none;font-family:Arial;-inkscape-font-specification:Arial"
         x="479.84286"
         y="400.40701"
         id="tspan662">1</tspan>
    </text>
    <text
       style="font-size:15px"
       y="532.2569"
       x="429.59286"
       id="text664">
      <tspan
         style="font-size:5.69999981px;font-variant:normal;font-weight:normal;writing-mode:lr-tb;fill:#000000;fill-opacity:1;fill-rule:nonzero;stroke:none;font-family:Arial;-inkscape-font-specification:Arial"
         x="429.59286"
         y="532.2569"
         id="tspan666">f</tspan>
    </text>
    <text
       style="font-size:15px"
       y="532.85699"
       x="431.24286"
       id="text668">
      <tspan
         style="font-size:3.45000005px;font-variant:normal;font-weight:normal;writing-mode:lr-tb;fill:#000000;fill-opacity:1;fill-rule:nonzero;stroke:none;font-family:Arial;-inkscape-font-specification:Arial"
         x="431.24286"
         y="532.85699"
         id="tspan670">2</tspan>
    </text>
    <text
       style="font-size:15px"
       y="543.95703"
       x="441.29288"
       id="text672">
      <tspan
         style="font-size:5.69999981px;font-variant:normal;font-weight:normal;writing-mode:lr-tb;fill:#000000;fill-opacity:1;fill-rule:nonzero;stroke:none;font-family:Arial;-inkscape-font-specification:Arial"
         x="441.29288"
         y="543.95703"
         id="tspan674">f</tspan>
    </text>
    <text
       style="font-size:15px"
       y="544.55701"
       x="442.94287"
       id="text676">
      <tspan
         style="font-size:3.45000005px;font-variant:normal;font-weight:normal;writing-mode:lr-tb;fill:#000000;fill-opacity:1;fill-rule:nonzero;stroke:none;font-family:Arial;-inkscape-font-specification:Arial"
         x="442.94287"
         y="544.55701"
         id="tspan678">1</tspan>
    </text>
    <text
       style="font-size:15px"
       y="554.0069"
       x="421.34286"
       id="text680">
      <tspan
         style="font-size:5.69999981px;font-variant:normal;font-weight:normal;writing-mode:lr-tb;fill:#000000;fill-opacity:1;fill-rule:nonzero;stroke:none;font-family:Arial;-inkscape-font-specification:Arial"
         x="421.34286"
         y="554.0069"
         id="tspan682">f</tspan>
    </text>
    <text
       style="font-size:15px"
       y="554.60699"
       x="422.99286"
       id="text684">
      <tspan
         style="font-size:3.45000005px;font-variant:normal;font-weight:normal;writing-mode:lr-tb;fill:#000000;fill-opacity:1;fill-rule:nonzero;stroke:none;font-family:Arial;-inkscape-font-specification:Arial"
         x="422.99286"
         y="554.60699"
         id="tspan686">1</tspan>
    </text>
    <text
       style="font-size:15px"
       y="554.0069"
       x="424.94287"
       id="text688">
      <tspan
         style="font-size:5.69999981px;font-variant:normal;font-weight:normal;writing-mode:lr-tb;fill:#000000;fill-opacity:1;fill-rule:nonzero;stroke:none;font-family:Arial;-inkscape-font-specification:Arial"
         x="424.94287 426.74292"
         y="554.0069"
         sodipodi:role="line"
         id="tspan690">-f</tspan>
    </text>
    <text
       style="font-size:15px"
       y="554.60699"
       x="428.39285"
       id="text692">
      <tspan
         style="font-size:3.45000005px;font-variant:normal;font-weight:normal;writing-mode:lr-tb;fill:#000000;fill-opacity:1;fill-rule:nonzero;stroke:none;font-family:Arial;-inkscape-font-specification:Arial"
         x="428.39285"
         y="554.60699"
         id="tspan694">2</tspan>
    </text>
    <text
       style="font-size:15px"
       y="438.20728"
       x="340.79288"
       id="text696">
      <tspan
         style="font-size:6.75px;font-variant:normal;font-weight:normal;writing-mode:lr-tb;fill:#000000;fill-opacity:1;fill-rule:nonzero;stroke:none;font-family:Arial;-inkscape-font-specification:Arial"
         x="340.79288"
         y="438.20728"
         id="tspan698">X</tspan>
      <tspan
         style="font-size:6.75px;font-variant:normal;font-weight:normal;writing-mode:lr-tb;fill:#000000;fill-opacity:1;fill-rule:nonzero;stroke:none;font-family:Arial;-inkscape-font-specification:Arial"
         x="340.79288"
         y="535.25739"
         id="tspan700">Y</tspan>
      <tspan
         style="font-size:6.75px;font-variant:normal;font-weight:normal;writing-mode:lr-tb;fill:#000000;fill-opacity:1;fill-rule:nonzero;stroke:none;font-family:Arial;-inkscape-font-specification:Arial"
         x="340.04294"
         y="379.55719"
         id="tspan702">f</tspan>
    </text>
    <text
       style="font-size:15px"
       y="380.90701"
       x="341.84286"
       id="text704">
      <tspan
         style="font-size:4.5px;font-variant:normal;font-weight:normal;writing-mode:lr-tb;fill:#000000;fill-opacity:1;fill-rule:nonzero;stroke:none;font-family:Arial;-inkscape-font-specification:Arial"
         x="341.84286"
         y="380.90701"
         id="tspan706">1</tspan>
    </text>
    <text
       style="font-size:15px"
       y="379.55725"
       x="344.39285"
       id="text708">
      <tspan
         style="font-size:6.75px;font-variant:normal;font-weight:normal;writing-mode:lr-tb;fill:#000000;fill-opacity:1;fill-rule:nonzero;stroke:none;font-family:Arial;-inkscape-font-specification:Arial"
         x="344.39285"
         y="379.55725"
         id="tspan710">/</tspan>
    </text>
    <text
       style="font-size:15px"
       y="379.55725"
       x="346.34293"
       id="text712">
      <tspan
         style="font-size:6.75px;font-variant:normal;font-weight:normal;writing-mode:lr-tb;fill:#000000;fill-opacity:1;fill-rule:nonzero;stroke:none;font-family:Arial;-inkscape-font-specification:Arial"
         x="346.34293"
         y="379.55725"
         id="tspan714">1</tspan>
    </text>
    <text
       style="font-size:15px"
       y="379.55725"
       x="350.09323"
       id="text716">
      <tspan
         style="font-size:6.75px;font-variant:normal;font-weight:normal;writing-mode:lr-tb;fill:#000000;fill-opacity:1;fill-rule:nonzero;stroke:none;font-family:Arial;-inkscape-font-specification:Arial"
         x="350.09323 353.84219 357.741"
         y="379.55725"
         sodipodi:role="line"
         id="tspan718">000</tspan>
      <tspan
         style="font-size:6.75px;font-variant:normal;font-weight:normal;writing-mode:lr-tb;fill:#000000;fill-opacity:1;fill-rule:nonzero;stroke:none;font-family:Arial;-inkscape-font-specification:Arial"
         x="287.24332"
         y="468.35754"
         id="tspan720">X</tspan>
      <tspan
         style="font-size:6.75px;font-variant:normal;font-weight:normal;writing-mode:lr-tb;fill:#000000;fill-opacity:1;fill-rule:nonzero;stroke:none;font-family:Arial;-inkscape-font-specification:Arial"
         x="287.24332"
         y="505.10724"
         id="tspan722">Y</tspan>
    </text>
    <path
       inkscape:connector-curvature="0"
       d="m 348.14286,388.10713 -6.6,-1.65 6.6,-1.8 0,3.45 m 149.1,-18.45 -33.45,33.45 m -125.7,-20.1 0,-49.35 192.6,0 0,104.55 m -192.6,100.65 0,-90.45 0.15,0 m -137.4,45.3 66.9,0 m -33.45,33.45 0,-67.05 0.15,0 m 53.4,15 -0.3,-1.65 -1.2,-1.2 -1.8,-0.45 -1.65,0.45 -1.2,1.2 -0.45,1.65 0.45,1.8 1.2,1.2 1.65,0.45 1.8,-0.45 1.2,-1.2 0.3,-1.8 m 0,36.9 -0.3,-1.65 -1.2,-1.2 -1.8,-0.45 -1.65,0.45 -1.2,1.2 -0.45,1.65 0.45,1.8 1.2,1.2 1.65,0.45 1.8,-0.45 1.2,-1.2 0.3,-1.8 m 0,-36.9 26.85,0 0,-30 20.1,0 m -46.95,66.9 26.85,0 0,30.3 20.1,0 m -127.35,-46.95 0,-3.45 m 6.9,3.45 0,-3.45 m 6.6,3.45 0,-3.45 m 6.75,3.45 0,-3.45 m 6.6,3.45 0,-3.45 0.15,0 m 6.6,3.45 0,-3.45 m 6.75,3.45 0,-3.45 m 6.6,3.45 0,-3.45 m 6.75,3.45 0,-3.45 0.15,0 m -25.2,28.5 -3.45,0 m 3.45,-6.6 -3.45,0 m 3.45,-6.75 -3.45,0 m 3.45,-6.75 -3.45,0 m 3.45,-13.35 -3.45,0 m 3.45,-6.75 -3.45,0 m 3.45,-6.75 -3.45,0 m 3.45,-6.6 -3.45,0 m 3.45,26.85 -3.45,0 m -6.6,-90.6 33.45,0 0,-33.45 -33.45,0 0,33.45 z m 30,-16.65 78.75,0 m 272.25,45.3 0.3,-1.05 m 1.35,2.85 1.2,-4.65 m 0.6,6.3 1.2,-4.65 m 0.45,6.3 1.35,-4.5 m 0.45,6.3 1.2,-4.65 m 0.45,6.3 1.2,-4.65 m 0.45,6.45 1.2,-4.65 m 0.6,6.3 1.2,-4.65 m 0.45,6.45 1.2,-4.65 m 0.6,6.3 1.2,-4.65 m 0.45,6.3 1.35,-4.65 m 0.3,6.45 1.2,-4.8 m 0.6,6.45 1.2,-4.65 m 0.45,6.45 1.2,-4.8 m 0.6,6.45 1.2,-4.65 m 0.45,6.3 1.2,-4.65"
       style="fill:none;stroke:#000000;stroke-width:0.14999999;stroke-linecap:round;stroke-linejoin:round;stroke-miterlimit:10;stroke-opacity:1;stroke-dasharray:none"
       id="path724" />
    <path
       inkscape:connector-curvature="0"
       d="m 608.09286,557.30713 1.05,-4.05 0.15,0 m 25.35,-95.55 1.05,-3.3 m -25.8,104.1 2.25,-8.1 m 0.75,5.1 2.25,-8.1 m 0.75,5.1 2.1,-8.1 0.15,0 m 0.6,5.25 2.4,-8.25 m 0.6,5.25 2.25,-8.25 m 0.75,5.25 2.25,-8.1 m 0.75,5.25 2.1,-8.1 0.15,0 m 0.6,5.1 2.25,-8.1 m 0.75,5.1 1.35,-5.1 m 1.65,2.25 0.15,-0.45 m -26.55,-42 6.6,0 -3.15,8.55 -3.45,-8.55 m 13.35,0 6.75,0 -3.3,8.55 -3.45,-8.55 0.15,0 m -39.3,15.9 -2.7,13.05 -1.8,13.35 -0.6,13.35 0.75,13.35 1.65,13.2 m 2.7,-66.3 3,-13.5 1.65,-13.8 0.45,-13.65 -0.6,-13.8 -2.1,-13.65 -3.15,-13.5 m 11.7,81.9 -2.85,13.05 -1.65,13.35 -0.6,13.35 0.6,13.35 1.8,13.2 m 2.7,-66.3 3,-13.5 1.65,-13.8 0.6,-13.65 -0.9,-13.8 -1.95,-13.65 -3.15,-13.5 0.15,0 m 3.15,14.85 15.75,0 m -13.8,13.5 27.15,0 m -36.45,83.7 36.45,0 m -36.6,13.5 23.25,0"
       style="fill:none;stroke:#000000;stroke-width:0.14999999;stroke-linecap:round;stroke-linejoin:round;stroke-miterlimit:10;stroke-opacity:1;stroke-dasharray:none"
       id="path726" />
    <text
       style="font-size:15px"
       y="379.55725"
       x="251.54286"
       id="text760">
      <tspan
         style="font-size:6.75px;font-variant:normal;font-weight:normal;writing-mode:lr-tb;fill:#000000;fill-opacity:1;fill-rule:nonzero;stroke:none;font-family:Arial;-inkscape-font-specification:Arial"
         x="251.54286"
         y="379.55725"
         id="tspan762">f</tspan>
    </text>
    <path
       inkscape:connector-curvature="0"
       d="m 530.69286,451.85713 0,83.7 m -1.65,-97.2 3.3,0 m -3.3,13.8 3.3,0 m -3.3,97.2 3.3,0 m -3.3,-13.8 3.3,0 m -1.65,13.8 0,44.1 -192.6,0 0,-47.85 0.15,0 m -82.2,-159.15 -0.45,-1.65 -1.2,-1.2 -1.65,-0.6 -1.65,0.6 -1.35,1.2 -0.3,1.65 0.3,1.65 1.35,1.2 1.65,0.6 1.65,-0.6 1.2,-1.2 0.45,-1.65"
       style="fill:none;stroke:#000000;stroke-width:0.14999999;stroke-linecap:round;stroke-linejoin:round;stroke-miterlimit:10;stroke-opacity:1;stroke-dasharray:none"
       id="path764" />
    <text
       xml:space="preserve"
       style="font-size:11px;font-style:normal;font-weight:normal;line-height:125%;letter-spacing:0px;word-spacing:0px;fill:#000000;fill-opacity:1;stroke:none;font-family:Times New Roman;-inkscape-font-specification:Times New Roman"
       x="217.14285"
       y="351.64789"
       id="text4916"
       sodipodi:linespacing="125%"><tspan
         sodipodi:role="line"
         id="tspan4918"
         x="217.14285"
         y="351.64789" /></text>
    <text
       xml:space="preserve"
       style="font-size:11px;font-style:normal;font-variant:normal;font-weight:normal;font-stretch:normal;line-height:125%;letter-spacing:0px;word-spacing:0px;fill:#000000;fill-opacity:1;stroke:none;font-family:Arial;-inkscape-font-specification:Arial"
       x="211.42857"
       y="365.21933"
       id="text4920"
       sodipodi:linespacing="125%"><tspan
         sodipodi:role="line"
         id="tspan4922"
         x="211.42857"
         y="365.21933"
         style="font-size:9px">frequency meter</tspan></text>
    <text
       xml:space="preserve"
       style="font-size:11px;font-style:normal;font-variant:normal;font-weight:normal;font-stretch:normal;line-height:125%;letter-spacing:0px;word-spacing:0px;fill:#000000;fill-opacity:1;stroke:none;font-family:Arial;-inkscape-font-specification:Arial"
       x="211.24799"
       y="450.35065"
       id="text4920-5"
       sodipodi:linespacing="125%"><tspan
         sodipodi:role="line"
         id="tspan4922-4"
         x="211.24799"
         y="450.35065"
         style="font-size:9px">oscilloscope</tspan></text>
    <text
       xml:space="preserve"
       style="font-size:11px;font-style:normal;font-variant:normal;font-weight:normal;font-stretch:normal;line-height:125%;letter-spacing:0px;word-spacing:0px;fill:#000000;fill-opacity:1;stroke:none;font-family:Arial;-inkscape-font-specification:Arial"
       x="479.99017"
       y="358.20776"
       id="text4920-50"
       sodipodi:linespacing="125%"><tspan
         sodipodi:role="line"
         id="tspan4922-5"
         x="479.99017"
         y="358.20776"
         style="font-size:7px;text-align:center;text-anchor:middle">frequency</tspan><tspan
         sodipodi:role="line"
         x="479.99017"
         y="366.95776"
         style="font-size:7px;text-align:center;text-anchor:middle"
         id="tspan4966">devider</tspan></text>
    <text
       xml:space="preserve"
       style="font-size:11px;font-style:normal;font-variant:normal;font-weight:normal;font-stretch:normal;line-height:125%;letter-spacing:0px;word-spacing:0px;fill:#000000;fill-opacity:1;stroke:none;font-family:Arial;-inkscape-font-specification:Arial"
       x="420.72855"
       y="415.461"
       id="text4989"
       sodipodi:linespacing="125%"><tspan
         sodipodi:role="line"
         id="tspan4991"
         x="420.72855"
         y="415.461"
         style="font-size:7px">mixer</tspan></text>
    <text
       xml:space="preserve"
       style="font-size:11px;font-style:normal;font-variant:normal;font-weight:normal;font-stretch:normal;line-height:125%;letter-spacing:0px;word-spacing:0px;fill:#000000;fill-opacity:1;stroke:none;font-family:Arial;-inkscape-font-specification:Arial"
       x="382.8461"
       y="567.32574"
       id="text4920-50-6"
       sodipodi:linespacing="125%"><tspan
         sodipodi:role="line"
         x="382.8461"
         y="567.32574"
         style="font-size:7px;text-align:center;text-anchor:middle"
         id="tspan4966-4">phase shift</tspan><tspan
         sodipodi:role="line"
         x="382.8461"
         y="576.07574"
         style="font-size:7px;text-align:center;text-anchor:middle"
         id="tspan5032">setter</tspan></text>
    <text
       xml:space="preserve"
       style="font-size:11px;font-style:normal;font-variant:normal;font-weight:normal;font-stretch:normal;line-height:125%;letter-spacing:0px;word-spacing:0px;fill:#000000;fill-opacity:1;stroke:none;font-family:Arial;-inkscape-font-specification:Arial"
       x="421.25"
       y="568.07648"
       id="text5037"
       sodipodi:linespacing="125%"><tspan
         sodipodi:role="line"
         id="tspan5039"
         x="421.25"
         y="568.07648"
         style="font-size:7px">mixer</tspan></text>
    <text
       xml:space="preserve"
       style="font-size:11px;font-style:normal;font-variant:normal;font-weight:normal;font-stretch:normal;line-height:125%;letter-spacing:0px;word-spacing:0px;fill:#000000;fill-opacity:1;stroke:none;font-family:Arial;-inkscape-font-specification:Arial"
       x="466.60715"
       y="567.00507"
       id="text5041"
       sodipodi:linespacing="125%"><tspan
         sodipodi:role="line"
         id="tspan5043"
         x="466.60715"
         y="567.00507"
         style="font-size:7px">amplifier</tspan></text>
  </g>
</svg>
